<svg width="25" height="24" viewBox="0 0 25 24" fill="none" xmlns="http://www.w3.org/2000/svg">
    <path d="M19.8359 10V4M16.8359 7H22.8359M16.8359 21V19.8C16.8359 18.1198 16.8359 17.2798 16.509 16.638C16.2213 16.0735 15.7624 15.6146 15.1979 15.327C14.5562 15 13.7161 15 12.0359 15H7.63594C5.95578 15 5.1157 15 4.47397 15.327C3.90948 15.6146 3.45054 16.0735 3.16292 16.638C2.83594 17.2798 2.83594 18.1198 2.83594 19.8V21M13.3359 7.5C13.3359 9.433 11.7689 11 9.83594 11C7.90294 11 6.33594 9.433 6.33594 7.5C6.33594 5.567 7.90294 4 9.83594 4C11.7689 4 13.3359 5.567 13.3359 7.5Z" stroke="black" stroke-width="1.7" stroke-linecap="round" stroke-linejoin="round"/>
</svg>
