<svg width="24" height="25" viewBox="0 0 24 25" fill="none" xmlns="http://www.w3.org/2000/svg">
    <path
        d="M22.5 19.9905H21V13.2405L21.2194 13.4599C21.3604 13.6006 21.5515 13.6795 21.7507 13.6794C21.9499 13.6792 22.1408 13.5999 22.2816 13.4589C22.4223 13.3179 22.5013 13.1268 22.5011 12.9276C22.5009 12.7284 22.4216 12.5375 22.2806 12.3967L13.0603 3.17923C12.779 2.89813 12.3977 2.74023 12 2.74023C11.6023 2.74023 11.221 2.89813 10.9397 3.17923L1.71938 12.3967C1.57877 12.5375 1.49983 12.7283 1.49991 12.9272C1.5 13.1262 1.57911 13.3169 1.71984 13.4575C1.86057 13.5981 2.0514 13.6771 2.25033 13.677C2.44927 13.6769 2.64002 13.5978 2.78062 13.457L3 13.2405V19.9905H1.5C1.30109 19.9905 1.11032 20.0695 0.96967 20.2101C0.829018 20.3508 0.75 20.5416 0.75 20.7405C0.75 20.9394 0.829018 21.1302 0.96967 21.2708C1.11032 21.4115 1.30109 21.4905 1.5 21.4905H22.5C22.6989 21.4905 22.8897 21.4115 23.0303 21.2708C23.171 21.1302 23.25 20.9394 23.25 20.7405C23.25 20.5416 23.171 20.3508 23.0303 20.2101C22.8897 20.0695 22.6989 19.9905 22.5 19.9905ZM14.25 19.9905H9.75V15.4905C9.75 15.391 9.78951 15.2956 9.85983 15.2253C9.93016 15.155 10.0255 15.1155 10.125 15.1155H13.875C13.9745 15.1155 14.0698 15.155 14.1402 15.2253C14.2105 15.2956 14.25 15.391 14.25 15.4905V19.9905Z"
        fill="black" />
</svg>
