<svg width="393" height="284" viewBox="0 0 393 284" fill="none" xmlns="http://www.w3.org/2000/svg">
    <path d="M182.502 99.1019C180.436 118.766 161.258 129.6 151.25 136.568C146.106 140.144 131.587 152.085 131.587 152.085C131.587 152.085 117.055 140.144 111.923 136.568C101.903 129.6 82.738 118.766 80.6708 99.1019C78.5912 79.4382 87.0793 43.0053 87.0793 43.0053L131.587 33.071L176.081 43.0053C176.081 43.0053 184.57 79.4382 182.502 99.1019Z" fill="white"/>
    <path d="M87.4806 43.4095C86.6844 46.9188 79.2003 80.624 81.1495 99.051C82.9847 116.506 98.5828 126.995 108.905 133.935C110.078 134.724 111.184 135.468 112.198 136.172C116.873 139.43 129.461 149.72 131.586 151.462C133.712 149.719 146.288 139.43 150.975 136.172C151.995 135.463 153.109 134.714 154.29 133.918C164.605 126.978 180.19 116.492 182.024 99.051C183.96 80.624 176.477 46.9188 175.68 43.4095L131.586 33.5642L87.4806 43.4095ZM131.586 152.567C131.478 152.567 131.37 152.53 131.281 152.457C131.136 152.338 116.705 140.487 111.648 136.964C110.638 136.261 109.536 135.521 108.367 134.735C97.8968 127.694 82.0737 117.054 80.1918 99.1514C78.1271 79.6347 86.5249 43.2611 86.6099 42.8965C86.6519 42.7156 86.7935 42.5757 86.9741 42.5347L131.482 32.6003C131.55 32.5848 131.623 32.5848 131.691 32.6003L176.187 42.5347C176.366 42.5757 176.509 42.7156 176.55 42.8965C176.636 43.2611 185.033 79.6332 182.981 99.1514C181.101 117.04 165.29 127.678 154.829 134.716C153.651 135.509 152.54 136.256 151.524 136.964C146.455 140.487 132.037 152.338 131.892 152.457C131.803 152.53 131.695 152.567 131.586 152.567Z" fill="#231F20"/>
    <path d="M131.584 139.539C126.859 135.724 120.683 130.815 117.486 128.586C116.428 127.851 115.282 127.079 114.067 126.262C104.64 119.925 91.729 111.244 90.3455 98.0846C89.0334 85.6713 92.7195 63.6219 95.2691 51.145L131.587 43.0395L167.893 51.145C170.442 63.6219 174.132 85.6727 172.828 98.0846C171.446 111.231 158.545 119.911 149.126 126.248C147.902 127.071 146.748 127.849 145.692 128.584C142.486 130.812 136.31 135.723 131.584 139.539Z" fill="#132559"/>
    <path d="M158.337 84.9076C158.337 92.1453 155.466 98.7088 150.794 103.524C150.373 103.961 149.937 104.382 149.483 104.785C148.382 105.781 147.192 106.688 145.93 107.486C145.41 107.818 144.878 108.133 144.336 108.433C143.136 109.086 141.879 109.644 140.573 110.109C139.992 110.319 139.4 110.507 138.797 110.68C136.815 111.227 134.74 111.559 132.598 111.637C132.261 111.654 131.924 111.659 131.586 111.659C131.265 111.659 130.95 111.654 130.628 111.637H130.622C128.154 111.553 125.769 111.133 123.517 110.42C123.008 110.259 122.499 110.082 122.006 109.893C120.014 109.129 118.143 108.133 116.417 106.939C115.885 106.578 115.365 106.191 114.862 105.787C113.539 104.724 112.321 103.54 111.22 102.251C110.938 101.918 110.661 101.581 110.396 101.233C106.909 96.7174 104.834 91.0556 104.834 84.9076C104.834 70.1312 116.815 58.1546 131.586 58.1546C146.362 58.1546 158.337 70.1312 158.337 84.9076Z" fill="white"/>
    <path d="M132.597 111.637C132.261 111.654 131.923 111.66 131.585 111.66C131.264 111.66 130.949 111.654 130.627 111.637C130.832 111.46 131.031 111.271 131.225 111.083C131.546 110.774 132.061 110.779 132.371 111.1C132.521 111.25 132.591 111.443 132.597 111.637Z" fill="#231F20"/>
    <path d="M140.572 110.109C139.991 110.32 139.399 110.508 138.796 110.68C134.777 106.939 133.134 103.857 132.469 102.113C130.611 104.16 128.679 105.948 126.72 107.431C126.36 107.697 125.851 107.625 125.586 107.27C125.314 106.911 125.386 106.408 125.74 106.136C127.96 104.464 130.14 102.378 132.215 99.9431C132.426 99.7 132.752 99.6053 133.062 99.6943C133.367 99.789 133.593 100.049 133.633 100.37C133.643 100.414 134.301 104.515 140.572 110.109Z" fill="#231F20"/>
    <path d="M123.517 110.42C123.007 110.259 122.498 110.082 122.006 109.893C122.1 109.838 122.199 109.783 122.294 109.727C122.676 109.501 123.174 109.628 123.4 110.01C123.478 110.143 123.517 110.281 123.517 110.42Z" fill="#231F20"/>
    <path d="M120.589 105.007C119.3 105.726 117.905 106.374 116.416 106.939C115.885 106.579 115.365 106.191 114.861 105.787C116.649 105.162 118.304 104.432 119.798 103.596C120.185 103.375 120.683 103.519 120.899 103.906C121.115 104.299 120.977 104.791 120.589 105.007Z" fill="#231F20"/>
    <path d="M123.633 102.84C123.382 102.852 123.13 102.747 122.962 102.537C122.684 102.186 122.742 101.677 123.092 101.399C125.944 99.1333 128.031 96.342 129.296 93.1026C129.46 92.6857 129.929 92.4807 130.344 92.6433C130.76 92.8058 130.966 93.275 130.804 93.6906C129.433 97.1999 127.177 100.22 124.098 102.667C123.96 102.777 123.797 102.833 123.633 102.84Z" fill="#231F20"/>
    <path d="M131.148 90.478C131.087 90.4808 131.025 90.478 130.963 90.4653C130.523 90.3847 130.234 89.9621 130.314 89.5226C130.824 86.7751 130.584 84.8077 130.581 84.7879C130.525 84.3441 130.837 83.9399 131.28 83.882C131.728 83.8283 132.128 84.1364 132.187 84.5788C132.198 84.6692 132.465 86.8005 131.906 89.818C131.836 90.1953 131.516 90.4625 131.148 90.478Z" fill="#231F20"/>
    <path d="M154.028 94.4987C153.581 94.5185 153.204 94.1736 153.182 93.727L152.733 83.7743C152.616 81.1625 152.029 78.6298 150.993 76.2483C150.815 75.8385 151.002 75.3622 151.412 75.1841C151.821 75.006 152.299 75.1926 152.477 75.6024C153.592 78.1662 154.223 80.8911 154.35 83.7023L154.799 93.6535C154.819 94.1001 154.474 94.4789 154.028 94.4987Z" fill="#231F20"/>
    <path d="M149.242 72.3703C148.982 72.3816 148.722 72.27 148.555 72.0452C144.311 66.341 137.555 63.1271 130.48 63.4465C127.068 63.6006 123.711 64.5843 120.772 66.2916C120.386 66.5163 119.891 66.3848 119.666 65.999C119.442 65.6117 119.573 65.1171 119.959 64.8924C123.123 63.055 126.736 61.995 130.408 61.8297C138.019 61.4862 145.289 64.9432 149.854 71.0799C150.12 71.4375 150.046 71.9449 149.687 72.212C149.553 72.311 149.398 72.3632 149.242 72.3703Z" fill="#231F20"/>
    <path d="M109.359 85.2569C109.344 85.2583 109.328 85.2583 109.312 85.2583C108.865 85.2526 108.507 84.8852 108.513 84.4386C108.59 78.2086 111.137 72.4026 115.684 68.092C116.009 67.7839 116.521 67.7994 116.828 68.1231C117.136 68.4467 117.122 68.9597 116.798 69.2664C112.571 73.2746 110.203 78.6693 110.131 84.4598C110.126 84.8894 109.784 85.2385 109.359 85.2569Z" fill="#231F20"/>
    <path d="M152.271 99.7905C152.187 99.7948 152.101 99.7849 152.016 99.7623C151.047 99.4909 150.205 99.0443 149.515 98.4352C148.405 97.443 147.7 95.8346 147.622 94.1273L147.167 84.0262C147.066 81.779 146.5 79.6265 145.488 77.6337C145.286 77.2352 145.444 76.7476 145.843 76.5455C146.242 76.3433 146.729 76.5016 146.931 76.9002C148.048 79.1008 148.671 81.4737 148.783 83.9541L149.239 94.0538C149.297 95.3357 149.802 96.5215 150.59 97.2253C151.091 97.6677 151.718 97.9984 152.452 98.2034C152.883 98.3235 153.134 98.7687 153.014 99.1998C152.918 99.5446 152.611 99.775 152.271 99.7905Z" fill="#231F20"/>
    <path d="M144.017 74.7532C143.778 74.7631 143.537 74.6684 143.367 74.4734C140.186 70.7832 135.58 68.7932 130.732 69.0122C126.448 69.2059 122.518 71.0856 119.666 74.3052C119.369 74.6387 118.858 74.6698 118.524 74.3744C118.189 74.0776 118.158 73.566 118.455 73.231C121.6 69.6822 125.934 67.6102 130.66 67.3954C136.005 67.1551 141.084 69.3486 144.592 73.4162C144.885 73.754 144.847 74.2656 144.509 74.5567C144.366 74.6797 144.192 74.7447 144.017 74.7532Z" fill="#231F20"/>
    <path d="M109.624 91.132C109.27 91.1476 108.934 90.9271 108.819 90.5752C108.68 90.1498 108.911 89.6933 109.336 89.5533C110.348 89.2226 111.824 88.6446 113.109 87.7754C113.744 87.3443 114.143 86.4384 114.102 85.5197C113.996 83.182 114.353 80.8924 115.162 78.7145C115.318 78.2947 115.782 78.0827 116.202 78.2368C116.622 78.3937 116.835 78.8586 116.679 79.277C115.946 81.2514 115.622 83.3276 115.718 85.4476C115.785 86.9302 115.117 88.369 114.016 89.1152C112.576 90.089 110.95 90.7278 109.84 91.091C109.768 91.1151 109.696 91.1278 109.624 91.132Z" fill="#231F20"/>
    <path d="M150.794 103.524C150.373 103.961 149.936 104.382 149.482 104.785C148.099 104.276 146.865 103.534 145.808 102.594C143.572 100.602 142.2 97.6082 142.055 94.3816L141.856 89.9932C141.839 89.5452 142.183 89.1692 142.631 89.1466C143.074 89.1297 143.456 89.4731 143.472 89.9211L143.671 94.3095C143.799 97.0994 144.972 99.6774 146.886 101.382C147.983 102.361 149.294 103.081 150.794 103.524Z" fill="#231F20"/>
    <path d="M118.799 91.8448C118.622 91.8533 118.442 91.8038 118.287 91.6921C117.926 91.4293 117.845 90.9233 118.107 90.5615C119.2 89.0549 119.754 87.1751 119.668 85.2685C119.375 78.7771 124.418 73.2566 130.911 72.9626C137.402 72.6701 142.923 77.7129 143.217 84.2057L143.303 86.1307C143.323 86.5773 142.978 86.9546 142.531 86.9758C142.085 86.9956 141.707 86.6494 141.686 86.2042L141.6 84.2778C141.347 78.6768 136.584 74.3265 130.983 74.5795C125.382 74.8325 121.031 79.5954 121.284 85.1965C121.387 87.4677 120.724 89.7106 119.417 91.5112C119.267 91.719 119.036 91.8349 118.799 91.8448Z" fill="#231F20"/>
    <path d="M109.997 96.8181C109.615 96.835 109.264 96.5792 109.174 96.1934C109.072 95.758 109.343 95.3227 109.778 95.221C109.919 95.1885 113.258 94.3956 116.227 92.3901C116.598 92.1399 117.101 92.2374 117.35 92.6063C117.601 92.9766 117.503 93.4812 117.133 93.7299C113.919 95.9008 110.298 96.7615 110.145 96.7969C110.096 96.8096 110.047 96.8152 109.997 96.8181Z" fill="#231F20"/>
    <path d="M145.929 107.486C145.409 107.818 144.878 108.133 144.335 108.433C143.544 107.939 142.797 107.381 142.099 106.755C141.524 106.241 140.981 105.682 140.484 105.09C140.196 104.747 140.241 104.238 140.584 103.95C140.921 103.661 141.436 103.706 141.723 104.044C142.171 104.58 142.659 105.084 143.179 105.544C144.02 106.296 144.939 106.95 145.929 107.486Z" fill="#231F20"/>
    <path d="M138.807 100.968C138.718 101 138.629 101.017 138.541 101.023C138.209 101.04 137.888 100.845 137.755 100.514C137.008 98.6541 136.582 96.6726 136.488 94.6303L136.034 84.5306C135.918 81.9965 133.764 80.032 131.236 80.1479C128.702 80.2595 126.737 82.412 126.853 84.9461C127.09 90.297 124.562 95.4331 120.251 98.3502C116.034 101.199 111.529 102.202 111.341 102.24C111.302 102.245 111.258 102.251 111.219 102.251C110.937 101.919 110.66 101.581 110.395 101.233C110.466 100.956 110.693 100.729 110.998 100.657C111.042 100.651 115.397 99.6773 119.349 97.0047C123.195 94.4042 125.453 89.8108 125.231 85.0182C125.082 81.5923 127.738 78.6808 131.164 78.5324C134.584 78.377 137.495 81.034 137.649 84.4585L138.103 94.5582C138.192 96.4182 138.579 98.2173 139.255 99.9162C139.42 100.33 139.221 100.801 138.807 100.968Z" fill="#231F20"/>
    <path d="M212.792 173.203C212.792 173.203 208.794 176.551 211.043 183.863C213.115 190.604 221.549 213.25 228.208 208.373C234.864 203.495 226.112 177.172 226.112 177.172L212.792 173.203Z" fill="#231F20"/>
    <path d="M212.921 173.744C212.187 174.494 209.635 177.645 211.503 183.721C213.288 189.531 219.66 206.539 225.31 208.412C226.249 208.724 227.104 208.585 227.922 207.984C233.898 203.607 226.576 180.186 225.731 177.56L212.921 173.744ZM226.254 209.539C225.847 209.539 225.43 209.468 225.008 209.327C218.942 207.317 212.538 190.365 210.582 184.004C208.267 176.474 212.31 172.98 212.483 172.834C212.607 172.73 212.775 172.696 212.929 172.742L226.249 176.71C226.4 176.755 226.519 176.871 226.568 177.019C226.93 178.109 235.353 203.734 228.492 208.761C227.785 209.279 227.036 209.539 226.254 209.539Z" fill="#231F20"/>
    <path d="M166.198 129.124C166.198 129.124 157.463 134.057 157.711 139.924C157.735 140.506 162.108 148.398 164.015 150.102C170.413 155.825 173.374 156.837 173.374 156.837C175.522 161.762 188.417 204.707 200.034 209.691C212.236 214.929 236.828 195.875 236.828 195.875L225.416 169.934L210.061 178.556L188.731 144.757C187.921 140.596 181.173 121.762 177.614 123.976C174.165 126.122 175.143 130.095 175.207 130.345C174.888 129.872 164.23 114.065 160.327 115.973C156.367 117.915 166.198 129.124 166.198 129.124Z" fill="white"/>
    <path d="M161.092 116.287C160.89 116.287 160.705 116.325 160.539 116.405C160.186 116.579 159.984 116.844 159.906 117.235C159.373 119.894 164.529 126.49 166.562 128.806C166.656 128.915 166.697 129.062 166.673 129.205C166.649 129.347 166.562 129.472 166.436 129.544C166.351 129.592 157.959 134.4 158.192 139.902C158.342 140.538 162.515 148.115 164.336 149.743C170.546 155.298 173.501 156.372 173.531 156.382C173.656 156.425 173.761 156.521 173.815 156.644C174.194 157.514 174.887 159.505 175.847 162.261C180.326 175.112 190.813 205.209 200.223 209.249C201.635 209.854 203.226 210.121 204.931 210.122C216.625 210.124 233.763 197.577 236.233 195.72L225.188 170.615L210.296 178.977C210.072 179.101 209.79 179.03 209.653 178.813L188.324 145.014C188.293 144.963 188.27 144.908 188.259 144.849C187.435 140.619 181.95 125.818 178.633 124.372C178.238 124.2 178.008 124.297 177.868 124.384C174.777 126.307 175.573 129.831 175.675 130.226C175.733 130.453 175.618 130.689 175.405 130.785C175.191 130.879 174.938 130.809 174.808 130.614C170.768 124.618 164.059 116.287 161.092 116.287ZM204.96 211.089C203.117 211.089 201.389 210.798 199.843 210.133C190.043 205.927 179.458 175.549 174.938 162.578C174.048 160.024 173.388 158.13 173.008 157.21C172.221 156.878 169.227 155.411 163.694 150.461C161.869 148.83 157.267 140.874 157.229 139.943C157.005 134.625 163.551 130.183 165.459 129.004C163.822 127.082 158.309 120.306 158.961 117.047C159.098 116.364 159.496 115.844 160.115 115.54C163.683 113.801 171.404 124.063 174.551 128.545C174.599 127.025 175.131 124.953 177.359 123.567C177.854 123.259 178.428 123.232 179.017 123.489C182.963 125.209 188.424 140.866 189.186 144.575L210.224 177.912L225.18 169.514C225.298 169.448 225.44 169.435 225.568 169.478C225.697 169.521 225.801 169.616 225.856 169.74L237.269 195.681C237.358 195.883 237.297 196.12 237.122 196.256C236.236 196.941 217.812 211.086 204.96 211.089Z" fill="#231F20"/>
    <path d="M166.388 129.237L171.8 135.538C172.683 136.567 172.596 138.089 171.605 138.94C170.614 139.792 169.096 139.648 168.213 138.619L162.8 132.318C161.917 131.291 162.001 129.764 162.992 128.914C163.49 128.487 164.117 128.312 164.729 128.37C165.347 128.427 165.947 128.724 166.388 129.237Z" fill="white"/>
    <path d="M164.499 128.84C164.057 128.84 163.638 128.993 163.306 129.278C162.519 129.955 162.456 131.178 163.166 132.004L168.58 138.305C168.924 138.708 169.399 138.957 169.915 139.005C170.424 139.054 170.913 138.9 171.292 138.575C171.67 138.25 171.895 137.789 171.925 137.278C171.955 136.76 171.781 136.254 171.436 135.852L166.023 129.551C165.677 129.147 165.2 128.898 164.684 128.848C164.622 128.843 164.561 128.84 164.499 128.84ZM170.1 139.977C170.008 139.977 169.917 139.973 169.823 139.964C169.059 139.892 168.356 139.525 167.847 138.933L162.436 132.632C161.38 131.402 161.489 129.571 162.679 128.547C163.258 128.05 164.007 127.817 164.775 127.89C165.541 127.962 166.243 128.33 166.753 128.923L172.167 135.224C172.675 135.816 172.931 136.565 172.887 137.333C172.842 138.107 172.499 138.808 171.919 139.306C171.41 139.744 170.772 139.977 170.1 139.977Z" fill="#231F20"/>
    <path d="M162.931 132.499L168.151 138.575C169.001 139.566 168.918 141.036 167.963 141.856C167.007 142.677 165.543 142.538 164.691 141.546L159.471 135.47C158.62 134.479 158.701 133.007 159.656 132.187C160.136 131.776 160.742 131.606 161.331 131.663C161.926 131.719 162.507 132.005 162.931 132.499Z" fill="white"/>
    <path d="M161.112 132.133C160.689 132.133 160.289 132.278 159.971 132.551C159.219 133.197 159.16 134.366 159.838 135.156L165.058 141.232C165.387 141.616 165.841 141.854 166.334 141.9C166.819 141.947 167.288 141.801 167.65 141.49C168.012 141.179 168.226 140.74 168.255 140.251C168.283 139.756 168.116 139.273 167.785 138.888L162.566 132.812C162.235 132.427 161.78 132.188 161.287 132.141C161.228 132.135 161.17 132.133 161.112 132.133ZM166.512 142.873C166.423 142.873 166.334 142.868 166.244 142.86C165.502 142.789 164.82 142.434 164.327 141.859L159.108 135.783C158.083 134.59 158.189 132.812 159.344 131.82C159.906 131.338 160.63 131.112 161.377 131.183C162.121 131.252 162.803 131.608 163.297 132.185L168.516 138.261C169.009 138.835 169.258 139.561 169.216 140.306C169.173 141.058 168.84 141.738 168.277 142.221C167.783 142.645 167.164 142.873 166.512 142.873Z" fill="#231F20"/>
    <path d="M160.42 136.601L164.818 141.721C165.536 142.557 165.402 143.85 164.517 144.61C163.633 145.369 162.335 145.307 161.617 144.472L157.583 139.775C156.865 138.94 156.633 137.22 157.518 136.461C157.96 136.079 158.507 135.907 159.03 135.932C159.557 135.958 160.062 136.185 160.42 136.601Z" fill="white"/>
    <path d="M158.93 136.411C158.531 136.411 158.144 136.557 157.832 136.825C157.545 137.073 157.399 137.522 157.43 138.061C157.461 138.589 157.661 139.126 157.949 139.461L161.983 144.158C162.241 144.46 162.613 144.638 163.027 144.657C163.461 144.679 163.869 144.531 164.203 144.244C164.536 143.957 164.744 143.567 164.789 143.144C164.832 142.732 164.713 142.337 164.453 142.035L160.053 136.915C159.793 136.611 159.422 136.433 159.007 136.413C158.981 136.411 158.955 136.411 158.93 136.411ZM163.105 145.622C163.064 145.622 163.023 145.622 162.982 145.619C162.301 145.587 161.686 145.291 161.25 144.785L157.217 140.089C156.793 139.594 156.513 138.858 156.469 138.117C156.418 137.264 156.68 136.546 157.204 136.095C157.726 135.648 158.383 135.419 159.053 135.452C159.734 135.483 160.35 135.78 160.785 136.287L165.184 141.408C165.618 141.913 165.818 142.565 165.748 143.243C165.677 143.912 165.352 144.527 164.83 144.975C164.341 145.395 163.734 145.622 163.105 145.622Z" fill="#231F20"/>
    <path d="M175.211 130.349C175.211 130.349 174.936 134.796 177.144 137.017C177.144 137.017 175.266 139.191 175.04 141.97C174.813 144.747 176.672 146.417 176.672 146.417" fill="white"/>
    <path d="M176.672 146.9C176.557 146.9 176.443 146.859 176.351 146.777C176.268 146.702 174.316 144.913 174.559 141.931C174.744 139.648 175.962 137.78 176.512 137.04C174.491 134.628 174.719 130.502 174.73 130.32C174.747 130.056 174.977 129.857 175.24 129.869C175.506 129.886 175.708 130.114 175.693 130.379C175.69 130.422 175.459 134.639 177.485 136.679C177.663 136.857 177.673 137.142 177.509 137.333C177.49 137.353 175.729 139.429 175.519 142.008C175.317 144.501 176.928 145.998 176.996 146.062C177.192 146.24 177.208 146.544 177.03 146.742C176.935 146.846 176.803 146.9 176.672 146.9Z" fill="#231F20"/>
    <path d="M268.503 187.549L227.966 208.497C229.575 193.678 224.986 181.699 212.792 173.203C212.792 173.203 232.494 160.62 240.277 158.113C248.055 155.61 252.785 155.67 252.785 155.67L268.503 187.549Z" fill="white"/>
    <path d="M234.6 205.068L227.963 208.497C229.575 193.675 224.985 181.7 212.789 173.203C212.789 173.203 215.161 171.69 218.579 169.608C230.662 178.337 235.589 190.346 234.6 205.068Z" fill="#70CFCC"/>
    <path d="M213.658 173.226C224.896 181.326 229.897 192.904 228.534 207.662L267.863 187.338L252.489 156.156C251.353 156.192 246.954 156.469 240.425 158.571C233.553 160.786 217.03 171.099 213.658 173.226ZM227.966 208.979C227.87 208.979 227.775 208.951 227.693 208.894C227.548 208.794 227.469 208.621 227.487 208.446C229.146 193.171 224.25 181.772 212.517 173.599C212.386 173.507 212.308 173.355 212.311 173.193C212.315 173.032 212.398 172.884 212.534 172.798C213.34 172.282 232.377 160.153 240.129 157.654C247.893 155.156 252.592 155.183 252.793 155.188C252.974 155.189 253.138 155.294 253.218 155.456L268.936 187.335C269.052 187.571 268.958 187.857 268.725 187.977L228.187 208.925C228.117 208.962 228.042 208.979 227.966 208.979Z" fill="#231F20"/>
    <path d="M270.516 154.157C270.516 154.157 305.465 152.434 313.883 164.446C321.04 174.659 314.764 192.696 314.723 207.317C314.647 235.124 320.248 264.117 320.248 264.117H233.786C233.786 264.117 237.454 244.52 237.968 221.415C238.518 196.772 231.54 174.412 239.387 162.145C245.306 152.891 270.516 154.157 270.516 154.157Z" fill="white"/>
    <path d="M233.786 264.599C233.757 264.599 233.726 264.596 233.697 264.591C233.435 264.541 233.263 264.29 233.312 264.028C233.349 263.833 236.978 244.202 237.486 221.403C237.682 212.631 236.936 204.322 236.215 196.286C235.598 189.414 235.015 182.924 235.179 177.221C235.186 176.956 235.407 176.745 235.674 176.753C235.94 176.762 236.149 176.982 236.142 177.249C235.981 182.894 236.56 189.357 237.175 196.199C237.865 203.887 238.646 212.598 238.45 221.425C237.939 244.305 234.296 264.01 234.259 264.206C234.215 264.437 234.013 264.599 233.786 264.599Z" fill="#231F20"/>
    <path d="M320.247 264.599C320.021 264.599 319.819 264.439 319.775 264.209C319.719 263.918 314.167 234.851 314.242 207.315C314.255 202.634 314.911 197.548 315.544 192.628C316.881 182.257 318.262 171.534 313.489 164.723C305.321 153.066 270.888 154.621 270.54 154.638C270.386 154.636 257.252 154.58 247.707 156.824C247.451 156.883 247.188 156.724 247.127 156.465C247.066 156.206 247.227 155.946 247.486 155.886C257.148 153.614 270.384 153.674 270.519 153.675C271.93 153.604 305.804 152.079 314.277 164.17C319.265 171.287 317.859 182.199 316.501 192.751C315.87 197.641 315.219 202.698 315.206 207.318C315.13 234.762 320.666 263.736 320.721 264.025C320.772 264.287 320.601 264.54 320.339 264.591C320.308 264.596 320.277 264.599 320.247 264.599Z" fill="#231F20"/>
    <path d="M285.3 124.799C285.3 124.799 286.47 149.671 290.528 154.969C290.528 154.969 272.095 165.524 261.368 164.296C254.4 163.499 257.887 155.033 257.887 155.033C257.887 155.033 267.253 148.625 264.062 138.343C260.872 128.061 285.3 124.799 285.3 124.799Z" fill="white"/>
    <path d="M258.286 155.339C258.019 156.054 256.766 159.7 258.105 161.97C258.723 163.015 259.84 163.637 261.424 163.819C270.941 164.907 286.929 156.406 289.832 154.807C286.258 149.106 285.039 128.989 284.846 125.355C282.04 125.793 268.679 128.153 265.116 133.729C264.218 135.132 264.024 136.595 264.523 138.201C267.576 148.036 259.411 154.505 258.286 155.339ZM263.219 164.879C262.563 164.879 261.927 164.845 261.314 164.776C259.413 164.558 258.055 163.778 257.276 162.458C255.549 159.532 257.365 155.039 257.443 154.85C257.479 154.764 257.539 154.689 257.616 154.635C257.707 154.573 266.649 148.299 263.603 138.486C263.024 136.619 263.26 134.844 264.304 133.21C268.512 126.626 284.556 124.414 285.237 124.322C285.373 124.305 285.506 124.343 285.609 124.431C285.712 124.517 285.776 124.643 285.781 124.777C285.794 125.024 286.991 149.558 290.91 154.677C290.995 154.788 291.028 154.929 291.001 155.066C290.974 155.202 290.888 155.319 290.768 155.388C290.052 155.798 274.063 164.879 263.219 164.879Z" fill="#231F20"/>
    <path d="M273.369 137.476C267.661 140.352 260.733 141.873 254.514 137.774C245.346 131.723 246.266 111.234 252.887 98.103C256.135 91.6667 260.754 86.9999 266.226 86.672C279.793 85.8636 288.414 92.9825 289.543 97.2409C290.668 101.498 286.506 117.898 286.506 117.898C286.506 117.898 289.029 112.085 292.507 113.985C295.987 115.883 293.454 129.615 285.3 128.628" fill="white"/>
    <path d="M262.92 140.783C259.783 140.783 256.885 139.914 254.248 138.177C244.906 132.01 245.614 111.456 252.457 97.8866C256.105 90.6574 260.985 86.5036 266.198 86.1913C280.56 85.3348 288.92 93.0121 290.008 97.1178C290.869 100.371 288.817 110.16 287.672 115.108C288.307 114.342 289.109 113.624 290.049 113.302C290.951 112.992 291.855 113.08 292.739 113.562C294.797 114.686 294.904 118.866 293.817 122.258C292.641 125.929 289.771 129.654 285.242 129.106C284.98 129.075 284.79 128.834 284.823 128.57C284.854 128.306 285.09 128.116 285.358 128.15C290.328 128.751 292.385 123.567 292.9 121.964C293.966 118.634 293.682 115.173 292.277 114.407C291.634 114.055 291.007 113.992 290.363 114.212C288.357 114.899 286.961 118.058 286.947 118.09C286.847 118.319 286.587 118.435 286.351 118.353C286.113 118.273 285.977 118.022 286.038 117.779C286.081 117.617 290.158 101.452 289.078 97.3637C287.993 93.2763 279.438 86.3666 266.254 87.1524C261.398 87.4435 256.803 91.4093 253.317 98.3205C246.79 111.264 245.986 131.569 254.779 137.372C259.876 140.732 266.058 140.622 273.153 137.046C273.39 136.926 273.68 137.022 273.799 137.259C273.919 137.497 273.824 137.786 273.587 137.905C269.782 139.823 266.218 140.783 262.92 140.783Z" fill="#231F20"/>
    <path d="M285.301 128.628C293.454 129.615 295.987 115.883 292.507 113.985C289.029 112.085 286.506 117.898 286.506 117.898C286.506 117.898 285.708 118.437 285.052 117.714C284.396 116.992 282.995 105.661 286.144 98.1863C286.144 98.1863 262.778 103.681 252.887 98.1029C251.231 97.1673 249.952 95.9278 249.225 94.2954C244.143 82.9209 255.461 73.7865 261.626 77.8442C267.789 81.9061 275.711 61.728 289.883 69.1678C304.057 76.6146 300.591 86.727 300.591 86.727C300.591 86.727 306.362 88.2492 308.82 98.9213C311.276 109.598 298.994 135.99 285.301 128.628Z" fill="#231F20"/>
    <path d="M287.472 129.024C290.596 129.986 293.769 129.254 296.935 126.839C304.74 120.881 309.982 106.122 308.351 99.0299C305.999 88.8158 300.521 87.2074 300.466 87.1918C300.337 87.1565 300.228 87.0703 300.166 86.9516C300.104 86.8343 300.093 86.6958 300.135 86.57C300.269 86.1742 303.273 76.7459 289.658 69.5944C281.565 65.3445 275.53 70.4693 270.68 74.5863C267.193 77.5473 264.181 80.1054 261.36 78.2469C258.953 76.6611 255.411 77.2307 252.549 79.663C249.429 82.3144 246.8 87.6865 249.665 94.0988C250.309 95.5461 251.472 96.7516 253.123 97.683C262.738 103.106 285.802 97.7721 286.034 97.7169C286.209 97.6759 286.396 97.7367 286.512 97.8752C286.629 98.0137 286.659 98.206 286.588 98.3727C283.514 105.671 284.93 116.632 285.425 117.412C285.684 117.693 285.979 117.622 286.133 117.554C286.461 116.858 287.898 114.04 290.049 113.302C290.951 112.992 291.856 113.08 292.739 113.562C294.797 114.685 294.904 118.866 293.817 122.258C292.846 125.284 290.725 128.35 287.472 129.024ZM290.126 130.383C288.42 130.383 286.725 129.941 285.073 129.052C284.868 128.943 284.772 128.703 284.841 128.482C284.912 128.262 285.125 128.123 285.359 128.15C290.328 128.751 292.386 123.567 292.9 121.964C293.966 118.634 293.682 115.173 292.277 114.407C291.634 114.055 291.008 113.991 290.363 114.212C288.358 114.899 286.961 118.058 286.947 118.09C286.91 118.174 286.851 118.246 286.776 118.296C286.38 118.564 285.438 118.853 284.696 118.038C283.822 117.075 282.666 106.276 285.366 98.8533C280.931 99.8115 261.609 103.575 252.651 98.5225C250.815 97.4866 249.515 96.1312 248.786 94.4917C245.703 87.5932 248.551 81.7957 251.926 78.9281C255.117 76.2173 259.121 75.6181 261.89 77.4413C264.108 78.9026 266.732 76.6738 270.056 73.8528C275.126 69.5478 281.438 64.1898 290.106 68.7408C302.76 75.3877 301.642 84.3086 301.167 86.4216C302.627 87.0251 307.166 89.5973 309.289 98.8137C310.998 106.241 305.798 121.286 297.519 127.603C295.096 129.453 292.599 130.383 290.126 130.383Z" fill="#231F20"/>
    <path d="M294.796 220C294.796 220 286.907 220.32 281.659 214.15C276.413 207.981 271.072 193.73 273.203 190.888C277.719 184.866 288.982 189.58 289.903 190.572C290.825 191.565 297.633 194.898 297.703 195.394C297.774 195.89 300.044 203.408 300.044 203.69C300.044 203.974 294.796 220 294.796 220Z" fill="#231F20"/>
    <path d="M280.243 188.361C280.007 188.361 279.773 188.367 279.537 188.38C276.877 188.52 274.877 189.461 273.589 191.177C271.643 193.771 276.848 207.749 282.027 213.838C286.458 219.046 292.922 219.488 294.447 219.518C296.432 213.458 299.295 204.641 299.554 203.679C299.455 203.245 298.865 201.225 298.388 199.586C297.712 197.269 297.35 196.017 297.251 195.588C296.899 195.271 295.203 194.324 293.95 193.624C291.605 192.316 290.032 191.418 289.55 190.9C289.149 190.467 284.698 188.361 280.243 188.361ZM294.55 220.485C293.089 220.485 286.151 220.173 281.293 214.463C276.094 208.35 270.428 193.788 272.819 190.599C274.285 188.644 276.528 187.574 279.486 187.417C284.213 187.171 289.484 189.413 290.255 190.245C290.671 190.69 292.748 191.851 294.419 192.784C297.698 194.614 298.119 194.899 298.18 195.326C298.219 195.566 298.826 197.645 299.312 199.316C300.406 203.067 300.526 203.519 300.526 203.69C300.526 203.789 300.526 204.051 295.254 220.15C295.191 220.341 295.017 220.474 294.815 220.481C294.785 220.482 294.695 220.485 294.55 220.485Z" fill="#231F20"/>
    <path d="M196.474 188.364C196.474 188.364 190.035 178.93 195.285 178.234C200.542 177.535 206.79 192.115 206.79 192.115" fill="white"/>
    <path d="M206.79 192.597C206.604 192.597 206.426 192.488 206.348 192.306C204.649 188.343 199.367 178.175 195.349 178.712C194.595 178.812 194.114 179.112 193.882 179.631C192.979 181.652 195.734 186.425 196.871 188.092C197.021 188.311 196.965 188.611 196.746 188.762C196.527 188.912 196.226 188.856 196.076 188.635C195.626 187.976 191.718 182.114 193.003 179.238C193.376 178.401 194.124 177.902 195.222 177.757C200.778 177.019 206.972 191.316 207.234 191.925C207.339 192.17 207.225 192.453 206.981 192.559C206.919 192.584 206.854 192.597 206.79 192.597Z" fill="#231F20"/>
    <path d="M192.81 213.51L168.164 215.43C165.128 215.666 162.475 213.397 162.239 210.362L158.953 168.174C158.717 165.138 160.986 162.486 164.022 162.249L188.667 160.33C191.703 160.093 194.356 162.363 194.592 165.398L197.878 207.585C198.115 210.621 195.846 213.274 192.81 213.51Z" fill="#B689FF"/>
    <path d="M189.1 160.796C188.968 160.796 188.837 160.8 188.705 160.81L164.058 162.73C162.718 162.835 161.5 163.454 160.625 164.476C159.753 165.498 159.329 166.798 159.434 168.138L162.72 210.324C162.935 213.09 165.367 215.165 168.126 214.95L192.773 213.029C194.113 212.926 195.331 212.306 196.206 211.284C197.079 210.264 197.503 208.963 197.399 207.623L194.111 165.435C193.906 162.802 191.697 160.796 189.1 160.796ZM167.726 215.928C166.3 215.928 164.934 215.426 163.839 214.489C162.622 213.448 161.883 211.996 161.759 210.399L158.473 168.213C158.348 166.616 158.853 165.067 159.894 163.85C160.935 162.633 162.388 161.894 163.983 161.769L188.63 159.85C191.923 159.594 194.815 162.065 195.072 165.361L198.358 207.549C198.483 209.144 197.978 210.693 196.938 211.91C195.896 213.127 194.443 213.866 192.848 213.991L168.202 215.91C168.042 215.923 167.884 215.928 167.726 215.928Z" fill="#231F20"/>
    <path d="M206.791 192.115L266.353 205.312L278.294 189.389L297.518 185.451L300.923 206.512C300.923 206.512 282.771 235.654 268.724 235.732C254.574 235.811 203.205 214.074 203.205 214.074C203.205 214.074 178.28 209.998 171.864 204.642C167.756 201.21 171.203 199.562 171.203 199.562C166.731 195.668 172.266 193.474 172.266 193.474C170.166 192.504 168.71 189.634 171.12 188.125C173.466 186.657 183.11 190.221 183.609 190.408C183.105 190.164 171.924 186.565 174.211 183.514C177.33 179.342 196.475 188.364 196.475 188.364" fill="white"/>
    <path d="M268.648 236.214C254.558 236.215 205.825 215.705 203.07 214.54C201.428 214.269 177.906 210.315 171.556 205.01C169.969 203.685 169.238 202.417 169.386 201.24C169.491 200.41 170.007 199.836 170.426 199.498C169.304 198.378 168.829 197.264 169.015 196.178C169.244 194.843 170.431 193.928 171.262 193.441C170.199 192.673 169.465 191.503 169.393 190.368C169.326 189.295 169.847 188.354 170.865 187.717C171.899 187.068 174.063 187.255 176.344 187.734C174.895 186.866 173.797 185.915 173.502 184.916C173.327 184.326 173.438 183.741 173.824 183.225C177.085 178.864 194.684 186.987 196.679 187.929C196.919 188.042 197.023 188.329 196.91 188.569C196.796 188.811 196.511 188.914 196.268 188.799C191.043 186.337 176.963 180.637 174.596 183.802C174.389 184.076 174.336 184.343 174.425 184.641C174.713 185.611 176.477 187.284 183.244 189.755C183.556 189.869 183.758 189.946 183.819 189.974C184.051 190.087 184.153 190.361 184.052 190.597C183.951 190.833 183.681 190.949 183.442 190.859C179.463 189.377 172.965 187.537 171.375 188.534C170.653 188.986 170.309 189.584 170.354 190.307C170.421 191.355 171.31 192.502 172.467 193.037C172.643 193.117 172.751 193.294 172.747 193.486C172.742 193.678 172.623 193.849 172.443 193.921C172.421 193.93 170.222 194.826 169.964 196.344C169.817 197.212 170.34 198.173 171.519 199.199C171.642 199.305 171.701 199.466 171.68 199.627C171.658 199.788 171.557 199.927 171.41 199.996C171.403 200 170.449 200.476 170.342 201.365C170.243 202.184 170.876 203.189 172.172 204.271C178.415 209.483 203.034 213.558 203.282 213.599C203.32 213.605 203.357 213.616 203.392 213.63C203.904 213.846 254.647 235.251 268.646 235.251C268.672 235.251 268.696 235.251 268.721 235.251C281.828 235.178 298.978 208.672 300.418 206.408L297.122 186.024L278.569 189.824L266.738 205.601C266.625 205.752 266.431 205.823 266.249 205.782L206.687 192.586C206.427 192.528 206.263 192.272 206.321 192.012C206.379 191.752 206.635 191.588 206.895 191.646L266.153 204.774L277.908 189.099C277.978 189.006 278.082 188.941 278.196 188.917L297.42 184.979C297.552 184.952 297.683 184.979 297.792 185.054C297.899 185.129 297.971 185.245 297.993 185.373L301.397 206.435C301.416 206.549 301.393 206.667 301.331 206.766C300.583 207.966 282.876 236.135 268.727 236.214C268.7 236.214 268.673 236.214 268.648 236.214Z" fill="#231F20"/>
    <path d="M182.565 196.629C182.524 196.629 182.485 196.625 182.444 196.613L172.143 193.938C171.886 193.87 171.732 193.607 171.799 193.35C171.866 193.093 172.128 192.939 172.387 193.005L182.686 195.682C182.943 195.748 183.098 196.011 183.03 196.269C182.974 196.486 182.779 196.629 182.565 196.629Z" fill="#231F20"/>
    <path d="M181.63 202.462C181.593 202.462 181.556 202.46 181.52 202.451L171.093 200.033C170.835 199.972 170.674 199.713 170.733 199.455C170.794 199.195 171.054 199.034 171.311 199.094L181.737 201.513C181.997 201.572 182.158 201.831 182.098 202.091C182.047 202.313 181.849 202.462 181.63 202.462Z" fill="#231F20"/>
    <path d="M312.876 163.208C312.876 163.208 319.793 170.115 318.835 181.921C317.505 198.335 294.797 220 294.797 220C294.797 220 297.953 195.142 273.204 190.888L290.529 168.344" fill="white"/>
    <path d="M300.986 213.487V213.493C297.445 217.474 294.795 220.001 294.795 220.001C294.795 220.001 297.954 195.141 273.205 190.89L278.382 184.155C299.889 188.337 301.162 207.283 300.986 213.487Z" fill="#70CFCC"/>
    <path d="M294.797 220.482C294.724 220.482 294.649 220.465 294.58 220.43C294.399 220.338 294.294 220.141 294.32 219.939C294.327 219.878 295.067 213.729 292.815 207.163C289.813 198.408 283.187 193.093 273.123 191.363C272.957 191.333 272.817 191.22 272.757 191.063C272.696 190.907 272.72 190.728 272.823 190.594L290.148 168.05C290.309 167.84 290.611 167.8 290.822 167.962C291.034 168.125 291.073 168.426 290.911 168.638L274.068 190.556C286.515 192.973 291.636 200.732 293.737 206.884C295.448 211.89 295.487 216.553 295.38 218.749C299.621 214.492 317.207 196.054 318.355 181.882C319.282 170.453 312.603 163.616 312.536 163.549C312.348 163.361 312.348 163.055 312.536 162.867C312.724 162.679 313.029 162.679 313.217 162.867C313.506 163.156 320.28 170.068 319.316 181.96C317.986 198.369 296.062 219.459 295.13 220.348C295.038 220.435 294.919 220.482 294.797 220.482Z" fill="#231F20"/>
    <path d="M267.336 112.185C267.223 113.323 266.425 114.174 265.554 114.088C264.682 114.002 264.067 113.009 264.18 111.872C264.293 110.734 265.092 109.882 265.963 109.968C266.835 110.055 267.449 111.048 267.336 112.185Z" fill="#231F20"/>
    <path d="M257.052 109.9C256.939 111.038 256.141 111.89 255.27 111.802C254.398 111.716 253.783 110.724 253.896 109.586C254.009 108.449 254.808 107.596 255.678 107.683C256.55 107.77 257.165 108.762 257.052 109.9Z" fill="#231F20"/>
    <path d="M264.58 105.886C264.58 105.886 267.432 104.403 270.386 107.431L264.58 105.886Z" fill="white"/>
    <path d="M270.386 107.913C270.26 107.913 270.136 107.863 270.041 107.767C267.39 105.049 264.905 106.262 264.801 106.314C264.563 106.434 264.275 106.341 264.153 106.105C264.032 105.87 264.124 105.581 264.358 105.459C264.389 105.442 267.564 103.849 270.731 107.094C270.916 107.284 270.913 107.589 270.722 107.776C270.629 107.866 270.508 107.913 270.386 107.913Z" fill="#231F20"/>
    <path d="M253.034 104.487C253.034 104.487 255.888 103.004 258.84 106.032L253.034 104.487Z" fill="white"/>
    <path d="M258.84 106.512C258.716 106.512 258.59 106.464 258.495 106.368C255.845 103.65 253.359 104.863 253.255 104.915C253.019 105.035 252.729 104.942 252.607 104.706C252.486 104.47 252.578 104.182 252.812 104.06C252.843 104.043 256.019 102.45 259.185 105.695C259.372 105.885 259.367 106.19 259.177 106.377C259.083 106.467 258.962 106.512 258.84 106.512Z" fill="#231F20"/>
    <path d="M259.295 112.396C258.371 115.425 257.447 118.454 256.522 121.482C256.371 121.981 256.217 122.504 256.315 123.016C256.442 123.68 256.982 124.206 257.595 124.493C258.207 124.78 258.893 124.867 259.564 124.951" fill="white"/>
    <path d="M259.563 125.431C259.543 125.431 259.524 125.431 259.504 125.428C258.835 125.345 258.078 125.252 257.39 124.929C256.564 124.542 255.985 123.861 255.841 123.106C255.719 122.466 255.908 121.843 256.061 121.342L258.834 112.256C258.91 112.002 259.179 111.859 259.435 111.935C259.689 112.013 259.832 112.283 259.754 112.537L256.982 121.624C256.854 122.043 256.71 122.52 256.787 122.925C256.874 123.378 257.252 123.8 257.798 124.057C258.348 124.315 258.995 124.394 259.621 124.471C259.886 124.505 260.073 124.746 260.041 125.009C260.01 125.253 259.804 125.431 259.563 125.431Z" fill="#231F20"/>
    <path d="M264.724 129.592C262.661 130.902 260.036 131.295 257.679 130.646L264.724 129.592Z" fill="white"/>
    <path d="M259.971 131.434C259.154 131.434 258.337 131.328 257.55 131.11C257.294 131.039 257.143 130.775 257.214 130.518C257.284 130.262 257.549 130.111 257.806 130.181C260.029 130.795 262.519 130.422 264.467 129.185C264.69 129.044 264.988 129.11 265.131 129.335C265.274 129.558 265.207 129.856 264.983 129.999C263.499 130.94 261.734 131.434 259.971 131.434Z" fill="#231F20"/>
    <path d="M188.948 77.7705C188.814 77.7705 188.679 77.714 188.585 77.6051C188.409 77.403 188.431 77.0992 188.631 76.9253L220.547 49.2311C220.749 49.0572 221.053 49.0784 221.227 49.2791C221.401 49.4798 221.38 49.7851 221.179 49.9589L189.263 77.6532C189.173 77.7324 189.06 77.7705 188.948 77.7705Z" fill="#231F20"/>
    <path d="M260.608 33.3819C248.595 50.8903 229.122 50.8903 217.108 33.3819L217.115 33.3748C229.122 15.8749 248.595 15.8749 260.601 33.3748L260.608 33.3819Z" fill="white"/>
    <path d="M261.346 36.4645C249.333 53.9715 229.86 53.9715 217.847 36.4645L217.854 36.456C229.86 18.9561 249.333 18.9561 261.339 36.456L261.346 36.4645Z" fill="#B689FF"/>
    <path d="M217.695 33.3833C223.389 41.5425 230.894 46.0312 238.858 46.0312C246.821 46.0312 254.326 41.5425 260.022 33.3833C254.329 25.2213 246.824 20.7311 238.858 20.7311C230.893 20.7311 223.388 25.2213 217.695 33.3833ZM238.858 46.9951C230.479 46.9951 222.614 42.2576 216.711 33.6547C216.59 33.478 216.601 33.2448 216.734 33.0794C222.631 24.4949 230.487 19.7673 238.858 19.7673C247.234 19.7673 255.095 24.5005 260.994 33.0964C261.111 33.2603 261.12 33.4865 261.005 33.6547C255.103 42.2562 247.237 46.9951 238.858 46.9951Z" fill="#231F20"/>
    <path d="M247.276 33.0709C247.276 37.5201 243.669 41.1255 239.22 41.1255C234.771 41.1255 231.164 37.5201 231.164 33.0709C231.164 28.6218 234.771 25.0149 239.22 25.0149C243.669 25.0149 247.276 28.6218 247.276 33.0709Z" fill="#231F20"/>
    <path d="M239.597 30.2361C239.597 31.617 238.476 32.7363 237.095 32.7363C235.715 32.7363 234.594 31.617 234.594 30.2361C234.594 28.8539 235.715 27.7345 237.095 27.7345C238.476 27.7345 239.597 28.8539 239.597 30.2361Z" fill="white"/>
    <path d="M237.407 34.5708C237.407 35.4005 236.735 36.0718 235.907 36.0718C235.078 36.0718 234.406 35.4005 234.406 34.5708C234.406 33.7426 235.078 33.0713 235.907 33.0713C236.735 33.0713 237.407 33.7426 237.407 34.5708Z" fill="white"/>
    <path d="M134.074 213.141L130.29 232.833C129.67 236.068 126.544 238.187 123.308 237.565L103.62 233.783C100.385 233.161 98.266 230.035 98.8875 226.801L102.67 207.108C103.292 203.874 106.419 201.754 109.653 202.376L129.342 206.158C132.576 206.78 134.696 209.906 134.074 213.141Z" fill="#70CFCC"/>
    <path d="M106.505 199.199C105.42 199.199 104.359 199.521 103.44 200.144C102.228 200.965 101.408 202.21 101.132 203.648L97.3489 223.341C96.7783 226.309 98.7297 229.19 101.699 229.759L121.388 233.541C122.826 233.818 124.285 233.517 125.498 232.696C126.71 231.873 127.53 230.63 127.806 229.191L131.589 209.499C132.16 206.53 130.208 203.651 127.239 203.08L107.551 199.298C107.202 199.231 106.852 199.199 106.505 199.199ZM122.424 234.604C122.023 234.604 121.615 234.566 121.206 234.488L101.517 230.705C98.0266 230.035 95.7322 226.65 96.4025 223.159L100.186 203.467C100.511 201.775 101.475 200.312 102.9 199.347C104.326 198.38 106.043 198.027 107.732 198.352L127.421 202.134C130.911 202.805 133.206 206.19 132.536 209.681L128.753 229.373C128.161 232.454 125.453 234.604 122.424 234.604Z" fill="#231F20"/>
    <path d="M108.634 198.524L126.519 201.961L127.674 195.946C128.133 193.558 127.634 191.134 126.269 189.12C124.904 187.106 122.838 185.743 120.45 185.285C118.061 184.826 115.637 185.325 113.623 186.69C111.609 188.056 110.248 190.122 109.789 192.51L108.634 198.524ZM126.901 203.006C126.871 203.006 126.841 203.003 126.81 202.997L107.979 199.379C107.853 199.355 107.743 199.283 107.671 199.177C107.599 199.071 107.573 198.941 107.596 198.817L108.843 192.328C109.35 189.688 110.856 187.403 113.083 185.893C115.31 184.384 117.99 183.833 120.631 184.34C123.272 184.847 125.558 186.353 127.067 188.58C128.576 190.806 129.128 193.487 128.621 196.127L127.374 202.616C127.35 202.74 127.277 202.852 127.171 202.924C127.092 202.978 126.997 203.006 126.901 203.006Z" fill="#231F20"/>
    <path d="M115.107 218.706L115.905 223.932L110.411 222.878L113.088 218.318C111.997 217.68 111.375 216.402 111.627 215.092C111.947 213.425 113.557 212.334 115.223 212.654C116.889 212.975 117.98 214.584 117.66 216.251C117.409 217.561 116.357 218.518 115.107 218.706Z" fill="#231F20"/>
    <path d="M92.7428 204.424C92.6298 204.424 92.5169 204.384 92.4257 204.304C91.4978 203.491 69.7456 184.21 73.7657 166.785C77.7592 149.479 94.6462 135.692 94.8164 135.555C95.0235 135.388 95.3272 135.421 95.4938 135.627C95.6607 135.835 95.6282 136.137 95.4213 136.305C95.254 136.44 78.6219 150.023 74.7044 167.002C70.8138 183.864 92.8373 203.384 93.0602 203.579C93.26 203.754 93.2804 204.059 93.105 204.258C93.0099 204.367 92.8763 204.424 92.7428 204.424Z" fill="#231F20"/>
    <path d="M215.646 103.324C207.224 103.324 200.372 109.87 200.372 117.919C200.372 125.967 207.224 132.515 215.646 132.515C224.068 132.515 230.921 125.967 230.921 117.919C230.921 109.87 224.068 103.324 215.646 103.324ZM215.646 133.479C206.693 133.479 199.408 126.498 199.408 117.919C199.408 109.34 206.693 102.36 215.646 102.36C224.599 102.36 231.884 109.34 231.884 117.919C231.884 126.498 224.599 133.479 215.646 133.479Z" fill="#231F20"/>
    <path d="M212.773 122.831C212.412 122.831 212.053 122.696 211.773 122.429L209.481 120.236C208.904 119.684 208.885 118.77 209.436 118.193C209.988 117.615 210.903 117.597 211.48 118.148L212.778 119.392L218.117 114.351C218.696 113.802 219.61 113.829 220.159 114.41C220.707 114.989 220.682 115.904 220.101 116.452L213.765 122.436C213.486 122.699 213.129 122.831 212.773 122.831Z" fill="#231F20"/>
    <path d="M263.995 97.2168C262.05 97.2168 260.107 97.0486 258.197 96.7094C256.361 96.3829 253.759 95.7187 252.357 93.7103C251.464 92.4284 251.139 90.6886 251.443 88.8089C251.707 87.1765 252.372 85.6727 253.016 84.2184C253.123 83.9767 253.409 83.8665 253.651 83.9739C253.894 84.0813 254.004 84.3653 253.897 84.6084C253.278 86.0076 252.637 87.4535 252.394 88.9615C252.13 90.5939 252.398 92.0836 253.147 93.1591C254.345 94.8735 256.699 95.4657 258.366 95.7611C263.031 96.5893 267.915 96.3702 272.488 95.1279C272.741 95.0586 273.009 95.2099 273.078 95.4671C273.148 95.7229 272.996 95.9872 272.741 96.0579C269.903 96.8281 266.947 97.2168 263.995 97.2168Z" fill="white"/>
    <path d="M289.231 102.057C289.167 102.057 289.102 102.044 289.042 102.018C288.796 101.912 288.684 101.629 288.79 101.384C289.511 99.711 288.927 97.5514 287.461 96.4688C286.438 95.7141 284.997 95.4046 283.401 95.5982C281.927 95.7763 280.492 96.3374 279.106 96.8801C278.858 96.9776 278.579 96.8546 278.481 96.6073C278.385 96.36 278.507 96.0801 278.755 95.984C280.197 95.4187 281.689 94.835 283.286 94.6414C285.122 94.4181 286.811 94.7912 288.032 95.6943C289.875 97.0539 290.579 99.6643 289.673 101.766C289.596 101.948 289.418 102.057 289.231 102.057Z" fill="white"/>
    <path d="M302.802 112.522C302.699 112.522 302.596 112.489 302.506 112.422C302.297 112.259 302.258 111.957 302.422 111.746C305.394 107.907 306.081 102.339 304.129 97.8926C304.023 97.6495 304.133 97.3654 304.378 97.258C304.621 97.1506 304.905 97.2622 305.012 97.5053C307.1 102.265 306.365 108.225 303.183 112.335C303.089 112.458 302.946 112.522 302.802 112.522Z" fill="white"/>
    <path d="M269.46 82.3145C268.901 82.3145 268.362 82.2226 267.858 82.0346C267.608 81.9413 267.482 81.6643 267.576 81.4142C267.669 81.1654 267.946 81.0396 268.196 81.1329C269.498 81.6205 271.144 81.2898 272.602 80.2496C273.755 79.4256 274.695 78.2766 275.602 77.1643L276.05 76.6187C277.176 75.2577 278.446 73.8966 280.094 73.1589C283.539 71.6169 287.388 73.2861 289.376 74.4182C289.607 74.5496 289.687 74.8436 289.556 75.0739C289.424 75.3057 289.129 75.3863 288.899 75.2549C287.07 74.2132 283.545 72.6699 280.486 74.038C279.101 74.6584 278.008 75.7637 276.792 77.2321L276.348 77.7734C275.4 78.9352 274.42 80.1351 273.161 81.034C271.982 81.8749 270.679 82.3145 269.46 82.3145Z" fill="white"/>
    <path d="M298.747 93.8345C298.713 93.8345 298.681 93.8317 298.647 93.8246C298.387 93.7695 298.22 93.5151 298.275 93.2536C298.574 91.8389 298.304 90.3223 297.538 89.0956C297.396 88.8708 297.464 88.5726 297.69 88.4327C297.916 88.2914 298.213 88.3592 298.353 88.5854C299.252 90.0213 299.567 91.795 299.218 93.4529C299.17 93.679 298.969 93.8345 298.747 93.8345Z" fill="white"/>
</svg>
