<svg width="21" height="20" viewBox="0 0 21 20" fill="none" xmlns="http://www.w3.org/2000/svg">
    <path d="M18.8333 7.08268C18.8333 10.0743 16.4083 12.4994 13.4167 12.4994C13.275 12.4994 13.125 12.491 12.9833 12.4827C12.775 9.84103 10.6583 7.72434 8.01666 7.51601C8.00832 7.37434 8 7.22435 8 7.08268C8 4.09102 10.425 1.66602 13.4167 1.66602C16.4083 1.66602 18.8333 4.09102 18.8333 7.08268Z" stroke="#132559" stroke-width="1.5" stroke-linecap="round" stroke-linejoin="round"/>
    <path d="M13.0013 12.9167C13.0013 15.9083 10.5763 18.3333 7.58464 18.3333C4.59297 18.3333 2.16797 15.9083 2.16797 12.9167C2.16797 9.925 4.59297 7.5 7.58464 7.5C7.7263 7.5 7.87629 7.50832 8.01796 7.51666C10.6596 7.72499 12.7763 9.84168 12.9846 12.4833C12.993 12.625 13.0013 12.775 13.0013 12.9167Z" stroke="#132559" stroke-width="1.5" stroke-linecap="round" stroke-linejoin="round"/>
    <path d="M6.85 12.184L7.58333 10.834L8.31667 12.184L9.66667 12.9173L8.31667 13.6507L7.58333 15.0007L6.85 13.6507L5.5 12.9173L6.85 12.184Z" stroke="#132559" stroke-width="1.5" stroke-linecap="round" stroke-linejoin="round"/>
</svg>
