<svg width="25" height="24" viewBox="0 0 25 24" fill="none" xmlns="http://www.w3.org/2000/svg">
    <path d="M22.832 10H2.83203M2.83203 8.2L2.83203 15.8C2.83203 16.9201 2.83203 17.4802 3.05002 17.908C3.24176 18.2843 3.54773 18.5903 3.92405 18.782C4.35187 19 4.91193 19 6.03203 19L19.632 19C20.7521 19 21.3122 19 21.74 18.782C22.1163 18.5903 22.4223 18.2843 22.614 17.908C22.832 17.4802 22.832 16.9201 22.832 15.8V8.2C22.832 7.0799 22.832 6.51984 22.614 6.09202C22.4223 5.7157 22.1163 5.40974 21.74 5.21799C21.3122 5 20.7521 5 19.632 5L6.03203 5C4.91193 5 4.35187 5 3.92405 5.21799C3.54773 5.40973 3.24177 5.71569 3.05002 6.09202C2.83203 6.51984 2.83203 7.07989 2.83203 8.2Z" stroke="black" stroke-width="2" stroke-linecap="round" stroke-linejoin="round"/>
</svg>
