<svg width="25" height="24" viewBox="0 0 25 24" fill="none" xmlns="http://www.w3.org/2000/svg">
    <path
        d="M15.9955 20.7604C15.8055 20.7604 15.6155 20.6904 15.4655 20.5404C15.1755 20.2504 15.1755 19.7704 15.4655 19.4804L20.4755 14.4704C20.7655 14.1804 21.2455 14.1804 21.5355 14.4704C21.8255 14.7604 21.8255 15.2404 21.5355 15.5304L16.5255 20.5404C16.3755 20.6804 16.1855 20.7604 15.9955 20.7604Z"
        fill="#111111" />
    <path
        d="M21.0059 15.7402H4.00586C3.59586 15.7402 3.25586 15.4002 3.25586 14.9902C3.25586 14.5802 3.59586 14.2402 4.00586 14.2402H21.0059C21.4159 14.2402 21.7559 14.5802 21.7559 14.9902C21.7559 15.4002 21.4159 15.7402 21.0059 15.7402Z"
        fill="#111111" />
    <path
        d="M4.00531 9.76043C3.81531 9.76043 3.62531 9.69043 3.47531 9.54043C3.18531 9.25043 3.18531 8.77043 3.47531 8.48043L8.48531 3.47043C8.77531 3.18043 9.25531 3.18043 9.54531 3.47043C9.83531 3.76043 9.83531 4.24043 9.54531 4.53043L4.53531 9.54043C4.39531 9.68043 4.19531 9.76043 4.00531 9.76043Z"
        fill="#111111" />
    <path
        d="M21.0059 9.75977H4.00586C3.59586 9.75977 3.25586 9.41977 3.25586 9.00977C3.25586 8.59977 3.59586 8.25977 4.00586 8.25977H21.0059C21.4159 8.25977 21.7559 8.59977 21.7559 9.00977C21.7559 9.41977 21.4159 9.75977 21.0059 9.75977Z"
        fill="#111111" />
</svg>
