<svg width="24" height="24" viewBox="0 0 24 24" fill="none" xmlns="http://www.w3.org/2000/svg">
<path d="M15.5 14.6667C15.5 15.9553 14.4553 17 13.1667 17H11C9.61929 17 8.5 15.8807 8.5 14.5C8.5 13.1193 9.61929 12 11 12H13C14.3807 12 15.5 10.8807 15.5 9.5C15.5 8.11929 14.3807 7 13 7H10.8333C9.54467 7 8.5 8.04467 8.5 9.33333M12 5.5V7M12 17V18.5M2 12C2 17.5228 6.47715 22 12 22C17.5228 22 22 17.5228 22 12C22 6.47715 17.5228 2 12 2C6.47715 2 2 6.47715 2 12Z" stroke="black" stroke-width="2" stroke-linecap="round" stroke-linejoin="round"/>
</svg>
