<svg width="25" height="24" viewBox="0 0 25 24" fill="none" xmlns="http://www.w3.org/2000/svg">
    <g clip-path="url(#clip0_2071_6930)">
        <path d="M24.2356 10.8535C22.5142 8.3462 18.9556 12.0362 12.4609 12.7862C10.0562 13.0635 7.88957 15.0715 5.09624 14.8802C3.9509 14.8015 2.35157 11.5062 1.15424 12.0315C0.538237 12.3022 0.25557 13.2055 0.888903 13.8842L7.9209 22.2749C7.9209 22.2749 8.27824 22.6869 9.48224 22.4015C9.7789 22.4889 14.2389 20.7015 16.8176 17.1235C17.4349 16.2669 18.1709 15.5535 18.9329 14.9575C21.4069 13.1282 24.0962 12.4909 24.0962 12.4909C24.4402 12.2069 24.5209 11.9049 24.5022 11.6429C24.5249 11.2055 24.2356 10.8535 24.2356 10.8535Z" fill="#5C913B"/>
        <path d="M8.14989 6.84972C5.62789 10.3497 1.21122 12.0077 1.21122 12.0077C0.387224 12.7057 1.08322 13.5284 1.08322 13.5284L8.04189 21.7677C8.04189 21.7677 8.38989 22.1791 9.56189 21.8937C9.56189 21.8937 13.9786 20.2391 16.4999 16.7391C19.0992 13.1324 23.7866 11.9937 23.7866 11.9937C24.6099 11.2957 23.9146 10.4717 23.9146 10.4717L16.9559 2.23372C16.9559 2.23372 16.6079 1.82172 15.4359 2.10572C15.4359 2.10572 10.7492 3.24172 8.14989 6.84972Z" fill="#A7D28B"/>
        <path d="M15.1667 13.0003C17.1917 13.0003 18.8333 11.3587 18.8333 9.33366C18.8333 7.30861 17.1917 5.66699 15.1667 5.66699C13.1416 5.66699 11.5 7.30861 11.5 9.33366C11.5 11.3587 13.1416 13.0003 15.1667 13.0003Z" fill="#77B255"/>
        <path d="M9.08285 21.2862C8.49552 21.2862 8.28018 21.0676 8.25085 21.0342L1.97819 13.7122C1.96619 13.6982 1.64819 13.3342 1.68685 12.8716C1.71019 12.5909 1.85552 12.3409 2.11819 12.1282L2.16019 12.1029C2.20085 12.0869 6.26885 10.4149 8.54885 7.3929C10.9609 4.19557 15.1215 2.82357 15.1629 2.81023C16.3262 2.53957 16.7069 2.92623 16.7475 2.97157L22.9375 10.3342C22.9489 10.3462 23.2662 10.7116 23.2275 11.1749C23.2042 11.4549 23.0589 11.7049 22.7962 11.9176L22.7302 11.9502C22.6895 11.9602 18.6442 12.9656 16.3009 16.0709C13.9682 19.1642 9.89618 21.1656 9.85552 21.1849C9.54618 21.2582 9.29152 21.2862 9.08285 21.2862ZM8.50218 20.8149C8.50285 20.8149 8.80352 21.0922 9.74552 20.8736C9.75085 20.8662 13.7515 18.8989 16.0362 15.8709C18.3275 12.8342 22.1862 11.7496 22.6142 11.6369C22.7857 11.4889 22.8795 11.3269 22.8955 11.1509C22.9235 10.8309 22.6875 10.5556 22.6855 10.5529L16.4955 3.18957C16.4942 3.18957 16.1955 2.9129 15.2529 3.13157C15.2255 3.1409 11.1629 4.48223 8.81552 7.59357C6.57152 10.5676 2.65619 12.2569 2.31019 12.4022C2.13152 12.5533 2.03441 12.7189 2.01885 12.8989C1.99219 13.2162 2.22685 13.4902 2.22885 13.4929L8.50218 20.8149Z" fill="#5C913B"/>
        <path d="M14.6837 14.7778L14.6797 18.7378L15.011 19.1311C15.657 18.5418 16.2777 17.8791 16.8144 17.1338C17.3534 16.3909 17.9872 15.7217 18.6997 15.1431L18.3777 14.7598L14.6837 14.7778Z" fill="#FFAC33"/>
        <path d="M18.3662 14.7455L10.0289 4.87012C9.35155 5.42745 8.70089 6.07745 8.14755 6.84612C7.60689 7.59678 6.97755 8.25745 6.32422 8.84012L7.29889 9.99412L7.29822 9.99478L14.6816 18.7374C15.3579 18.1379 15.967 17.4667 16.4982 16.7354C17.0516 15.9675 17.7016 15.3181 18.3782 14.7608L18.3662 14.7455Z" fill="#FFE8B6"/>
        <path d="M10.153 15.0364C9.11503 13.8071 6.9177 15.8017 6.29103 15.0597C5.9877 14.7004 6.18303 14.2344 6.5817 13.8984C7.2517 13.3317 7.73503 13.6617 8.03837 13.4051C8.2537 13.2237 8.24237 13.0017 8.11437 12.8491C7.81703 12.4977 7.05703 12.6811 6.46637 13.0224L6.17903 12.6824C6.09175 12.5852 5.97007 12.5258 5.83975 12.5168C5.70944 12.5078 5.58074 12.5499 5.48091 12.6341C5.38107 12.7183 5.31795 12.8381 5.30491 12.9681C5.29186 13.0981 5.32993 13.228 5.41103 13.3304L5.70837 13.6831C5.25703 14.2817 5.1037 15.0764 5.6377 15.7077C6.63503 16.8877 8.8597 14.9264 9.5597 15.7557C9.80237 16.0437 9.73437 16.5931 9.2237 17.0237C8.45837 17.6711 7.76503 17.3677 7.4537 17.6304C7.3017 17.7577 7.27437 18.0004 7.43637 18.1931C7.69437 18.4977 8.51637 18.4324 9.30637 17.9404L9.3077 17.9444L9.63237 18.3284C9.67428 18.3811 9.72636 18.4249 9.78551 18.4571C9.84465 18.4894 9.90967 18.5094 9.97669 18.5161C10.0437 18.5227 10.1114 18.5158 10.1757 18.4958C10.2401 18.4758 10.2997 18.4431 10.3512 18.3997C10.4026 18.3562 10.4448 18.3029 10.4753 18.2428C10.5057 18.1827 10.5238 18.1171 10.5285 18.0499C10.5331 17.9827 10.5243 17.9153 10.5024 17.8516C10.4805 17.7879 10.446 17.7292 10.401 17.6791L10.0764 17.2951L10.0637 17.2844C10.5964 16.6324 10.7764 15.7731 10.153 15.0364Z" fill="#5C913B"/>
        <path d="M22.1371 21.7248L22.1558 21.7108C22.2011 21.6655 22.2364 21.6135 22.2764 21.5635C22.3044 21.5288 22.3358 21.4955 22.3618 21.4602C22.3851 21.4268 22.4044 21.3928 22.4258 21.3588C23.3724 19.9008 22.7524 17.4288 20.8784 15.5542C19.0044 13.6795 16.5311 13.0595 15.0738 14.0068C15.0391 14.0275 15.0051 14.0468 14.9718 14.0708C14.9364 14.0968 14.9024 14.1282 14.8691 14.1555C14.8198 14.1962 14.7678 14.2308 14.7218 14.2768C14.716 14.2831 14.7111 14.2893 14.7071 14.2955C14.6998 14.3028 14.6911 14.3075 14.6831 14.3155L14.6871 14.3188C14.0204 15.0268 14.0124 16.1222 14.6831 16.7935C15.3551 17.4655 16.4498 17.4562 17.1584 16.7895L17.1658 16.7975C17.1518 16.8108 17.1364 16.8195 17.1231 16.8328C16.4171 17.5388 16.4004 18.6648 17.0838 19.3495C17.7678 20.0328 18.8951 20.0162 19.6004 19.3102C19.6138 19.2968 19.6224 19.2815 19.6358 19.2675L19.6431 19.2755C18.9764 19.9835 18.9678 21.0788 19.6398 21.7508C20.3111 22.4215 21.4058 22.4135 22.1138 21.7468L22.1178 21.7508C22.124 21.7415 22.1304 21.7328 22.1371 21.7248Z" fill="#E1E8ED"/>
        <path d="M14.684 16.8203C15.288 17.4236 16.2314 17.473 16.9307 16.9943C17.2234 16.4943 17.3074 16.019 17.3074 15.8703C15.836 16.9676 14.5227 15.8763 14.2287 15.2236C14.1067 15.7876 14.2547 16.3903 14.684 16.8203ZM19.55 19.3803C19.7487 19.101 19.9027 18.831 19.9747 18.6483C19.038 19.507 17.2474 18.8783 16.7047 17.5163C16.466 18.1496 16.588 18.879 17.0854 19.3763C17.7534 20.0443 18.8414 20.039 19.55 19.3803ZM22.1194 21.777L22.1387 21.753C22.1458 21.7481 22.152 21.7432 22.1574 21.7383C22.2034 21.693 22.2387 21.641 22.278 21.5916C22.3067 21.5563 22.3374 21.5236 22.3634 21.4876C22.3874 21.455 22.4067 21.4203 22.428 21.3863C22.4714 21.3196 22.4947 21.241 22.5314 21.1703C20.846 21.9243 19.588 20.645 19.2354 20.007C19.0387 20.6183 19.1667 21.303 19.6414 21.7783C20.312 22.4496 21.4067 22.4416 22.1154 21.7743L22.1194 21.777Z" fill="#CCD6DD"/>
        <path d="M9.80437 8.33189L9.82303 8.31722C9.86903 8.27189 9.90437 8.21989 9.9437 8.17056C9.9717 8.13589 10.0024 8.10322 10.0284 8.06722C10.0524 8.03389 10.0717 7.99989 10.093 7.96589C11.0397 6.50789 10.419 4.03522 8.54503 2.16122C6.67103 0.287223 4.19837 -0.33411 2.74037 0.612556C2.70637 0.63389 2.6717 0.653223 2.63837 0.677223C2.60237 0.703223 2.5697 0.73389 2.53504 0.76189C2.4857 0.80189 2.4337 0.836556 2.38837 0.882556L2.3737 0.901223L2.3497 0.921223L2.35304 0.924556C1.68637 1.63256 1.67837 2.72789 2.3497 3.39922C3.02103 4.07056 4.11637 4.06256 4.82437 3.39589L4.8317 3.40322C4.8177 3.41589 4.80237 3.42522 4.78904 3.43856C4.08303 4.14456 4.06637 5.27056 4.75037 5.95522C5.43437 6.63989 6.56103 6.62256 7.26703 5.91656C7.28037 5.90322 7.28903 5.88789 7.30237 5.87389L7.3097 5.88122C6.64303 6.58922 6.63437 7.68456 7.30637 8.35589C7.9777 9.02722 9.07237 9.01922 9.78037 8.35189L9.7837 8.35589L9.80437 8.33189Z" fill="#E1E8ED"/>
        <path d="M2.34811 3.39976C2.95211 4.00376 3.89544 4.05309 4.59478 3.57309C4.88744 3.07309 4.97078 2.59842 4.97078 2.44976C3.50011 3.54642 2.18611 2.45442 1.89278 1.80176C1.77078 2.36642 1.91878 2.96976 2.34811 3.39976ZM7.21544 5.95842C7.41344 5.67909 7.56744 5.41042 7.63878 5.22776C6.70144 6.08642 4.91078 5.45709 4.36878 4.09509C4.13011 4.72842 4.25211 5.45776 4.74878 5.95509C5.41811 6.62376 6.50678 6.61776 7.21544 5.95842ZM9.78278 8.35642C9.78989 8.34887 9.79656 8.34087 9.80278 8.33242L9.82144 8.31776C9.86744 8.27242 9.90278 8.22042 9.94211 8.17109C9.97011 8.13642 10.0008 8.10376 10.0268 8.06776C10.0508 8.03442 10.0701 8.00042 10.0914 7.96642C10.1348 7.89976 10.1581 7.82042 10.1948 7.74976C8.50944 8.50376 7.25144 7.22509 6.89878 6.58709C6.70211 7.19842 6.83011 7.88309 7.30478 8.35776C7.97611 9.02909 9.07078 9.02109 9.77878 8.35376L9.78278 8.35642Z" fill="#CCD6DD"/>
    </g>
    <defs>
        <clipPath id="clip0_2071_6930">
            <rect width="24" height="24" fill="white" transform="translate(0.5)"/>
        </clipPath>
    </defs>
</svg>
