<svg width="16" height="20" viewBox="0 0 16 20" fill="none" xmlns="http://www.w3.org/2000/svg">
    <path d="M7 2.75909V10.0005C7 10.1663 6.93415 10.3252 6.81694 10.4424C6.69973 10.5596 6.54076 10.6255 6.375 10.6255C6.20924 10.6255 6.05027 10.5596 5.93306 10.4424C5.81585 10.3252 5.75 10.1663 5.75 10.0005V2.75909L4.31719 4.19268C4.19991 4.30995 4.04085 4.37584 3.875 4.37584C3.70915 4.37584 3.55009 4.30995 3.43281 4.19268C3.31554 4.0754 3.24965 3.91634 3.24965 3.75049C3.24965 3.58464 3.31554 3.42558 3.43281 3.3083L5.93281 0.808304C5.99086 0.750194 6.05979 0.704095 6.13566 0.672642C6.21154 0.641189 6.29287 0.625 6.375 0.625C6.45713 0.625 6.53846 0.641189 6.61434 0.672642C6.69021 0.704095 6.75914 0.750194 6.81719 0.808304L9.31719 3.3083C9.43446 3.42558 9.50035 3.58464 9.50035 3.75049C9.50035 3.91634 9.43446 4.0754 9.31719 4.19268C9.19991 4.30995 9.04085 4.37584 8.875 4.37584C8.70915 4.37584 8.55009 4.30995 8.43281 4.19268L7 2.75909ZM12 9.6583V7.50049C12 7.16897 11.8683 6.85103 11.6339 6.61661C11.3995 6.38219 11.0815 6.25049 10.75 6.25049H9.5C9.33424 6.25049 9.17527 6.31634 9.05806 6.43355C8.94085 6.55076 8.875 6.70973 8.875 6.87549C8.875 7.04125 8.94085 7.20022 9.05806 7.31743C9.17527 7.43464 9.33424 7.50049 9.5 7.50049H10.75V13.7817C10.3773 13.401 9.87841 13.1694 9.34702 13.1303C8.81564 13.0913 8.28828 13.2476 7.86393 13.5698C7.43959 13.892 7.14743 14.358 7.04231 14.8804C6.93718 15.4027 7.02631 15.9455 7.29297 16.4067L7.31172 16.4364L9.05078 19.0927C9.14153 19.2314 9.28368 19.3284 9.44594 19.3623C9.6082 19.3962 9.7773 19.3643 9.91602 19.2735C10.0547 19.1828 10.1517 19.0406 10.1856 18.8784C10.2196 18.7161 10.1876 18.547 10.0969 18.4083L8.36797 15.7685C8.24541 15.552 8.21384 15.2958 8.28021 15.0561C8.34658 14.8164 8.50545 14.6129 8.72187 14.4903C8.9383 14.3678 9.19454 14.3362 9.43423 14.4026C9.67393 14.469 9.87744 14.6278 10 14.8442C10.0055 14.8544 10.0117 14.8646 10.018 14.8739L10.8523 16.1481C10.9261 16.2606 11.0342 16.3463 11.1605 16.3925C11.2868 16.4386 11.4247 16.4428 11.5536 16.4044C11.6825 16.3659 11.7955 16.287 11.876 16.1791C11.9564 16.0713 11.9999 15.9405 12 15.806V11.2505C12.5891 11.7958 13.0596 12.4566 13.3822 13.1917C13.7048 13.9268 13.8725 14.7204 13.875 15.5231V18.7505C13.875 18.9163 13.9408 19.0752 14.0581 19.1924C14.1753 19.3096 14.3342 19.3755 14.5 19.3755C14.6658 19.3755 14.8247 19.3096 14.9419 19.1924C15.0592 19.0752 15.125 18.9163 15.125 18.7505V15.52C15.1215 14.3622 14.8349 13.2229 14.2902 12.2012C13.7455 11.1795 12.9593 10.3066 12 9.6583ZM3.25 6.25049H2C1.66848 6.25049 1.35054 6.38219 1.11612 6.61661C0.881696 6.85103 0.75 7.16897 0.75 7.50049V15.6255C0.75 15.7913 0.815848 15.9502 0.933058 16.0674C1.05027 16.1846 1.20924 16.2505 1.375 16.2505C1.54076 16.2505 1.69973 16.1846 1.81694 16.0674C1.93415 15.9502 2 15.7913 2 15.6255V7.50049H3.25C3.41576 7.50049 3.57473 7.43464 3.69194 7.31743C3.80915 7.20022 3.875 7.04125 3.875 6.87549C3.875 6.70973 3.80915 6.55076 3.69194 6.43355C3.57473 6.31634 3.41576 6.25049 3.25 6.25049Z" fill="#132559"/>
</svg>
