<svg width="37" height="33" viewBox="0 0 37 33" fill="none" xmlns="http://www.w3.org/2000/svg">
    <path d="M18.5002 12.0004V18.6671M18.5002 25.3337H18.5169M16.1924 3.48659L2.4843 27.1643C1.72395 28.4776 1.34378 29.1343 1.39997 29.6732C1.44898 30.1433 1.69527 30.5705 2.07753 30.8484C2.51579 31.1671 3.27456 31.1671 4.7921 31.1671H32.2084C33.7259 31.1671 34.4847 31.1671 34.923 30.8484C35.3052 30.5705 35.5515 30.1433 35.6005 29.6732C35.6567 29.1343 35.2765 28.4776 34.5162 27.1643L20.808 3.48658C20.0504 2.17798 19.6716 1.52368 19.1774 1.30392C18.7463 1.11223 18.2542 1.11223 17.8231 1.30392C17.3289 1.52368 16.9501 2.17798 16.1924 3.48659Z" stroke="#F54F4E" stroke-width="2" stroke-linecap="round" stroke-linejoin="round"/>
</svg>
