<svg width="56" height="56" viewBox="0 0 56 56" fill="none" xmlns="http://www.w3.org/2000/svg">
<rect width="56" height="56" rx="8" fill="#F54F4E" fill-opacity="0.1"/>
<path d="M28.0002 23.0004V29.6671M28.0002 36.3337H28.0169M25.6924 14.4866L11.9843 38.1643C11.224 39.4776 10.8438 40.1343 10.9 40.6732C10.949 41.1433 11.1953 41.5705 11.5775 41.8484C12.0158 42.1671 12.7746 42.1671 14.2921 42.1671H41.7084C43.2259 42.1671 43.9847 42.1671 44.423 41.8484C44.8052 41.5705 45.0515 41.1433 45.1005 40.6732C45.1567 40.1343 44.7765 39.4776 44.0162 38.1643L30.308 14.4866C29.5504 13.178 29.1716 12.5237 28.6774 12.3039C28.2463 12.1122 27.7542 12.1122 27.3231 12.3039C26.8289 12.5237 26.4501 13.178 25.6924 14.4866Z" stroke="#F54F4E" stroke-width="2" stroke-linecap="round" stroke-linejoin="round"/>
</svg>
