<svg width="36" height="36" viewBox="0 0 36 36" fill="none" xmlns="http://www.w3.org/2000/svg">
    <rect width="36" height="36" rx="8" fill="#FFF2F3" fill-opacity="0.1"/>
    <path d="M9.99215 23.0821L16.8462 11.2433C17.225 10.589 17.4144 10.2618 17.6615 10.152C17.8771 10.0561 18.1232 10.0561 18.3387 10.152C18.5858 10.2618 18.7752 10.589 19.154 11.2433L26.0081 23.0821C26.3883 23.7388 26.5783 24.0671 26.5503 24.3366C26.5258 24.5716 26.4026 24.7852 26.2115 24.9242C25.9923 25.0835 25.613 25.0835 24.8542 25.0835H11.1461C10.3873 25.0835 10.0079 25.0835 9.78876 24.9242C9.59763 24.7852 9.47449 24.5716 9.44999 24.3366C9.42189 24.0671 9.61198 23.7388 9.99215 23.0821Z" fill="#F54F4E"/>
    <path d="M18.0001 15.5002V18.8335M18.0001 22.1669H18.0085M16.8462 11.2433L9.99215 23.0821C9.61198 23.7388 9.42189 24.0671 9.44999 24.3366C9.47449 24.5716 9.59763 24.7852 9.78876 24.9242C10.0079 25.0835 10.3873 25.0835 11.1461 25.0835H24.8542C25.613 25.0835 25.9923 25.0835 26.2115 24.9242C26.4026 24.7852 26.5258 24.5716 26.5503 24.3366C26.5783 24.0671 26.3883 23.7388 26.0081 23.0821L19.154 11.2433C18.7752 10.589 18.5858 10.2618 18.3387 10.152C18.1232 10.0561 17.8771 10.0561 17.6615 10.152C17.4144 10.2618 17.225 10.589 16.8462 11.2433Z" stroke="white" stroke-width="1.5" stroke-linecap="round" stroke-linejoin="round"/>
</svg>
