<svg width="132" height="130" viewBox="0 0 132 130" fill="none" xmlns="http://www.w3.org/2000/svg">
<g filter="url(#filter0_di_2160_3733)">
<rect x="5" y="5" width="121.376" height="119.305" rx="59.6526" fill="white"/>
<rect x="5.5" y="5.5" width="120.376" height="118.305" rx="59.1526" stroke="#C0C0C0"/>
<g filter="url(#filter1_d_2160_3733)">
<path d="M47.3758 64.75C47.3955 71.9635 45.7286 79.0818 42.5083 85.5366C42.3546 85.8712 42.1352 86.1716 41.8632 86.4199C41.5912 86.6681 41.2721 86.8592 40.9248 86.9818C40.5776 87.1044 40.2092 87.156 39.8416 87.1336C39.4741 87.1111 39.1147 87.0151 38.785 86.8511C38.4552 86.6872 38.1617 86.4586 37.922 86.1791C37.6822 85.8996 37.501 85.5748 37.3892 85.2239C37.2773 84.873 37.2371 84.5032 37.2709 84.1365C37.3047 83.7698 37.4117 83.4136 37.5858 83.0891C40.4252 77.3938 41.8942 71.1138 41.8758 64.75C41.8693 61.039 42.7006 57.3744 44.3076 54.0295C45.9146 50.6845 48.256 47.7454 51.157 45.4313C51.7264 44.9754 52.4535 44.7644 53.1784 44.8447C53.9033 44.9249 54.5667 45.2899 55.0225 45.8592C55.4783 46.4286 55.6893 47.1557 55.6091 47.8806C55.5288 48.6055 55.1639 49.2688 54.5945 49.7247C52.3376 51.524 50.5162 53.8098 49.2663 56.4115C48.0163 59.0132 47.3701 61.8636 47.3758 64.75ZM66.6258 62C65.8964 62 65.197 62.2897 64.6812 62.8055C64.1655 63.3212 63.8758 64.0207 63.8758 64.75C63.8752 75.464 61.1549 86.0025 55.9695 95.3781C55.6158 96.0163 55.5301 96.7689 55.7312 97.4702C55.9323 98.1716 56.4039 98.7644 57.042 99.1181C57.6802 99.4719 58.4328 99.5576 59.1342 99.3565C59.8355 99.1553 60.4283 98.6838 60.782 98.0456C66.4181 87.8532 69.375 76.397 69.3758 64.75C69.3758 64.0207 69.0861 63.3212 68.5703 62.8055C68.0546 62.2897 67.3551 62 66.6258 62ZM66.6258 51C62.9791 51 59.4817 52.4487 56.9031 55.0273C54.3244 57.6059 52.8758 61.1033 52.8758 64.75C52.8758 65.4793 53.1655 66.1788 53.6812 66.6945C54.197 67.2103 54.8964 67.5 55.6258 67.5C56.3551 67.5 57.0546 67.2103 57.5703 66.6945C58.0861 66.1788 58.3758 65.4793 58.3758 64.75C58.3758 62.562 59.245 60.4635 60.7922 58.9164C62.3393 57.3692 64.4378 56.5 66.6258 56.5C68.8138 56.5 70.9122 57.3692 72.4594 58.9164C74.0066 60.4635 74.8758 62.562 74.8758 64.75C74.9043 75.6845 72.4958 86.488 67.8255 96.375C67.6713 96.7025 67.5832 97.0572 67.5661 97.4187C67.549 97.7803 67.6033 98.1417 67.7258 98.4823C67.8484 98.8229 68.0369 99.136 68.2805 99.4037C68.524 99.6715 68.818 99.8887 69.1455 100.043C69.473 100.197 69.8276 100.285 70.1892 100.302C70.5508 100.319 70.9122 100.265 71.2528 100.142C71.5934 100.02 71.9065 99.8314 72.1742 99.5878C72.442 99.3443 72.6591 99.0503 72.8133 98.7228C77.8263 88.1009 80.4097 76.4954 80.3758 64.75C80.3758 61.1033 78.9271 57.6059 76.3485 55.0273C73.7699 52.4487 70.2725 51 66.6258 51ZM66.6258 29C57.1474 29.01 48.06 32.7797 41.3578 39.482C34.6555 46.1842 30.8858 55.2716 30.8758 64.75C30.8809 68.1841 30.2996 71.5938 29.157 74.8322C28.9141 75.5201 28.9543 76.2763 29.2689 76.9345C29.5835 77.5926 30.1467 78.0989 30.8345 78.3419C31.5224 78.5848 32.2786 78.5446 32.9368 78.23C33.595 77.9154 34.1013 77.3522 34.3442 76.6644C35.6934 72.8372 36.3804 68.808 36.3758 64.75C36.3758 56.7272 39.5628 49.033 45.2358 43.36C50.9088 37.687 58.603 34.5 66.6258 34.5C74.6486 34.5 82.3428 37.687 88.0158 43.36C93.6887 49.033 96.8758 56.7272 96.8758 64.75C96.8772 71.0332 96.2681 77.3017 95.0574 83.4672C94.9873 83.8216 94.9878 84.1863 95.0587 84.5404C95.1296 84.8946 95.2697 85.2314 95.4708 85.5315C95.6719 85.8315 95.9301 86.089 96.2308 86.2893C96.5314 86.4895 96.8686 86.6285 97.223 86.6984C97.3985 86.7324 97.5769 86.7497 97.7558 86.75C98.3922 86.7493 99.0086 86.528 99.5 86.1237C99.9915 85.7194 100.327 85.1571 100.451 84.5328C101.731 78.0164 102.376 71.391 102.376 64.75C102.365 55.2719 98.5949 46.1851 91.8928 39.483C85.1907 32.7809 76.1039 29.0109 66.6258 29ZM55.0758 73.0584C54.3626 72.9166 53.6222 73.0629 53.0166 73.4656C52.4111 73.8682 51.9896 74.4943 51.8445 75.2069C50.7287 80.6988 48.7309 85.9737 45.9286 90.8269C45.5639 91.4587 45.4652 92.2095 45.6541 92.9141C45.8429 93.6187 46.304 94.2194 46.9358 94.5841C47.5676 94.9487 48.3184 95.0475 49.023 94.8586C49.7276 94.6697 50.3283 94.2087 50.693 93.5769C53.7898 88.2101 55.9955 82.3765 57.2242 76.3034C57.2965 75.9493 57.2982 75.5844 57.2293 75.2295C57.1604 74.8747 57.0223 74.5369 56.8227 74.2356C56.6232 73.9342 56.3662 73.6751 56.0664 73.4731C55.7667 73.2711 55.43 73.1302 55.0758 73.0584ZM66.6258 40C65.5916 40.0002 64.5583 40.0645 63.532 40.1925C62.8219 40.2991 62.1816 40.6792 61.7481 41.2517C61.3145 41.8241 61.1221 42.5434 61.2119 43.2559C61.3017 43.9683 61.6666 44.6174 62.2286 45.0644C62.7906 45.5113 63.5052 45.7207 64.2195 45.6478C66.9287 45.3109 69.6785 45.5533 72.287 46.3589C74.8954 47.1645 77.303 48.515 79.3504 50.3209C81.3977 52.1268 83.0382 54.347 84.1631 56.8345C85.2881 59.3219 85.8718 62.02 85.8758 64.75C85.875 68.3123 85.6546 71.8711 85.2158 75.4062C85.1675 75.7658 85.1909 76.1313 85.2845 76.4817C85.3782 76.8322 85.5402 77.1606 85.7613 77.4482C85.9824 77.7358 86.2582 77.9767 86.5728 78.1573C86.8875 78.3378 87.2347 78.4543 87.5945 78.5C87.7086 78.5137 87.8234 78.5206 87.9383 78.5206C88.6071 78.5192 89.2524 78.2741 89.7535 77.8312C90.2546 77.3883 90.5772 76.7779 90.6608 76.1144C91.1245 72.351 91.3541 68.5625 91.3483 64.7706C91.3465 58.2099 88.7427 51.9178 84.1082 47.2741C79.4736 42.6305 73.1865 40.0146 66.6258 40ZM86.5392 84.0859C86.1894 83.9955 85.8251 83.9748 85.4673 84.0252C85.1095 84.0756 84.7651 84.196 84.4538 84.3796C84.1425 84.5632 83.8705 84.8063 83.6532 85.095C83.436 85.3838 83.2778 85.7126 83.1877 86.0625C82.6858 88.0184 82.1048 89.9813 81.4689 91.9062C81.2362 92.596 81.2864 93.3498 81.6086 94.0026C81.9308 94.6553 82.4986 95.1537 83.1877 95.3884C83.4699 95.4845 83.7661 95.5333 84.0642 95.5328C84.6404 95.5324 85.2019 95.351 85.6694 95.0142C86.137 94.6774 86.4869 94.2023 86.6698 93.6559C87.3573 91.6209 87.9727 89.5309 88.5089 87.4512C88.6011 87.1014 88.6233 86.7368 88.5743 86.3783C88.5254 86.0198 88.4061 85.6746 88.2235 85.3623C88.0408 85.05 87.7983 84.7768 87.5099 84.5583C87.2215 84.3399 86.8928 84.1805 86.5427 84.0894L86.5392 84.0859Z" fill="black"/>
</g>
</g>
<defs>
<filter id="filter0_di_2160_3733" x="0" y="0" width="131.375" height="129.305" filterUnits="userSpaceOnUse" color-interpolation-filters="sRGB">
<feFlood flood-opacity="0" result="BackgroundImageFix"/>
<feColorMatrix in="SourceAlpha" type="matrix" values="0 0 0 0 0 0 0 0 0 0 0 0 0 0 0 0 0 0 127 0" result="hardAlpha"/>
<feMorphology radius="5" operator="dilate" in="SourceAlpha" result="effect1_dropShadow_2160_3733"/>
<feOffset/>
<feComposite in2="hardAlpha" operator="out"/>
<feColorMatrix type="matrix" values="0 0 0 0 0 0 0 0 0 0 0 0 0 0 0 0 0 0 0.13 0"/>
<feBlend mode="normal" in2="BackgroundImageFix" result="effect1_dropShadow_2160_3733"/>
<feBlend mode="normal" in="SourceGraphic" in2="effect1_dropShadow_2160_3733" result="shape"/>
<feColorMatrix in="SourceAlpha" type="matrix" values="0 0 0 0 0 0 0 0 0 0 0 0 0 0 0 0 0 0 127 0" result="hardAlpha"/>
<feOffset/>
<feGaussianBlur stdDeviation="5"/>
<feComposite in2="hardAlpha" operator="arithmetic" k2="-1" k3="1"/>
<feColorMatrix type="matrix" values="0 0 0 0 0 0 0 0 0 0 0 0 0 0 0 0 0 0 0.2 0"/>
<feBlend mode="normal" in2="shape" result="effect2_innerShadow_2160_3733"/>
</filter>
<filter id="filter1_d_2160_3733" x="25" y="29" width="81.375" height="79.3052" filterUnits="userSpaceOnUse" color-interpolation-filters="sRGB">
<feFlood flood-opacity="0" result="BackgroundImageFix"/>
<feColorMatrix in="SourceAlpha" type="matrix" values="0 0 0 0 0 0 0 0 0 0 0 0 0 0 0 0 0 0 127 0" result="hardAlpha"/>
<feOffset dy="4"/>
<feGaussianBlur stdDeviation="2"/>
<feComposite in2="hardAlpha" operator="out"/>
<feColorMatrix type="matrix" values="0 0 0 0 0 0 0 0 0 0 0 0 0 0 0 0 0 0 0.25 0"/>
<feBlend mode="normal" in2="BackgroundImageFix" result="effect1_dropShadow_2160_3733"/>
<feBlend mode="normal" in="SourceGraphic" in2="effect1_dropShadow_2160_3733" result="shape"/>
</filter>
</defs>
</svg>
