<svg width="48" height="48" viewBox="0 0 48 48" fill="none" xmlns="http://www.w3.org/2000/svg">
    <rect width="48" height="48" rx="8" fill="#F2F2F7" />
    <path
        d="M34.6663 24.0003V32.0003C34.6663 34.947 32.2797 37.3337 29.333 37.3337H18.6663C15.7197 37.3337 13.333 34.947 13.333 32.0003V24.0003C13.333 23.267 13.933 22.667 14.6663 22.667H17.293C18.0263 22.667 18.6263 23.267 18.6263 24.0003V28.187C18.6263 29.1737 19.173 30.0803 20.0397 30.547C20.4263 30.7603 20.853 30.867 21.293 30.867C21.7997 30.867 22.3063 30.7203 22.7463 30.427L24.013 29.6003L25.1863 30.387C25.9997 30.9337 27.0397 31.0003 27.9063 30.5337C28.7863 30.067 29.333 29.1737 29.333 28.1737V24.0003C29.333 23.267 29.933 22.667 30.6663 22.667H33.333C34.0663 22.667 34.6663 23.267 34.6663 24.0003Z"
        fill="#132559" />
    <path
        d="M36.6663 17.3337V18.667C36.6663 20.1337 35.9597 21.3337 33.9997 21.3337H13.9997C11.9597 21.3337 11.333 20.1337 11.333 18.667V17.3337C11.333 15.867 11.9597 14.667 13.9997 14.667H33.9997C35.9597 14.667 36.6663 15.867 36.6663 17.3337Z"
        fill="#132559" />
    <path
        d="M23.5204 14.6666H16.1604C15.707 14.1733 15.7204 13.4133 16.2004 12.9333L18.0937 11.0399C18.587 10.5466 19.4004 10.5466 19.8937 11.0399L23.5204 14.6666Z"
        fill="#132559" />
    <path
        d="M31.8268 14.6666H24.4668L28.0935 11.0399C28.5868 10.5466 29.4001 10.5466 29.8935 11.0399L31.7868 12.9333C32.2668 13.4133 32.2801 14.1733 31.8268 14.6666Z"
        fill="#132559" />
    <path
        d="M26.6266 22.667C27.3599 22.667 27.9599 23.267 27.9599 24.0003V28.1737C27.9599 29.2403 26.7733 29.8803 25.8933 29.2803L24.6933 28.4803C24.2533 28.187 23.6799 28.187 23.2266 28.4803L21.9733 29.307C21.0933 29.8937 19.9199 29.2537 19.9199 28.2003V24.0003C19.9199 23.267 20.5199 22.667 21.2533 22.667H26.6266Z"
        fill="#132559" />
</svg>
