<svg width="25" height="24" viewBox="0 0 25 24" fill="none" xmlns="http://www.w3.org/2000/svg">
    <path d="M12.5 7H8C7.33696 7 6.70107 6.73661 6.23223 6.26777C5.76339 5.79893 5.5 5.16304 5.5 4.5C5.5 3.83696 5.76339 3.20107 6.23223 2.73223C6.70107 2.26339 7.33696 2 8 2C11.5 2 12.5 7 12.5 7ZM12.5 7H17C17.663 7 18.2989 6.73661 18.7678 6.26777C19.2366 5.79893 19.5 5.16304 19.5 4.5C19.5 3.83696 19.2366 3.20107 18.7678 2.73223C18.2989 2.26339 17.663 2 17 2C13.5 2 12.5 7 12.5 7ZM12.5 7L12.5 22M2.5 14H22.5M2.5 10.2L2.5 18.8C2.5 19.9201 2.5 20.4802 2.71799 20.908C2.90973 21.2843 3.21569 21.5903 3.59202 21.782C4.01984 22 4.57989 22 5.7 22L19.3 22C20.4201 22 20.9802 22 21.408 21.782C21.7843 21.5903 22.0903 21.2843 22.282 20.908C22.5 20.4802 22.5 19.9201 22.5 18.8V10.2C22.5 9.0799 22.5 8.51984 22.282 8.09202C22.0903 7.7157 21.7843 7.40974 21.408 7.21799C20.9802 7 20.4201 7 19.3 7L5.7 7C4.5799 7 4.01984 7 3.59202 7.21799C3.2157 7.40973 2.90973 7.71569 2.71799 8.09202C2.5 8.51984 2.5 9.07989 2.5 10.2Z" stroke="black" stroke-width="2" stroke-linecap="round" stroke-linejoin="round"/>
</svg>
