<svg width="25" height="24" viewBox="0 0 25 24" fill="none" xmlns="http://www.w3.org/2000/svg">
    <path d="M8.83203 16.9997H16.832M11.8497 2.76375L5.06742 8.03888C4.61405 8.3915 4.38737 8.56781 4.22406 8.78861C4.0794 8.9842 3.97163 9.20454 3.90606 9.43881C3.83203 9.70327 3.83203 9.99045 3.83203 10.5648V17.7997C3.83203 18.9198 3.83203 19.4799 4.05002 19.9077C4.24176 20.284 4.54773 20.59 4.92405 20.7818C5.35187 20.9997 5.91193 20.9997 7.03203 20.9997H18.632C19.7521 20.9997 20.3122 20.9997 20.74 20.7818C21.1163 20.59 21.4223 20.284 21.614 19.9077C21.832 19.4799 21.832 18.9198 21.832 17.7997V10.5648C21.832 9.99045 21.832 9.70327 21.758 9.43881C21.6924 9.20454 21.5847 8.9842 21.44 8.78861C21.2767 8.56781 21.05 8.3915 20.5966 8.03888L13.8143 2.76376C13.463 2.4905 13.2873 2.35388 13.0934 2.30136C12.9222 2.25502 12.7418 2.25502 12.5707 2.30136C12.3767 2.35388 12.2011 2.4905 11.8497 2.76375Z" stroke="black" stroke-width="2" stroke-linecap="round" stroke-linejoin="round"/>
</svg>
