<svg width="24" height="25" viewBox="0 0 24 25" fill="none" xmlns="http://www.w3.org/2000/svg">
    <path
        d="M10.5 11.7402C10.5 12.0369 10.412 12.3269 10.2472 12.5736C10.0824 12.8203 9.84811 13.0125 9.57403 13.1261C9.29994 13.2396 8.99834 13.2693 8.70736 13.2114C8.41639 13.1535 8.14912 13.0107 7.93934 12.8009C7.72956 12.5911 7.5867 12.3238 7.52882 12.0329C7.47094 11.7419 7.50065 11.4403 7.61418 11.1662C7.72771 10.8921 7.91997 10.6579 8.16665 10.493C8.41332 10.3282 8.70333 10.2402 9 10.2402C9.39782 10.2402 9.77936 10.3983 10.0607 10.6796C10.342 10.9609 10.5 11.3424 10.5 11.7402ZM21.75 5.74023V19.2402C21.75 19.6381 21.592 20.0196 21.3107 20.3009C21.0294 20.5822 20.6478 20.7402 20.25 20.7402H3.75C3.35218 20.7402 2.97064 20.5822 2.68934 20.3009C2.40804 20.0196 2.25 19.6381 2.25 19.2402V5.74023C2.25 5.34241 2.40804 4.96088 2.68934 4.67957C2.97064 4.39827 3.35218 4.24023 3.75 4.24023H20.25C20.6478 4.24023 21.0294 4.39827 21.3107 4.67957C21.592 4.96088 21.75 5.34241 21.75 5.74023ZM12.7266 16.0527C12.4839 15.1466 11.9084 14.3652 11.115 13.8646C11.5363 13.4458 11.8238 12.9113 11.941 12.3288C12.0582 11.7464 11.9999 11.1423 11.7733 10.5931C11.5468 10.0438 11.1623 9.57425 10.6686 9.24382C10.1748 8.91338 9.5941 8.73699 9 8.73699C8.4059 8.73699 7.82517 8.91338 7.33143 9.24382C6.8377 9.57425 6.45319 10.0438 6.22666 10.5931C6.00012 11.1423 5.94175 11.7464 6.05896 12.3288C6.17616 12.9113 6.46366 13.4458 6.885 13.8646C6.09211 14.3658 5.51681 15.1469 5.27344 16.0527C5.22371 16.2454 5.25257 16.45 5.35366 16.6214C5.45475 16.7928 5.6198 16.9171 5.8125 16.9668C6.0052 17.0165 6.20975 16.9877 6.38118 16.8866C6.55259 16.7855 6.67683 16.6204 6.72656 16.4277C6.97406 15.4668 7.95094 14.7402 9 14.7402C10.0491 14.7402 11.0269 15.4649 11.2734 16.4277C11.3232 16.6204 11.4474 16.7855 11.6188 16.8866C11.7902 16.9877 11.9948 17.0165 12.1875 16.9668C12.3802 16.9171 12.5452 16.7928 12.6463 16.6214C12.7474 16.45 12.7763 16.2454 12.7266 16.0527ZM18.75 13.9902C18.75 13.7913 18.671 13.6006 18.5303 13.4599C18.3897 13.3193 18.1989 13.2402 18 13.2402H14.25C14.0511 13.2402 13.8603 13.3193 13.7197 13.4599C13.579 13.6006 13.5 13.7913 13.5 13.9902C13.5 14.1891 13.579 14.3799 13.7197 14.5206C13.8603 14.6612 14.0511 14.7402 14.25 14.7402H18C18.1989 14.7402 18.3897 14.6612 18.5303 14.5206C18.671 14.3799 18.75 14.1891 18.75 13.9902ZM18.75 10.9902C18.75 10.7913 18.671 10.6006 18.5303 10.4599C18.3897 10.3193 18.1989 10.2402 18 10.2402H14.25C14.0511 10.2402 13.8603 10.3193 13.7197 10.4599C13.579 10.6006 13.5 10.7913 13.5 10.9902C13.5 11.1891 13.579 11.3799 13.7197 11.5206C13.8603 11.6612 14.0511 11.7402 14.25 11.7402H18C18.1989 11.7402 18.3897 11.6612 18.5303 11.5206C18.671 11.3799 18.75 11.1891 18.75 10.9902Z"
        fill="black" />
</svg>
