<svg width="30" height="30" viewBox="0 0 30 30" fill="none" xmlns="http://www.w3.org/2000/svg">
    <path d="M14.9993 1.66699V3.00033M2.99935 15.0003H1.66602M6.33268 6.33366L5.53255 5.53353M23.666 6.33366L24.4663 5.53353M28.3327 15.0003H26.9993M12.3327 17.0003H17.666M14.9993 17.0003V23.667M19.666 21.4989C21.6848 20.0467 22.9993 17.677 22.9993 15.0003C22.9993 10.582 19.4176 7.00033 14.9993 7.00033C10.5811 7.00033 6.99935 10.582 6.99935 15.0003C6.99935 17.677 8.31392 20.0467 10.3327 21.4989V24.067C10.3327 25.5605 10.3327 26.3072 10.6233 26.8776C10.879 27.3794 11.2869 27.7873 11.7887 28.043C12.3591 28.3337 13.1059 28.3337 14.5993 28.3337H15.3993C16.8928 28.3337 17.6396 28.3337 18.21 28.043C18.7118 27.7873 19.1197 27.3794 19.3754 26.8776C19.666 26.3072 19.666 25.5605 19.666 24.067V21.4989Z" stroke="white" stroke-width="1.5" stroke-linecap="round" stroke-linejoin="round"/>
</svg>
