<svg width="18" height="21" viewBox="0 0 18 21" fill="none" xmlns="http://www.w3.org/2000/svg">
    <path d="M11 10C11.3283 10 11.6534 9.93534 11.9567 9.8097C12.26 9.68406 12.5356 9.49991 12.7678 9.26777C12.9999 9.03562 13.1841 8.76002 13.3097 8.45671C13.4353 8.15339 13.5 7.8283 13.5 7.5C13.5 6.83696 13.2366 6.20107 12.7678 5.73223C12.2989 5.26339 11.663 5 11 5C10.337 5 9.70107 5.26339 9.23223 5.73223C8.76339 6.20107 8.5 6.83696 8.5 7.5C8.5 7.8283 8.56466 8.15339 8.6903 8.45671C8.81594 8.76002 9.00009 9.03562 9.23223 9.26777C9.70107 9.73661 10.337 10 11 10ZM11 0.5C14.86 0.5 18 3.63 18 7.5C18 12.75 11 20.5 11 20.5C11 20.5 4 12.75 4 7.5C4 5.64348 4.7375 3.86301 6.05025 2.55025C7.36301 1.2375 9.14348 0.5 11 0.5ZM2 7.5C2 12 7.08 18.16 8 19.31L7 20.5C7 20.5 0 12.75 0 7.5C0 4.33 2.11 1.65 5 0.79C3.16 2.44 2 4.83 2 7.5Z" fill="white"/>
</svg>
