<svg width="24" height="24" viewBox="0 0 24 24" fill="none" xmlns="http://www.w3.org/2000/svg">
    <path d="M7.8 1.5H3.36667C2.71327 1.5 2.38657 1.5 2.13701 1.62716C1.91749 1.73901 1.73901 1.91749 1.62716 2.13701C1.5 2.38657 1.5 2.71327 1.5 3.36667V7.8C1.5 8.45339 1.5 8.78009 1.62716 9.02966C1.73901 9.24918 1.91749 9.42766 2.13701 9.53951C2.38657 9.66667 2.71327 9.66667 3.36667 9.66667H7.8C8.45339 9.66667 8.78009 9.66667 9.02966 9.53951C9.24918 9.42766 9.42766 9.24918 9.53951 9.02966C9.66667 8.78009 9.66667 8.45339 9.66667 7.8V3.36667C9.66667 2.71327 9.66667 2.38657 9.53951 2.13701C9.42766 1.91749 9.24918 1.73901 9.02966 1.62716C8.78009 1.5 8.45339 1.5 7.8 1.5Z" stroke="white" stroke-width="1.5" stroke-linecap="round" stroke-linejoin="round"/>
    <path d="M20.6333 1.5H16.2C15.5466 1.5 15.2199 1.5 14.9703 1.62716C14.7508 1.73901 14.5723 1.91749 14.4605 2.13701C14.3333 2.38657 14.3333 2.71327 14.3333 3.36667V7.8C14.3333 8.45339 14.3333 8.78009 14.4605 9.02966C14.5723 9.24918 14.7508 9.42766 14.9703 9.53951C15.2199 9.66667 15.5466 9.66667 16.2 9.66667H20.6333C21.2867 9.66667 21.6134 9.66667 21.863 9.53951C22.0825 9.42766 22.261 9.24918 22.3728 9.02966C22.5 8.78009 22.5 8.45339 22.5 7.8V3.36667C22.5 2.71327 22.5 2.38657 22.3728 2.13701C22.261 1.91749 22.0825 1.73901 21.863 1.62716C21.6134 1.5 21.2867 1.5 20.6333 1.5Z" stroke="white" stroke-width="1.5" stroke-linecap="round" stroke-linejoin="round"/>
    <path d="M20.6333 14.3333H16.2C15.5466 14.3333 15.2199 14.3333 14.9703 14.4605C14.7508 14.5723 14.5723 14.7508 14.4605 14.9703C14.3333 15.2199 14.3333 15.5466 14.3333 16.2V20.6333C14.3333 21.2867 14.3333 21.6134 14.4605 21.863C14.5723 22.0825 14.7508 22.261 14.9703 22.3728C15.2199 22.5 15.5466 22.5 16.2 22.5H20.6333C21.2867 22.5 21.6134 22.5 21.863 22.3728C22.0825 22.261 22.261 22.0825 22.3728 21.863C22.5 21.6134 22.5 21.2867 22.5 20.6333V16.2C22.5 15.5466 22.5 15.2199 22.3728 14.9703C22.261 14.7508 22.0825 14.5723 21.863 14.4605C21.6134 14.3333 21.2867 14.3333 20.6333 14.3333Z" stroke="white" stroke-width="1.5" stroke-linecap="round" stroke-linejoin="round"/>
    <path d="M7.8 14.3333H3.36667C2.71327 14.3333 2.38657 14.3333 2.13701 14.4605C1.91749 14.5723 1.73901 14.7508 1.62716 14.9703C1.5 15.2199 1.5 15.5466 1.5 16.2V20.6333C1.5 21.2867 1.5 21.6134 1.62716 21.863C1.73901 22.0825 1.91749 22.261 2.13701 22.3728C2.38657 22.5 2.71327 22.5 3.36667 22.5H7.8C8.45339 22.5 8.78009 22.5 9.02966 22.3728C9.24918 22.261 9.42766 22.0825 9.53951 21.863C9.66667 21.6134 9.66667 21.2867 9.66667 20.6333V16.2C9.66667 15.5466 9.66667 15.2199 9.53951 14.9703C9.42766 14.7508 9.24918 14.5723 9.02966 14.4605C8.78009 14.3333 8.45339 14.3333 7.8 14.3333Z" stroke="white" stroke-width="1.5" stroke-linecap="round" stroke-linejoin="round"/>
</svg>
