<svg width="24" height="24" viewBox="0 0 24 24" fill="none" xmlns="http://www.w3.org/2000/svg">
    <g clip-path="url(#clip0_2071_6943)">
        <path d="M23.7356 10.8535C22.0142 8.3462 18.4556 12.0362 11.9609 12.7862C9.55624 13.0635 7.38957 15.0715 4.59624 14.8802C3.4509 14.8015 1.85157 11.5062 0.654237 12.0315C0.0382367 12.3022 -0.24443 13.2055 0.388903 13.8842L7.4209 22.2749C7.4209 22.2749 7.77824 22.6869 8.98224 22.4015C9.2789 22.4889 13.7389 20.7015 16.3176 17.1235C16.9349 16.2669 17.6709 15.5535 18.4329 14.9575C20.9069 13.1282 23.5962 12.4909 23.5962 12.4909C23.9402 12.2069 24.0209 11.9049 24.0022 11.6429C24.0249 11.2055 23.7356 10.8535 23.7356 10.8535Z" fill="#5C913B"/>
        <path d="M7.64989 6.84972C5.12789 10.3497 0.711224 12.0077 0.711224 12.0077C-0.112776 12.7057 0.583224 13.5284 0.583224 13.5284L7.54189 21.7677C7.54189 21.7677 7.88989 22.1791 9.06189 21.8937C9.06189 21.8937 13.4786 20.2391 15.9999 16.7391C18.5992 13.1324 23.2866 11.9937 23.2866 11.9937C24.1099 11.2957 23.4146 10.4717 23.4146 10.4717L16.4559 2.23372C16.4559 2.23372 16.1079 1.82172 14.9359 2.10572C14.9359 2.10572 10.2492 3.24172 7.64989 6.84972Z" fill="#A7D28B"/>
        <path d="M14.6667 13.0003C16.6917 13.0003 18.3333 11.3587 18.3333 9.33366C18.3333 7.30861 16.6917 5.66699 14.6667 5.66699C12.6416 5.66699 11 7.30861 11 9.33366C11 11.3587 12.6416 13.0003 14.6667 13.0003Z" fill="#77B255"/>
        <path d="M8.58285 21.2862C7.99552 21.2862 7.78018 21.0676 7.75085 21.0342L1.47819 13.7122C1.46619 13.6982 1.14819 13.3342 1.18685 12.8716C1.21019 12.5909 1.35552 12.3409 1.61819 12.1282L1.66019 12.1029C1.70085 12.0869 5.76885 10.4149 8.04885 7.3929C10.4609 4.19557 14.6215 2.82357 14.6629 2.81023C15.8262 2.53957 16.2069 2.92623 16.2475 2.97157L22.4375 10.3342C22.4489 10.3462 22.7662 10.7116 22.7275 11.1749C22.7042 11.4549 22.5589 11.7049 22.2962 11.9176L22.2302 11.9502C22.1895 11.9602 18.1442 12.9656 15.8009 16.0709C13.4682 19.1642 9.39618 21.1656 9.35552 21.1849C9.04618 21.2582 8.79152 21.2862 8.58285 21.2862ZM8.00218 20.8149C8.00285 20.8149 8.30352 21.0922 9.24552 20.8736C9.25085 20.8662 13.2515 18.8989 15.5362 15.8709C17.8275 12.8342 21.6862 11.7496 22.1142 11.6369C22.2857 11.4889 22.3795 11.3269 22.3955 11.1509C22.4235 10.8309 22.1875 10.5556 22.1855 10.5529L15.9955 3.18957C15.9942 3.18957 15.6955 2.9129 14.7529 3.13157C14.7255 3.1409 10.6629 4.48223 8.31552 7.59357C6.07152 10.5676 2.15619 12.2569 1.81019 12.4022C1.63152 12.5533 1.53441 12.7189 1.51885 12.8989C1.49219 13.2162 1.72685 13.4902 1.72885 13.4929L8.00218 20.8149Z" fill="#5C913B"/>
        <path d="M14.1837 14.7778L14.1797 18.7378L14.511 19.1311C15.157 18.5418 15.7777 17.8791 16.3144 17.1338C16.8534 16.3909 17.4872 15.7217 18.1997 15.1431L17.8777 14.7598L14.1837 14.7778Z" fill="#FFAC33"/>
        <path d="M17.8662 14.7455L9.52889 4.87012C8.85155 5.42745 8.20089 6.07745 7.64755 6.84612C7.10689 7.59678 6.47755 8.25745 5.82422 8.84012L6.79889 9.99412L6.79822 9.99478L14.1816 18.7374C14.8579 18.1379 15.467 17.4667 15.9982 16.7354C16.5516 15.9675 17.2016 15.3181 17.8782 14.7608L17.8662 14.7455Z" fill="#FFE8B6"/>
        <path d="M9.65303 15.0364C8.61503 13.8071 6.4177 15.8017 5.79103 15.0597C5.4877 14.7004 5.68303 14.2344 6.0817 13.8984C6.7517 13.3317 7.23503 13.6617 7.53837 13.4051C7.7537 13.2237 7.74237 13.0017 7.61437 12.8491C7.31703 12.4977 6.55703 12.6811 5.96637 13.0224L5.67903 12.6824C5.59175 12.5852 5.47007 12.5258 5.33975 12.5168C5.20944 12.5078 5.08074 12.5499 4.98091 12.6341C4.88107 12.7183 4.81795 12.8381 4.80491 12.9681C4.79186 13.0981 4.82993 13.228 4.91103 13.3304L5.20837 13.6831C4.75703 14.2817 4.6037 15.0764 5.1377 15.7077C6.13503 16.8877 8.3597 14.9264 9.0597 15.7557C9.30237 16.0437 9.23437 16.5931 8.7237 17.0237C7.95837 17.6711 7.26503 17.3677 6.9537 17.6304C6.8017 17.7577 6.77437 18.0004 6.93637 18.1931C7.19437 18.4977 8.01637 18.4324 8.80637 17.9404L8.8077 17.9444L9.13237 18.3284C9.17428 18.3811 9.22636 18.4249 9.28551 18.4571C9.34465 18.4894 9.40967 18.5094 9.47669 18.5161C9.54372 18.5227 9.61141 18.5158 9.67573 18.4958C9.74005 18.4758 9.79971 18.4431 9.85117 18.3997C9.90262 18.3562 9.94483 18.3029 9.97529 18.2428C10.0057 18.1827 10.0238 18.1171 10.0285 18.0499C10.0331 17.9827 10.0243 17.9153 10.0024 17.8516C9.98047 17.7879 9.94601 17.7292 9.90103 17.6791L9.57637 17.2951L9.5637 17.2844C10.0964 16.6324 10.2764 15.7731 9.65303 15.0364Z" fill="#5C913B"/>
        <path d="M21.6371 21.7248L21.6558 21.7108C21.7011 21.6655 21.7364 21.6135 21.7764 21.5635C21.8044 21.5288 21.8358 21.4955 21.8618 21.4602C21.8851 21.4268 21.9044 21.3928 21.9258 21.3588C22.8724 19.9008 22.2524 17.4288 20.3784 15.5542C18.5044 13.6795 16.0311 13.0595 14.5738 14.0068C14.5391 14.0275 14.5051 14.0468 14.4718 14.0708C14.4364 14.0968 14.4024 14.1282 14.3691 14.1555C14.3198 14.1962 14.2678 14.2308 14.2218 14.2768C14.216 14.2831 14.2111 14.2893 14.2071 14.2955C14.1998 14.3028 14.1911 14.3075 14.1831 14.3155L14.1871 14.3188C13.5204 15.0268 13.5124 16.1222 14.1831 16.7935C14.8551 17.4655 15.9498 17.4562 16.6584 16.7895L16.6658 16.7975C16.6518 16.8108 16.6364 16.8195 16.6231 16.8328C15.9171 17.5388 15.9004 18.6648 16.5838 19.3495C17.2678 20.0328 18.3951 20.0162 19.1004 19.3102C19.1138 19.2968 19.1224 19.2815 19.1358 19.2675L19.1431 19.2755C18.4764 19.9835 18.4678 21.0788 19.1398 21.7508C19.8111 22.4215 20.9058 22.4135 21.6138 21.7468L21.6178 21.7508C21.624 21.7415 21.6304 21.7328 21.6371 21.7248Z" fill="#E1E8ED"/>
        <path d="M14.184 16.8203C14.788 17.4236 15.7314 17.473 16.4307 16.9943C16.7234 16.4943 16.8074 16.019 16.8074 15.8703C15.336 16.9676 14.0227 15.8763 13.7287 15.2236C13.6067 15.7876 13.7547 16.3903 14.184 16.8203ZM19.05 19.3803C19.2487 19.101 19.4027 18.831 19.4747 18.6483C18.538 19.507 16.7474 18.8783 16.2047 17.5163C15.966 18.1496 16.088 18.879 16.5854 19.3763C17.2534 20.0443 18.3414 20.039 19.05 19.3803ZM21.6194 21.777L21.6387 21.753C21.6458 21.7481 21.652 21.7432 21.6574 21.7383C21.7034 21.693 21.7387 21.641 21.778 21.5916C21.8067 21.5563 21.8374 21.5236 21.8634 21.4876C21.8874 21.455 21.9067 21.4203 21.928 21.3863C21.9714 21.3196 21.9947 21.241 22.0314 21.1703C20.346 21.9243 19.088 20.645 18.7354 20.007C18.5387 20.6183 18.6667 21.303 19.1414 21.7783C19.812 22.4496 20.9067 22.4416 21.6154 21.7743L21.6194 21.777Z" fill="#CCD6DD"/>
        <path d="M9.30437 8.33189L9.32303 8.31722C9.36903 8.27189 9.40437 8.21989 9.4437 8.17056C9.4717 8.13589 9.50237 8.10322 9.52837 8.06722C9.55237 8.03389 9.5717 7.99989 9.59303 7.96589C10.5397 6.50789 9.91903 4.03522 8.04503 2.16122C6.17103 0.287223 3.69837 -0.33411 2.24037 0.612556C2.20637 0.63389 2.1717 0.653223 2.13837 0.677223C2.10237 0.703223 2.0697 0.73389 2.03504 0.76189C1.9857 0.80189 1.9337 0.836556 1.88837 0.882556L1.8737 0.901223L1.8497 0.921223L1.85304 0.924556C1.18637 1.63256 1.17837 2.72789 1.8497 3.39922C2.52103 4.07056 3.61637 4.06256 4.32437 3.39589L4.3317 3.40322C4.3177 3.41589 4.30237 3.42522 4.28904 3.43856C3.58303 4.14456 3.56637 5.27056 4.25037 5.95522C4.93437 6.63989 6.06103 6.62256 6.76703 5.91656C6.78037 5.90322 6.78903 5.88789 6.80237 5.87389L6.8097 5.88122C6.14303 6.58922 6.13437 7.68456 6.80637 8.35589C7.4777 9.02722 8.57237 9.01922 9.28037 8.35189L9.2837 8.35589L9.30437 8.33189Z" fill="#E1E8ED"/>
        <path d="M1.84811 3.39976C2.45211 4.00376 3.39544 4.05309 4.09478 3.57309C4.38744 3.07309 4.47078 2.59842 4.47078 2.44976C3.00011 3.54642 1.68611 2.45442 1.39278 1.80176C1.27078 2.36642 1.41878 2.96976 1.84811 3.39976ZM6.71544 5.95842C6.91344 5.67909 7.06744 5.41042 7.13878 5.22776C6.20144 6.08642 4.41078 5.45709 3.86878 4.09509C3.63011 4.72842 3.75211 5.45776 4.24878 5.95509C4.91811 6.62376 6.00678 6.61776 6.71544 5.95842ZM9.28278 8.35642C9.28989 8.34887 9.29656 8.34087 9.30278 8.33242L9.32144 8.31776C9.36744 8.27242 9.40278 8.22042 9.44211 8.17109C9.47011 8.13642 9.50078 8.10376 9.52678 8.06776C9.55078 8.03442 9.57011 8.00042 9.59144 7.96642C9.63478 7.89976 9.65811 7.82042 9.69478 7.74976C8.00944 8.50376 6.75144 7.22509 6.39878 6.58709C6.20211 7.19842 6.33011 7.88309 6.80478 8.35776C7.47611 9.02909 8.57078 9.02109 9.27878 8.35376L9.28278 8.35642Z" fill="#CCD6DD"/>
        <rect x="11" y="17" width="13.1811" height="6.88913" rx="3.44456" fill="black"/>
        <path d="M14.7776 21.9918C14.5689 21.9918 14.388 21.9507 14.235 21.8685C14.0832 21.7863 13.9655 21.6737 13.882 21.5308C13.7986 21.3878 13.7568 21.2253 13.7568 21.0431H14.1723C14.1723 21.2316 14.2248 21.3783 14.3298 21.4833C14.4361 21.5883 14.5828 21.6408 14.77 21.6408C14.9496 21.6408 15.0951 21.5953 15.2064 21.5042C15.319 21.4131 15.3753 21.2911 15.3753 21.138C15.3753 20.9976 15.3152 20.885 15.195 20.8003C15.0761 20.7143 14.9193 20.6712 14.7245 20.6712H14.4892V20.3278H14.7245C14.8965 20.3278 15.035 20.2886 15.14 20.2102C15.2463 20.1318 15.2994 20.0274 15.2994 19.8971C15.2994 19.7504 15.2501 19.6346 15.1514 19.5499C15.0527 19.4651 14.9224 19.4228 14.7605 19.4228C14.5936 19.4228 14.4614 19.4696 14.364 19.5632C14.2678 19.6568 14.2198 19.7858 14.2198 19.9502H13.8156C13.8156 19.7795 13.8555 19.6283 13.9352 19.4968C14.0149 19.3639 14.1255 19.2602 14.2672 19.1856C14.4089 19.111 14.574 19.0736 14.7624 19.0736C14.942 19.0736 15.1027 19.1078 15.2444 19.1761C15.386 19.2431 15.4974 19.3367 15.5783 19.4569C15.6605 19.5758 15.7016 19.7118 15.7016 19.8649C15.7016 20.0141 15.6548 20.1438 15.5612 20.2538C15.4676 20.3626 15.3418 20.4385 15.1837 20.4815V20.4872C15.3696 20.5163 15.517 20.5922 15.6257 20.7149C15.7345 20.8376 15.7889 20.9824 15.7889 21.1494C15.7889 21.3138 15.7453 21.4593 15.658 21.5858C15.5707 21.7123 15.4505 21.8116 15.2975 21.8837C15.1457 21.9558 14.9724 21.9918 14.7776 21.9918ZM17.1588 21.9918C16.94 21.9918 16.7509 21.9324 16.5915 21.8135C16.4334 21.6946 16.3113 21.5263 16.2253 21.3088C16.1393 21.0899 16.0963 20.8319 16.0963 20.5346C16.0963 20.2361 16.1393 19.9774 16.2253 19.7586C16.3113 19.5398 16.4334 19.3709 16.5915 19.252C16.7509 19.1331 16.94 19.0736 17.1588 19.0736C17.3764 19.0736 17.5642 19.1331 17.7224 19.252C17.8817 19.3709 18.0044 19.5398 18.0904 19.7586C18.1765 19.9774 18.2195 20.2361 18.2195 20.5346C18.2195 20.8319 18.1765 21.0899 18.0904 21.3088C18.0044 21.5263 17.8817 21.6946 17.7224 21.8135C17.5642 21.9324 17.3764 21.9918 17.1588 21.9918ZM17.1588 21.6332C17.3637 21.6332 17.525 21.5358 17.6427 21.341C17.7616 21.145 17.821 20.8762 17.821 20.5346C17.821 20.1918 17.7616 19.9224 17.6427 19.7263C17.525 19.5303 17.3637 19.4322 17.1588 19.4322C16.9526 19.4322 16.7901 19.5303 16.6712 19.7263C16.5536 19.9224 16.4947 20.1918 16.4947 20.5346C16.4947 20.8762 16.5536 21.145 16.6712 21.341C16.7901 21.5358 16.9526 21.6332 17.1588 21.6332ZM19.3712 21.9861C19.1966 21.9861 19.0442 21.9425 18.9139 21.8552C18.7836 21.7667 18.6824 21.6446 18.6103 21.489C18.5382 21.3322 18.5022 21.1507 18.5022 20.9445C18.5022 20.7383 18.5382 20.5574 18.6103 20.4018C18.6837 20.245 18.7855 20.1229 18.9158 20.0356C19.0461 19.9471 19.1973 19.9028 19.3693 19.9028C19.4996 19.9028 19.6185 19.93 19.726 19.9844C19.8335 20.0388 19.9195 20.1216 19.984 20.2329H19.9878V19.1192H20.3882V21.9463H19.9954V21.6408H19.9916C19.9246 21.7572 19.8367 21.8438 19.7279 21.9008C19.6204 21.9577 19.5015 21.9861 19.3712 21.9861ZM19.4528 21.6408C19.6235 21.6408 19.7595 21.5776 19.8607 21.4511C19.9632 21.3233 20.0144 21.1544 20.0144 20.9445C20.0144 20.7332 19.9632 20.5644 19.8607 20.4379C19.7595 20.3101 19.6235 20.2462 19.4528 20.2462C19.2909 20.2462 19.1593 20.3063 19.0581 20.4265C18.9582 20.5454 18.9082 20.718 18.9082 20.9445C18.9082 21.1709 18.9582 21.3436 19.0581 21.4625C19.1593 21.5814 19.2909 21.6408 19.4528 21.6408Z" fill="white"/>
    </g>
    <defs>
        <clipPath id="clip0_2071_6943">
            <rect width="24" height="24" fill="white"/>
        </clipPath>
    </defs>
</svg>
