<svg width="123" height="104" viewBox="0 0 123 104" fill="none" xmlns="http://www.w3.org/2000/svg">
    <path
        d="M57.3006 102.6C85.3006 102.6 108.001 79.9 108.001 51.8C108.001 23.7 85.3006 1 57.3006 1C29.3006 1 6.60059 23.7 6.60059 51.8C6.60059 79.9 29.3006 102.6 57.3006 102.6Z"
        fill="#F1F3F9" stroke="#D6DCE8" stroke-width="2" stroke-miterlimit="10" />
    <path
        d="M113.8 30.9002C116.065 30.9002 117.9 29.0646 117.9 26.8002C117.9 24.5358 116.065 22.7002 113.8 22.7002C111.536 22.7002 109.7 24.5358 109.7 26.8002C109.7 29.0646 111.536 30.9002 113.8 30.9002Z"
        fill="#F1F3F9" />
    <path
        d="M119.8 14.8002C121.346 14.8002 122.6 13.5466 122.6 12.0002C122.6 10.4538 121.346 9.2002 119.8 9.2002C118.254 9.2002 117 10.4538 117 12.0002C117 13.5466 118.254 14.8002 119.8 14.8002Z"
        fill="#F1F3F9" />
    <path
        d="M3.20039 33.8002C4.74679 33.8002 6.00039 32.5466 6.00039 31.0002C6.00039 29.4538 4.74679 28.2002 3.20039 28.2002C1.65399 28.2002 0.400391 29.4538 0.400391 31.0002C0.400391 32.5466 1.65399 33.8002 3.20039 33.8002Z"
        fill="#F1F3F9" />
    <path
        d="M8.4002 94.6998C11.2721 94.6998 13.6002 92.3717 13.6002 89.4998C13.6002 86.6279 11.2721 84.2998 8.4002 84.2998C5.52831 84.2998 3.2002 86.6279 3.2002 89.4998C3.2002 92.3717 5.52831 94.6998 8.4002 94.6998Z"
        fill="#F1F3F9" />
    <path
        d="M97.6168 83.8694H17.184C12.2903 83.8694 8.40039 79.9795 8.40039 75.0858V28.7836C8.40039 23.8899 12.2903 20 17.184 20H97.6168C102.511 20 106.4 23.8899 106.4 28.7836V75.0858C106.4 79.9795 102.511 83.8694 97.6168 83.8694Z"
        fill="white" stroke="#D6DCE8" stroke-width="2" stroke-miterlimit="10" />
    <path
        d="M33.2451 69.4392H20.4462C19.3168 69.4392 18.4385 68.5608 18.4385 67.4315C18.4385 66.3022 19.3168 65.4238 20.4462 65.4238H33.2451C34.3745 65.4238 35.2528 66.3022 35.2528 67.4315C35.2528 68.5608 34.3745 69.4392 33.2451 69.4392Z"
        fill="#D6DCE8" />
    <path
        d="M53.9492 69.4392H41.1503C40.0209 69.4392 39.1426 68.5608 39.1426 67.4315C39.1426 66.3022 40.0209 65.4238 41.1503 65.4238H53.9492C55.0786 65.4238 55.9569 66.3022 55.9569 67.4315C55.9569 68.5608 55.0786 69.4392 53.9492 69.4392Z"
        fill="#D6DCE8" />
    <path
        d="M74.6543 69.4392H61.8553C60.726 69.4392 59.8477 68.5608 59.8477 67.4315C59.8477 66.3022 60.726 65.4238 61.8553 65.4238H74.6543C75.7836 65.4238 76.662 66.3022 76.662 67.4315C76.662 68.5608 75.7836 69.4392 74.6543 69.4392Z"
        fill="#D6DCE8" />
    <path
        d="M95.3584 69.4392H82.5594C81.4301 69.4392 80.5518 68.5608 80.5518 67.4315C80.5518 66.3022 81.4301 65.4238 82.5594 65.4238H95.3584C96.4877 65.4238 97.3661 66.3022 97.3661 67.4315C97.3661 68.5608 96.4877 69.4392 95.3584 69.4392Z"
        fill="#D6DCE8" />
    <path
        d="M90.7153 45.3467C94.8734 45.3467 98.2441 41.9759 98.2441 37.8179C98.2441 33.6598 94.8734 30.2891 90.7153 30.2891C86.5573 30.2891 83.1865 33.6598 83.1865 37.8179C83.1865 41.9759 86.5573 45.3467 90.7153 45.3467Z"
        fill="#AAB2C5" />
    <path
        d="M80.8022 45.3467C84.9603 45.3467 88.3311 41.9759 88.3311 37.8179C88.3311 33.6598 84.9603 30.2891 80.8022 30.2891C76.6442 30.2891 73.2734 33.6598 73.2734 37.8179C73.2734 41.9759 76.6442 45.3467 80.8022 45.3467Z"
        fill="#D6DCE8" />
    <path
        d="M34.3745 47.7316H20.3207C19.3168 47.7316 18.4385 46.8532 18.4385 45.8494V36.8148C18.4385 35.811 19.3168 34.9326 20.3207 34.9326H34.249C35.2528 34.9326 36.1312 35.811 36.1312 36.8148V45.8494C36.2567 46.8532 35.3783 47.7316 34.3745 47.7316Z"
        fill="#D6DCE8" />
    <path
        d="M114.114 84.6426C113.714 86.3426 113.114 88.1426 112.414 89.6426C110.514 93.3426 107.514 96.2426 103.814 98.1426C100.014 100.043 95.5138 100.843 91.0138 99.8426C80.4138 97.6426 73.6138 87.2426 75.8138 76.6426C78.0138 66.0426 88.3138 59.1426 98.9138 61.4426C102.714 62.2426 106.014 64.1426 108.814 66.7426C113.514 71.4426 115.514 78.2426 114.114 84.6426Z"
        fill="#D6DCE8" stroke="#AAB2C5" stroke-width="2" stroke-miterlimit="10" />
    <path
        d="M101.213 77.9422H97.7133V74.4422C97.7133 73.0288 96.6037 71.7422 95.0133 71.7422C93.5999 71.7422 92.3133 72.8518 92.3133 74.4422V77.9422H88.8133C87.3999 77.9422 86.1133 79.0518 86.1133 80.6422C86.1133 81.3817 86.3762 82.0694 86.8812 82.5743C87.3861 83.0792 88.0738 83.3422 88.8133 83.3422H92.3133V86.8422C92.3133 88.2556 93.4229 89.5422 95.0133 89.5422C96.4267 89.5422 97.7133 88.4325 97.7133 86.8422V83.3422H101.213C102.627 83.3422 103.913 82.2326 103.913 80.6422C103.913 79.0518 102.627 77.9422 101.213 77.9422Z"
        fill="white" stroke="#AAB2C5" stroke-width="2" />
</svg>
