<svg width="144" height="137" viewBox="0 0 144 137" fill="none" xmlns="http://www.w3.org/2000/svg">
    <path
        d="M70.2996 110.621C98.2996 110.621 121 87.9205 121 59.8205C121 31.7205 98.1996 9.02051 70.2996 9.02051C42.2996 9.02051 19.5996 31.7205 19.5996 59.8205C19.5996 87.9205 42.2996 110.621 70.2996 110.621Z"
        fill="#EAEEF9" />
    <path
        d="M132.151 92.5975C134.415 92.5975 136.251 90.7618 136.251 88.4975C136.251 86.2331 134.415 84.3975 132.151 84.3975C129.886 84.3975 128.051 86.2331 128.051 88.4975C128.051 90.7618 129.886 92.5975 132.151 92.5975Z"
        fill="#EAEEF9" />
    <path
        d="M138.15 76.5971C139.696 76.5971 140.95 75.3435 140.95 73.7971C140.95 72.2507 139.696 70.9971 138.15 70.9971C136.603 70.9971 135.35 72.2507 135.35 73.7971C135.35 75.3435 136.603 76.5971 138.15 76.5971Z"
        fill="#EAEEF9" />
    <path
        d="M22.3 26.4203C23.8464 26.4203 25.1 25.1667 25.1 23.6203C25.1 22.0739 23.8464 20.8203 22.3 20.8203C20.7536 20.8203 19.5 22.0739 19.5 23.6203C19.5 25.1667 20.7536 26.4203 22.3 26.4203Z"
        fill="#EAEEF9" />
    <path
        d="M5.2 80.4205C8.07188 80.4205 10.4 78.0924 10.4 75.2205C10.4 72.3486 8.07188 70.0205 5.2 70.0205C2.32812 70.0205 0 72.3486 0 75.2205C0 78.0924 2.32812 80.4205 5.2 80.4205Z"
        fill="#EAEEF9" />
    <path
        d="M81.766 90.5654H69.958C67.222 90.5654 64.918 93.0924 64.918 96.0932V102.569C64.918 109.202 69.814 114.572 75.862 114.572C81.91 114.572 86.806 109.202 86.806 102.569V96.0932C86.806 92.9345 84.502 90.5654 81.766 90.5654Z"
        fill="white" />
    <g filter="url(#filter0_d_2406_9886)">
        <path fill-rule="evenodd" clip-rule="evenodd"
            d="M80.7161 28.5181C92.2699 31.1938 100.876 41.5536 100.876 53.934V57.249C100.876 85.21 121.9 103.514 121.9 103.514H27.5801C27.5801 103.514 48.7481 85.21 48.7481 57.249V53.934C48.7481 41.5536 57.3542 31.1938 68.9081 28.5181V27.4142C68.9081 24.0992 71.5001 21.5049 74.8121 21.5049C78.1241 21.5049 80.7161 24.0992 80.7161 27.4142V28.5181Z"
            fill="url(#paint0_linear_2406_9886)" />
    </g>
    <path
        d="M63.8682 68.6352C60.2682 68.6352 57.2442 66.3292 56.0922 63.0142C55.8042 62.2935 56.2362 61.5729 56.9562 61.2846C57.6762 60.9964 58.3962 61.4288 58.6842 62.1494C59.4042 64.3113 61.5642 65.8968 63.8682 65.8968C66.1722 65.8968 68.3322 64.4555 69.0522 62.1494C69.3402 61.4288 70.0602 60.9964 70.7802 61.2846C71.5002 61.5729 71.9322 62.2935 71.6442 63.0142C70.4922 66.4733 67.4682 68.6352 63.8682 68.6352Z"
        fill="#ADB6C8" />
    <path
        d="M85.6123 68.6352C82.0123 68.6352 78.9883 66.3292 77.8363 63.0142C77.5483 62.2935 77.9803 61.5729 78.7003 61.2846C79.4203 60.9964 80.1403 61.4288 80.4283 62.1494C81.1483 64.3113 83.3083 65.8968 85.6123 65.8968C87.9163 65.8968 90.0763 64.4555 90.7963 62.1494C91.0843 61.4288 91.8043 60.9964 92.5243 61.2846C93.2443 61.5729 93.6763 62.2935 93.3883 63.0142C92.2363 66.4733 89.2123 68.6352 85.6123 68.6352Z"
        fill="#ADB6C8" />
    <path
        d="M74.812 86.2823C76.6412 86.2823 78.124 84.7981 78.124 82.9673C78.124 81.1365 76.6412 79.6523 74.812 79.6523C72.9828 79.6523 71.5 81.1365 71.5 82.9673C71.5 84.7981 72.9828 86.2823 74.812 86.2823Z"
        fill="#ADB6C8" />
    <path
        d="M92.5592 4.95684V0.078125H111.392V4.95684L98.5414 20.48H111.613V25.3588H91.8945V20.48L104.745 4.95684H92.5592Z"
        fill="url(#paint1_linear_2406_9886)" />
    <path
        d="M108.068 41.547V38.4424H120.254V41.547L112.056 51.5262H120.476V54.6309H107.625V51.5262L115.823 41.547H108.068Z"
        fill="url(#paint2_linear_2406_9886)" />
    <defs>
        <filter id="filter0_d_2406_9886" x="5.58008" y="10.5049" width="138.32" height="126.01"
            filterUnits="userSpaceOnUse" color-interpolation-filters="sRGB">
            <feFlood flood-opacity="0" result="BackgroundImageFix" />
            <feColorMatrix in="SourceAlpha" type="matrix"
                values="0 0 0 0 0 0 0 0 0 0 0 0 0 0 0 0 0 0 127 0" result="hardAlpha" />
            <feOffset dy="11" />
            <feGaussianBlur stdDeviation="11" />
            <feColorMatrix type="matrix"
                values="0 0 0 0 0.397708 0 0 0 0 0.47749 0 0 0 0 0.575 0 0 0 0.27 0" />
            <feBlend mode="normal" in2="BackgroundImageFix" result="effect1_dropShadow_2406_9886" />
            <feBlend mode="normal" in="SourceGraphic" in2="effect1_dropShadow_2406_9886"
                result="shape" />
        </filter>
        <linearGradient id="paint0_linear_2406_9886" x1="74.7093" y1="19.6079" x2="74.7093"
            y2="104.399" gradientUnits="userSpaceOnUse">
            <stop stop-color="#FDFEFF" />
            <stop offset="0.9964" stop-color="#ECF0F5" />
        </linearGradient>
        <linearGradient id="paint1_linear_2406_9886" x1="101.756" y1="0.956344" x2="101.756"
            y2="15.1461" gradientUnits="userSpaceOnUse">
            <stop stop-color="#B0BACC" />
            <stop offset="1" stop-color="#969EAE" />
        </linearGradient>
        <linearGradient id="paint2_linear_2406_9886" x1="114.051" y1="39.0048" x2="114.051"
            y2="48.0912" gradientUnits="userSpaceOnUse">
            <stop stop-color="#B0BACC" />
            <stop offset="1" stop-color="#969EAE" />
        </linearGradient>
    </defs>
</svg>
