<svg width="129" height="152" viewBox="0 0 129 152" fill="none" xmlns="http://www.w3.org/2000/svg">
    <path
        d="M6.84085 28.032C8.35568 27.527 9.23933 25.886 8.73438 24.3711C8.22944 22.8563 6.58838 21.9727 4.94731 22.4776C3.43248 22.9825 2.54883 24.6236 3.05377 26.1384C3.55872 27.6533 5.19978 28.5369 6.84085 28.032Z"
        fill="#EAEEF9" />
    <path
        d="M13.2794 18.4382C14.2892 18.0595 14.9204 16.9234 14.5417 15.9135C14.163 14.9036 13.0269 14.2724 12.017 14.6511C11.0071 15.0298 10.3759 16.166 10.7546 17.1758C11.0071 18.1857 12.1432 18.8169 13.2794 18.4382Z"
        fill="#EAEEF9" />
    <path
        d="M120.147 41.3783C122.041 39.7372 122.167 36.8338 120.399 35.0665C118.758 33.2992 115.855 33.173 114.088 34.814C112.194 36.4551 112.068 39.3585 113.835 41.1258C115.476 42.8931 118.38 43.0194 120.147 41.3783Z"
        fill="#EAEEF9" />
    <path
        d="M126.964 50.2245C127.721 49.4671 127.847 48.331 127.09 47.5736C126.332 46.8162 125.196 46.6899 124.439 47.4473C123.681 48.2048 123.555 49.3409 124.313 50.0983C124.944 50.9819 126.206 50.9819 126.964 50.2245Z"
        fill="#EAEEF9" />
    <path
        d="M12.0172 125.107C12.7747 124.35 12.9009 123.214 12.1435 122.456C11.3861 121.699 10.2499 121.573 9.49253 122.33C8.73511 123.088 8.60888 124.224 9.36629 124.981C10.1237 125.739 11.2598 125.865 12.0172 125.107Z"
        fill="#EAEEF9" />
    <path
        d="M59.7341 131.293C92.1767 131.293 118.56 105.036 118.56 72.7192C118.434 40.2766 92.1767 14.0195 59.7341 14.0195C27.1653 14.0195 0.908203 40.2766 0.908203 72.593C0.908203 105.036 27.1653 131.293 59.7341 131.293Z"
        fill="#EAEEF9" />
    <path
        d="M98.7735 42.4018V46.9383H98.4245H94.0044L26.19 46.7056C24.9105 46.7056 23.631 46.473 22.3515 46.124C22.2351 46.124 22.1188 46.0077 22.0025 46.0077C20.374 45.4261 18.9782 44.7282 17.815 43.565C16.8844 42.6345 16.1865 41.2386 16.1865 39.9591C16.1865 37.5164 18.164 35.6553 20.9556 34.4921C21.8862 34.0268 23.0494 33.7942 24.2126 33.6778C24.6779 33.6778 25.1431 33.5615 25.6084 33.5615H89.9332C90.6311 33.5615 91.2127 33.6778 91.7943 33.7942C92.2596 33.9105 92.7249 34.0268 93.1901 34.2594C96.5634 35.6553 98.7735 38.6796 98.7735 42.4018Z"
        fill="url(#paint0_linear_2496_8876)" />
    <path opacity="0.1"
        d="M98.425 46.9385H94.0048L26.1904 46.7058C24.9109 46.7058 23.6314 46.4732 22.3519 46.1243C22.2356 46.1243 22.1193 46.0079 22.0029 46.0079C20.3745 45.4263 18.9786 44.7284 17.8154 43.5652C18.6297 42.751 19.6765 42.0531 20.9561 41.5878C21.8866 41.1225 23.0498 40.8899 24.213 40.7735C24.6783 40.6572 25.1436 40.6572 25.6088 40.6572H89.9336C90.6315 40.6572 91.2131 40.7735 91.7947 40.8899C92.26 41.0062 92.7253 41.1225 93.1906 41.3551C95.7496 42.402 97.6107 44.4958 98.425 46.9385Z"
        fill="#020305" />
    <g filter="url(#filter0_d_2496_8876)">
        <path
            d="M107.032 54.0334V111.146C107.032 115.101 103.892 118.242 99.9368 118.242H31.4245C25.7248 118.242 21.3047 115.567 18.513 113.356C17.2335 112.31 16.4193 110.681 16.4193 109.053C16.4193 108.238 16.4193 107.424 16.4193 106.61C16.4193 105.447 16.4193 104.051 16.4193 102.655C16.4193 96.1412 16.4193 87.4172 16.303 78.5769C16.303 77.2974 16.303 76.0179 16.303 74.622C16.303 69.9692 16.303 65.3165 16.1866 60.8963C16.1866 59.6168 16.1866 58.3373 16.1866 56.9414C16.1866 48.2175 16.0703 41.7036 16.0703 40.1914C16.0703 42.7504 18.513 45.0768 21.77 46.0074C21.8863 46.0074 22.0026 46.1237 22.1189 46.1237C23.2821 46.4727 24.678 46.7053 25.9575 46.7053L93.7719 47.0543H98.6573H99.8205C103.892 46.9379 107.032 50.0786 107.032 54.0334Z"
            fill="url(#paint1_linear_2496_8876)" />
    </g>
    <path opacity="0.1"
        d="M93.3069 73.459C90.8642 73.459 88.7704 74.3895 87.2583 75.9017C85.7461 77.4139 84.6992 79.6239 84.6992 81.9503C84.6992 82.0666 84.6992 82.2993 84.6992 82.4156C84.9319 86.9521 88.7704 90.558 93.3069 90.558H107.033V73.459H93.3069Z"
        fill="url(#paint2_linear_2496_8876)" />
    <g filter="url(#filter1_d_2496_8876)">
        <path
            d="M107.032 70.2021V72.2959C106.916 72.2959 106.8 72.2959 106.567 72.2959H92.6086C90.1659 72.2959 88.0722 73.2265 86.56 74.7386C85.1642 76.1344 84.1173 78.2282 84.001 80.4383C84.001 80.5546 84.001 80.7872 84.001 80.9036C84.001 85.6727 87.8395 89.5112 92.6086 89.5112H106.567C107.265 89.5112 107.847 89.2786 108.079 88.9296C108.195 88.8133 108.312 88.5807 108.312 88.4643V71.249C108.312 70.6674 107.73 70.3185 107.032 70.2021Z"
            fill="url(#paint3_linear_2496_8876)" />
    </g>
    <path
        d="M91.911 86.0213C94.7027 86.0213 97.0291 83.6949 97.0291 80.9032C97.0291 78.1116 94.7027 75.7852 91.911 75.7852C89.1194 75.7852 86.793 78.1116 86.793 80.9032C86.793 83.6949 89.1194 86.0213 91.911 86.0213Z"
        fill="#DADFEC" />
    <path
        d="M47.266 85.5456C49.1879 85.5456 50.8141 83.9193 50.8141 81.9974C50.8141 80.0755 49.1879 78.4492 47.266 78.4492C45.344 78.4492 43.7178 80.0755 43.7178 81.9974C43.7178 83.9193 45.344 85.5456 47.266 85.5456Z"
        fill="#989FB0" />
    <path
        d="M74.4691 85.5456C76.391 85.5456 78.0173 83.9193 78.0173 81.9974C78.0173 80.0755 76.391 78.4492 74.4691 78.4492C72.5471 78.4492 70.9209 80.0755 70.9209 81.9974C70.9209 84.0672 72.5471 85.5456 74.4691 85.5456Z"
        fill="#989FB0" />
    <path d="M47.1274 70.2583L39.3223 74.4727L40.3759 76.4239L48.181 72.2096L47.1274 70.2583Z"
        fill="#989FB0" />
    <path d="M73.986 70.2018L72.9326 72.1533L80.7386 76.3668L81.792 74.4153L73.986 70.2018Z"
        fill="#989FB0" />
    <path
        d="M60.8671 93.8245C63.1533 93.8245 65.0066 92.4345 65.0066 90.7199C65.0066 89.0052 63.1533 87.6152 60.8671 87.6152C58.5809 87.6152 56.7275 89.0052 56.7275 90.7199C56.7275 92.4345 58.5809 93.8245 60.8671 93.8245Z"
        fill="#989FB0" />
    <path
        d="M121.797 4.64864C110.252 2.11687 97.8971 2.52195 86.5548 5.86389C84.2256 6.57279 81.6938 7.48423 79.8709 9.10456C77.0353 11.4338 75.8201 15.5859 76.7315 19.1304C77.6429 22.6749 80.6811 25.6117 84.4281 26.3206C86.7573 26.9283 89.5929 26.1181 91.0107 24.1939C92.3272 22.1685 92.0234 19.1304 90.4031 17.3075C88.7828 15.2821 86.1497 14.4719 83.7192 14.5732C81.2887 14.6745 78.8582 15.5859 76.7315 16.6999C69.8451 20.4469 64.2752 27.0295 61.9459 34.7261C60.7652 38.4651 60.3493 42.3954 60.6517 46.2614"
        stroke="#C9D4E2" stroke-width="2" stroke-miterlimit="10" stroke-dasharray="4 4" />
    <path
        d="M127.873 2.01576C127.772 3.53482 127.671 4.95261 126.557 5.25643C125.443 5.56024 124.937 4.54753 124.228 3.12974C123.519 1.81321 123.924 0.39542 125.139 0.0916069C126.253 -0.212206 128.076 0.192878 127.873 2.01576Z"
        fill="#DAE2EB" />
    <path
        d="M126.659 9.30696C126.963 7.48408 127.267 6.47137 126.254 5.96502C125.14 5.45866 124.431 6.3701 123.216 7.58536C122.203 8.69934 122.811 10.3197 123.823 10.826C125.039 11.4337 126.355 10.826 126.659 9.30696Z"
        fill="#DAE2EB" />
    <path
        d="M128.077 5.96555C127.975 6.67445 127.469 7.1808 126.76 7.28207C126.456 7.28207 126.153 7.28207 125.747 7.28207C124.33 7.07953 123.216 6.16809 123.317 5.25665C123.418 4.34521 124.735 3.83886 126.355 4.0414C126.659 4.0414 126.963 4.14267 127.165 4.24394C127.773 4.44648 128.178 5.15538 128.077 5.96555C128.077 5.96555 128.077 5.86428 128.077 5.96555Z"
        fill="#989FB0" />
    <path
        d="M16.5918 21.2061C16.5918 19.4845 16.5918 17.7629 17.807 17.2565C19.1236 16.7502 19.8325 17.9654 20.8452 19.687C21.7566 21.2061 21.3515 22.8264 20.035 23.3328C18.921 23.8391 16.5918 23.5353 16.5918 21.2061Z"
        fill="#DAE2EB" />
    <path
        d="M17.3007 12.6986C17.0982 14.8253 16.7943 16.0406 18.1109 16.5469C19.4274 17.0533 20.1363 15.9393 21.4528 14.3189C22.4655 12.9012 21.7566 11.0783 20.4401 10.5719C19.1236 10.0656 17.5032 10.977 17.3007 12.6986Z"
        fill="#DAE2EB" />
    <path
        d="M16.1865 16.7493C16.1865 15.9391 16.7941 15.3315 17.503 15.2303C17.8069 15.129 18.2119 15.129 18.617 15.2303C20.2374 15.3315 21.6552 16.243 21.5539 17.2557C21.4526 18.2684 20.1361 18.9773 18.4145 18.7747C18.1107 18.7747 17.8069 18.6735 17.503 18.5722C16.6929 18.4709 16.1865 17.6608 16.1865 16.7493Z"
        fill="#989FB0" />
    <path d="M23.0732 17.0537C33.7067 17.0537 53.3533 23.2312 53.6571 45.9159" stroke="#C9D4E2"
        stroke-width="2" stroke-miterlimit="10" stroke-dasharray="4 4" />
    <defs>
        <filter id="filter0_d_2496_8876" x="-5.92969" y="29.1914" width="134.962" height="122.051"
            filterUnits="userSpaceOnUse" color-interpolation-filters="sRGB">
            <feFlood flood-opacity="0" result="BackgroundImageFix" />
            <feColorMatrix in="SourceAlpha" type="matrix"
                values="0 0 0 0 0 0 0 0 0 0 0 0 0 0 0 0 0 0 127 0" result="hardAlpha" />
            <feOffset dy="11" />
            <feGaussianBlur stdDeviation="11" />
            <feColorMatrix type="matrix"
                values="0 0 0 0 0.397708 0 0 0 0 0.47749 0 0 0 0 0.575 0 0 0 0.27 0" />
            <feBlend mode="normal" in2="BackgroundImageFix" result="effect1_dropShadow_2496_8876" />
            <feBlend mode="normal" in="SourceGraphic" in2="effect1_dropShadow_2496_8876"
                result="shape" />
        </filter>
        <filter id="filter1_d_2496_8876" x="62.001" y="59.2021" width="68.3105" height="63.3086"
            filterUnits="userSpaceOnUse" color-interpolation-filters="sRGB">
            <feFlood flood-opacity="0" result="BackgroundImageFix" />
            <feColorMatrix in="SourceAlpha" type="matrix"
                values="0 0 0 0 0 0 0 0 0 0 0 0 0 0 0 0 0 0 127 0" result="hardAlpha" />
            <feOffset dy="11" />
            <feGaussianBlur stdDeviation="11" />
            <feColorMatrix type="matrix"
                values="0 0 0 0 0.397708 0 0 0 0 0.47749 0 0 0 0 0.575 0 0 0 0.27 0" />
            <feBlend mode="normal" in2="BackgroundImageFix" result="effect1_dropShadow_2496_8876" />
            <feBlend mode="normal" in="SourceGraphic" in2="effect1_dropShadow_2496_8876"
                result="shape" />
        </filter>
        <linearGradient id="paint0_linear_2496_8876" x1="57.4865" y1="34.0262" x2="57.4865"
            y2="41.5345" gradientUnits="userSpaceOnUse">
            <stop stop-color="#B0BACC" />
            <stop offset="1" stop-color="#969EAE" />
        </linearGradient>
        <linearGradient id="paint1_linear_2496_8876" x1="61.5217" y1="38.386" x2="61.5217"
            y2="119.083" gradientUnits="userSpaceOnUse">
            <stop stop-color="#FDFEFF" />
            <stop offset="0.9964" stop-color="#ECF0F5" />
        </linearGradient>
        <linearGradient id="paint2_linear_2496_8876" x1="95.8677" y1="74.053" x2="95.8677"
            y2="83.6505" gradientUnits="userSpaceOnUse">
            <stop stop-color="#B0BACC" />
            <stop offset="1" stop-color="#969EAE" />
        </linearGradient>
        <linearGradient id="paint3_linear_2496_8876" x1="96.1485" y1="69.7555" x2="96.1485"
            y2="89.7194" gradientUnits="userSpaceOnUse">
            <stop stop-color="#FDFEFF" />
            <stop offset="0.9964" stop-color="#ECF0F5" />
        </linearGradient>
    </defs>
</svg>
