<svg width="24" height="24" viewBox="0 0 24 24" fill="none" xmlns="http://www.w3.org/2000/svg">
    <g clip-path="url(#clip0_2406_9930)">
        <path
            d="M22.582 14.7191C24.2718 11.3051 22.6368 7.40551 19.0176 6.22014C18.6235 6.08889 18.2054 6.44626 18.3786 6.86288C18.8076 7.88288 19.2066 7.62189 20.0954 8.37039C21.7521 9.76051 22.2149 11.7566 21.4278 13.7569C21.4225 13.7678 21.4248 13.7779 21.4218 13.7888C21.4019 13.8405 21.3918 13.8919 21.3929 13.9511C21.3929 13.9868 21.406 14.0168 21.412 14.0486C21.418 14.0764 21.4158 14.1026 21.4289 14.1345C21.5095 14.3284 21.5939 14.5275 21.6745 14.7233C21.8474 15.138 22.3986 15.0904 22.582 14.7191ZM11.6024 1.13289L16.084 11.8181C17.5765 15.3769 19.0724 18.9431 20.5638 22.5026C20.8394 23.1596 20.524 23.7833 20.0046 23.6164C14.3684 21.7905 8.73215 19.9691 3.09965 18.1463C2.58627 17.9771 2.23115 17.1323 2.4719 16.6508C5.1194 11.352 7.77065 6.05701 10.4181 0.75826C10.6623 0.26176 11.3275 0.475885 11.6035 1.13251"
            fill="#8CECB9" />
        <path
            d="M11.4966 0.877956C12.76 3.89296 14.0238 6.90796 15.2909 9.92296C16.5528 12.9342 17.8184 15.953 19.0821 18.9642C19.315 19.5203 19.0465 20.0491 18.6066 19.9077C13.8351 18.3623 9.06365 16.8226 4.29665 15.2761C3.86202 15.1328 3.5624 14.4185 3.76527 14.0116C6.0044 9.52658 8.25027 5.04346 10.4931 0.555831C10.699 0.139581 11.2634 0.318456 11.4985 0.874956"
            fill="#40DF8A" />
        <path
            d="M0.611021 12.7949C1.20015 12.5482 1.78852 12.3007 2.37652 12.0535C3.40494 11.6227 4.43319 11.1915 5.46127 10.7598C5.4834 10.7519 5.50627 10.7598 5.52727 10.7767L5.52915 10.7785L5.53515 10.7797C5.56192 10.8034 5.5824 10.8334 5.59477 10.867C6.09052 12.0464 6.58515 13.2265 7.07977 14.4059C7.8579 16.2614 8.63415 18.1135 9.41415 19.9694C9.44415 20.0459 9.43627 20.1224 9.3954 20.1397C8.80627 20.3864 8.2179 20.632 7.6299 20.8799C6.60202 21.3119 5.57339 21.7417 4.54515 22.1737C4.50427 22.1917 4.44427 22.1418 4.41202 22.0672C3.91852 20.887 3.42277 19.7088 2.92814 18.5279C2.1489 16.672 1.37302 14.818 0.594521 12.9633C0.562269 12.8864 0.569397 12.811 0.611021 12.7949ZM10.5736 0.0362899C11.7883 -0.473335 15.0061 4.44441 17.7624 11.02C20.5209 17.5938 21.7715 23.3358 20.5576 23.845C19.3445 24.3535 16.1244 19.4347 13.3689 12.8613C10.6115 6.28679 9.35977 0.54404 10.5736 0.0362899Z"
            fill="#1A5937" />
        <path
            d="M11.3127 1.79315C12.1639 1.4369 14.7728 5.72278 17.1413 11.3699C19.5068 17.0137 20.7376 21.8812 19.8867 22.2367C19.0358 22.5948 16.4266 18.307 14.0573 12.6618C11.6922 7.01428 10.4614 2.15053 11.3127 1.79315Z"
            fill="#40DF8A" />
        <path
            d="M15.3182 9.33232C14.3031 9.75719 13.9292 11.1691 14.4823 12.4876C15.0358 13.8079 16.3086 14.5336 17.3203 14.1087C18.3321 13.6838 18.7033 12.2697 18.1491 10.9501C17.5982 9.63082 16.3303 8.90819 15.3182 9.33232Z"
            fill="#D9F9E8" />
    </g>
    <defs>
        <clipPath id="clip0_2406_9930">
            <rect width="24" height="24" fill="white" transform="matrix(-1 0 0 1 24 0)" />
        </clipPath>
    </defs>
</svg>
