<svg width="25" height="24" viewBox="0 0 25 24" fill="none" xmlns="http://www.w3.org/2000/svg">
    <path d="M12.6254 13.5305C12.6054 13.5305 12.5754 13.5305 12.5554 13.5305C12.5254 13.5305 12.4854 13.5305 12.4554 13.5305C10.1854 13.4605 8.48535 11.6905 8.48535 9.51047C8.48535 7.29047 10.2954 5.48047 12.5154 5.48047C14.7354 5.48047 16.5454 7.29047 16.5454 9.51047C16.5354 11.7005 14.8254 13.4605 12.6554 13.5305C12.6354 13.5305 12.6354 13.5305 12.6254 13.5305ZM12.5054 6.97047C11.1054 6.97047 9.97535 8.11047 9.97535 9.50047C9.97535 10.8705 11.0454 11.9805 12.4054 12.0305C12.4354 12.0205 12.5354 12.0205 12.6354 12.0305C13.9754 11.9605 15.0254 10.8605 15.0354 9.50047C15.0354 8.11047 13.9054 6.97047 12.5054 6.97047Z" fill="#111111"/>
    <path d="M12.5047 22.7503C9.81472 22.7503 7.24472 21.7503 5.25472 19.9303C5.07472 19.7703 4.99472 19.5303 5.01472 19.3003C5.14472 18.1103 5.88472 17.0003 7.11472 16.1803C10.0947 14.2003 14.9247 14.2003 17.8947 16.1803C19.1247 17.0103 19.8647 18.1103 19.9947 19.3003C20.0247 19.5403 19.9347 19.7703 19.7547 19.9303C17.7647 21.7503 15.1947 22.7503 12.5047 22.7503ZM6.58472 19.1003C8.24472 20.4903 10.3347 21.2503 12.5047 21.2503C14.6747 21.2503 16.7647 20.4903 18.4247 19.1003C18.2447 18.4903 17.7647 17.9003 17.0547 17.4203C14.5947 15.7803 10.4247 15.7803 7.94472 17.4203C7.23472 17.9003 6.76472 18.4903 6.58472 19.1003Z" fill="#111111"/>
    <path d="M12.5049 22.75C6.57488 22.75 1.75488 17.93 1.75488 12C1.75488 6.07 6.57488 1.25 12.5049 1.25C18.4349 1.25 23.2549 6.07 23.2549 12C23.2549 17.93 18.4349 22.75 12.5049 22.75ZM12.5049 2.75C7.40488 2.75 3.25488 6.9 3.25488 12C3.25488 17.1 7.40488 21.25 12.5049 21.25C17.6049 21.25 21.7549 17.1 21.7549 12C21.7549 6.9 17.6049 2.75 12.5049 2.75Z" fill="#111111"/>
</svg>
