<svg width="40" height="41" viewBox="0 0 40 41" fill="none" xmlns="http://www.w3.org/2000/svg">
    <rect y="0.5" width="40" height="40" rx="10" fill="#132559"/>
    <path d="M24.19 10.5H15.81C12.17 10.5 10 12.67 10 16.31V24.68C10 28.33 12.17 30.5 15.81 30.5H24.18C27.82 30.5 29.99 28.33 29.99 24.69V16.31C30 12.67 27.83 10.5 24.19 10.5ZM25.85 22.6C25.81 22.69 25.76 22.77 25.69 22.84L22.65 25.88C22.5 26.03 22.31 26.1 22.12 26.1C21.93 26.1 21.74 26.03 21.59 25.88C21.3 25.59 21.3 25.11 21.59 24.82L23.35 23.06H14.85C14.44 23.06 14.1 22.72 14.1 22.31C14.1 21.9 14.44 21.56 14.85 21.56H25.16C25.26 21.56 25.35 21.58 25.45 21.62C25.63 21.7 25.78 21.84 25.86 22.03C25.92 22.21 25.92 22.42 25.85 22.6ZM25.15 19.43H14.85C14.75 19.43 14.66 19.41 14.56 19.37C14.38 19.29 14.23 19.15 14.15 18.96C14.07 18.78 14.07 18.57 14.15 18.39C14.19 18.3 14.24 18.22 14.31 18.15L17.35 15.11C17.64 14.82 18.12 14.82 18.41 15.11C18.7 15.4 18.7 15.88 18.41 16.17L16.66 17.93H25.16C25.57 17.93 25.91 18.27 25.91 18.68C25.91 19.09 25.57 19.43 25.15 19.43Z" fill="white"/>
</svg>
