<svg width="38" height="38" viewBox="0 0 38 38" fill="none" xmlns="http://www.w3.org/2000/svg">
    <path opacity="0.4"
        d="M16.6084 3.53121L8.7076 6.49206C6.88677 7.17289 5.39844 9.32621 5.39844 11.2737V23.0379C5.39844 24.9062 6.63345 27.3604 8.13762 28.4846L14.9459 33.567C17.1784 35.2454 20.8517 35.2454 23.0842 33.567L29.8926 28.4846C31.3968 27.3604 32.6317 24.9062 32.6317 23.0379V11.2737C32.6317 9.32621 31.1434 7.17289 29.3226 6.49206L21.4218 3.53121C20.0759 3.04038 17.9226 3.04038 16.6084 3.53121Z"
        fill="#132559" />
    <path
        d="M18.841 17.8917C18.8727 17.8917 18.9044 17.8917 18.936 17.8917H18.9677H18.9994C20.8202 17.8284 22.2452 16.3559 22.261 14.5192C22.261 12.6509 20.7411 11.1309 18.8727 11.1309C17.0044 11.1309 15.4844 12.6509 15.4844 14.5192C15.516 16.34 16.941 17.8284 18.841 17.8917Z"
        fill="#132559" />
    <path
        d="M22.4674 21.2322C20.5516 19.9656 17.4482 19.9656 15.5166 21.2322C14.6299 21.8339 14.1074 22.6889 14.1074 23.5756C14.1074 24.4781 14.6141 25.3014 15.5166 25.9031C16.4824 26.5364 17.7332 26.8689 18.9841 26.8689C20.2349 26.8689 21.5016 26.5522 22.4516 25.9031C23.3382 25.3014 23.8608 24.4464 23.8608 23.5597C23.8766 22.6572 23.3699 21.8339 22.4674 21.2322Z"
        fill="#132559" />
</svg>
