<svg width="24" height="25" viewBox="0 0 24 25" fill="none" xmlns="http://www.w3.org/2000/svg">
    <path
        d="M19.5 5.74023H16.9012L15.6234 3.82398C15.555 3.72138 15.4623 3.63724 15.3535 3.57902C15.2448 3.5208 15.1233 3.49031 15 3.49023H9C8.87665 3.49031 8.75522 3.5208 8.64648 3.57902C8.53773 3.63724 8.44502 3.72138 8.37656 3.82398L7.09781 5.74023H4.5C3.90326 5.74023 3.33097 5.97729 2.90901 6.39924C2.48705 6.8212 2.25 7.3935 2.25 7.99023V18.4902C2.25 19.087 2.48705 19.6593 2.90901 20.0812C3.33097 20.5032 3.90326 20.7402 4.5 20.7402H19.5C20.0967 20.7402 20.669 20.5032 21.091 20.0812C21.5129 19.6593 21.75 19.087 21.75 18.4902V7.99023C21.75 7.3935 21.5129 6.8212 21.091 6.39924C20.669 5.97729 20.0967 5.74023 19.5 5.74023ZM14.7009 16.0902C13.8672 16.7109 12.8451 17.0253 11.8066 16.9804C10.7682 16.9355 9.77701 16.534 9 15.8437V16.2402C9 16.4391 8.92098 16.6299 8.78033 16.7706C8.63968 16.9112 8.44891 16.9902 8.25 16.9902C8.05109 16.9902 7.86032 16.9112 7.71967 16.7706C7.57902 16.6299 7.5 16.4391 7.5 16.2402V13.9902C7.5 13.7913 7.57902 13.6006 7.71967 13.4599C7.86032 13.3193 8.05109 13.2402 8.25 13.2402H10.5C10.6989 13.2402 10.8897 13.3193 11.0303 13.4599C11.171 13.6006 11.25 13.7913 11.25 13.9902C11.25 14.1891 11.171 14.3799 11.0303 14.5206C10.8897 14.6612 10.6989 14.7402 10.5 14.7402H10.0172C10.5352 15.1941 11.1932 15.4567 11.8814 15.4841C12.5697 15.5116 13.2465 15.3023 13.7991 14.8912C13.9581 14.7716 14.1581 14.72 14.3551 14.7479C14.5521 14.7758 14.7299 14.8808 14.8495 15.0398C14.9691 15.1988 15.0207 15.3988 14.9928 15.5958C14.9649 15.7928 14.8599 15.9706 14.7009 16.0902ZM16.5 11.7402C16.5 11.9391 16.421 12.1299 16.2803 12.2706C16.1397 12.4112 15.9489 12.4902 15.75 12.4902H13.5C13.3011 12.4902 13.1103 12.4112 12.9697 12.2706C12.829 12.1299 12.75 11.9391 12.75 11.7402C12.75 11.5413 12.829 11.3506 12.9697 11.2099C13.1103 11.0693 13.3011 10.9902 13.5 10.9902H13.9828C13.4648 10.5364 12.8068 10.2738 12.1186 10.2463C11.4303 10.2189 10.7535 10.4282 10.2009 10.8393C10.0419 10.9589 9.84193 11.0104 9.64493 10.9826C9.44793 10.9547 9.27007 10.8497 9.15047 10.6907C9.03087 10.5317 8.97934 10.3317 9.00721 10.1347C9.03507 9.93769 9.14006 9.75983 9.29906 9.64023C10.1328 9.01954 11.1549 8.70518 12.1934 8.75009C13.2318 8.795 14.223 9.19644 15 9.8868V9.49023C15 9.29132 15.079 9.10056 15.2197 8.9599C15.3603 8.81925 15.5511 8.74023 15.75 8.74023C15.9489 8.74023 16.1397 8.81925 16.2803 8.9599C16.421 9.10056 16.5 9.29132 16.5 9.49023V11.7402Z"
        fill="black" />
</svg>
