<svg width="20" height="20" viewBox="0 0 20 20" fill="none" xmlns="http://www.w3.org/2000/svg">
    <path d="M11.2749 6.96021C10.7979 7.30028 10.2141 7.50033 9.58366 7.50033C7.97283 7.50033 6.66699 6.19449 6.66699 4.58366C6.66699 2.97283 7.97283 1.66699 9.58366 1.66699C10.6278 1.66699 11.5438 2.21567 12.0591 3.04044M5.00033 16.7396H7.17557C7.45918 16.7396 7.74106 16.7734 8.016 16.8409L10.3144 17.3994C10.8131 17.5209 11.3326 17.5327 11.8366 17.4348L14.3778 16.9404C15.0491 16.8096 15.6666 16.4882 16.1506 16.0174L17.9486 14.2684C18.462 13.7698 18.462 12.9607 17.9486 12.4612C17.4863 12.0115 16.7543 11.9609 16.2313 12.3423L14.1358 13.871C13.8357 14.0904 13.4706 14.2085 13.095 14.2085H11.0716L12.3595 14.2085C13.0855 14.2085 13.6735 13.6364 13.6735 12.9303V12.6746C13.6735 12.0882 13.2633 11.577 12.6787 11.4352L10.6908 10.9518C10.3673 10.8733 10.036 10.8337 9.70294 10.8337C8.89894 10.8337 7.44357 11.4993 7.44357 11.4993L5.00033 12.5211M16.667 5.41699C16.667 7.02782 15.3612 8.33366 13.7503 8.33366C12.1395 8.33366 10.8337 7.02782 10.8337 5.41699C10.8337 3.80616 12.1395 2.50033 13.7503 2.50033C15.3612 2.50033 16.667 3.80616 16.667 5.41699ZM1.66699 12.167L1.66699 17.0003C1.66699 17.467 1.66699 17.7004 1.75782 17.8787C1.83771 18.0355 1.9652 18.1629 2.122 18.2428C2.30026 18.3337 2.53361 18.3337 3.00033 18.3337H3.66699C4.1337 18.3337 4.36706 18.3337 4.54532 18.2428C4.70212 18.1629 4.8296 18.0355 4.9095 17.8787C5.00033 17.7004 5.00033 17.467 5.00033 17.0003V12.167C5.00033 11.7003 5.00033 11.4669 4.9095 11.2887C4.8296 11.1319 4.70212 11.0044 4.54532 10.9245C4.36706 10.8337 4.1337 10.8337 3.66699 10.8337L3.00033 10.8337C2.53362 10.8337 2.30026 10.8337 2.122 10.9245C1.9652 11.0044 1.83771 11.1319 1.75782 11.2887C1.66699 11.4669 1.66699 11.7003 1.66699 12.167Z" stroke="#132559" stroke-width="1.5" stroke-linecap="round" stroke-linejoin="round"/>
</svg>
