<svg width="24" height="26" viewBox="0 0 24 26" fill="none" xmlns="http://www.w3.org/2000/svg">
    <path d="M8.96121 21.5993L9.64306 23.1328C9.84576 23.5893 10.1766 23.9772 10.5953 24.2494C11.0141 24.5216 11.5029 24.6664 12.0023 24.6663C12.5018 24.6664 12.9905 24.5216 13.4093 24.2494C13.8281 23.9772 14.1589 23.5893 14.3616 23.1328L15.0434 21.5993C15.2862 21.0552 15.6944 20.6015 16.2101 20.303C16.729 20.0037 17.3293 19.8762 17.9251 19.9388L19.5934 20.1163C20.09 20.1689 20.5912 20.0762 21.0362 19.8496C21.4812 19.6229 21.8509 19.272 22.1005 18.8395C22.3503 18.4072 22.4694 17.9117 22.4432 17.413C22.4169 16.9144 22.2465 16.4341 21.9527 16.0304L20.9649 14.6732C20.6132 14.1863 20.4253 13.6003 20.4282 12.9997C20.4281 12.4007 20.6178 11.8171 20.9701 11.3326L21.9579 9.97541C22.2517 9.57172 22.4221 9.09142 22.4483 8.59279C22.4746 8.09416 22.3555 7.59864 22.1057 7.16634C21.8561 6.73378 21.4864 6.38291 21.0414 6.15627C20.5964 5.92963 20.0952 5.83696 19.5986 5.88949L17.9303 6.06708C17.3345 6.12965 16.7342 6.00215 16.2153 5.70282C15.6986 5.40264 15.2902 4.94659 15.0486 4.40005L14.3616 2.86653C14.1589 2.41004 13.8281 2.02218 13.4093 1.74997C12.9905 1.47777 12.5018 1.33293 12.0023 1.33301C11.5029 1.33293 11.0141 1.47777 10.5953 1.74997C10.1766 2.02218 9.84576 2.41004 9.64306 2.86653L8.96121 4.40005C8.71962 4.94659 8.31123 5.40264 7.79454 5.70282C7.27563 6.00215 6.67532 6.12965 6.07954 6.06708L4.40602 5.88949C3.90941 5.83696 3.40822 5.92963 2.96322 6.15627C2.51823 6.38291 2.14854 6.73378 1.89899 7.16634C1.64911 7.59864 1.53007 8.09416 1.5563 8.59279C1.58253 9.09142 1.75291 9.57172 2.04676 9.97541L3.03454 11.3326C3.38681 11.8171 3.5765 12.4007 3.57639 12.9997C3.5765 13.5987 3.38681 14.1823 3.03454 14.6667L2.04676 16.0239C1.75291 16.4276 1.58253 16.9079 1.5563 17.4066C1.53007 17.9052 1.64911 18.4007 1.89899 18.833C2.14879 19.2653 2.51852 19.616 2.96345 19.8426C3.40838 20.0692 3.90944 20.1621 4.40602 20.1099L6.07436 19.9323C6.67014 19.8697 7.27044 19.9972 7.78936 20.2965C8.30797 20.5959 8.71827 21.052 8.96121 21.5993Z" stroke="black" stroke-width="2" stroke-linecap="round" stroke-linejoin="round"/>
    <path d="M12.0002 16.4997C13.9332 16.4997 15.5002 14.9327 15.5002 12.9997C15.5002 11.0667 13.9332 9.49967 12.0002 9.49967C10.0672 9.49967 8.50023 11.0667 8.50023 12.9997C8.50023 14.9327 10.0672 16.4997 12.0002 16.4997Z" stroke="black" stroke-width="2" stroke-linecap="round" stroke-linejoin="round"/>
</svg>
