<svg width="21" height="22" viewBox="0 0 21 22" fill="none" xmlns="http://www.w3.org/2000/svg">
    <path d="M8.99952 12.3439L19.4995 1.84392M9.1271 12.672L11.7552 19.43C11.9867 20.0253 12.1025 20.323 12.2693 20.4099C12.4139 20.4853 12.5862 20.4854 12.7308 20.4102C12.8977 20.3235 13.0139 20.0259 13.2461 19.4309L19.8364 2.54312C20.0461 2.00594 20.1509 1.73735 20.0935 1.56572C20.0437 1.41667 19.9268 1.29971 19.7777 1.24991C19.6061 1.19258 19.3375 1.29739 18.8003 1.50702L1.91258 8.09736C1.3175 8.32959 1.01997 8.4457 0.933257 8.61261C0.858089 8.75729 0.858191 8.92954 0.933528 9.07414C1.02043 9.24094 1.31811 9.35671 1.91345 9.58823L8.67146 12.2163C8.79231 12.2633 8.85273 12.2868 8.90361 12.3231C8.94871 12.3553 8.98815 12.3947 9.02031 12.4398C9.05661 12.4907 9.08011 12.5511 9.1271 12.672Z" stroke="#111111" stroke-width="1.5" stroke-linecap="round" stroke-linejoin="round"/>
</svg>
