<svg width="24" height="28" viewBox="0 0 24 28" fill="none" xmlns="http://www.w3.org/2000/svg">
    <path
        d="M8.2846 17.3338C8.70087 18.1265 9.53207 18.6671 10.4895 18.6671H13.334C14.8067 18.6671 16.0007 17.4732 16.0007 16.0005C16.0007 14.5277 14.8067 13.3338 13.334 13.3338H10.6673C9.19456 13.3338 8.00065 12.1399 8.00065 10.6671C8.00065 9.19439 9.19456 8.00048 10.6673 8.00048H13.5118C14.4692 8.00048 15.3004 8.54114 15.7167 9.33381M12.0007 6.00048V8.00048M12.0007 18.6671V20.6671M22.6673 14.0005C22.6673 20.5451 15.5287 25.305 12.9313 26.8203C12.6361 26.9925 12.4885 27.0786 12.2802 27.1233C12.1186 27.158 11.8827 27.158 11.7211 27.1233C11.5128 27.0786 11.3652 26.9925 11.07 26.8203C8.4726 25.305 1.33398 20.5451 1.33398 14.0005V7.62395C1.33398 6.55793 1.33398 6.02492 1.50833 5.56675C1.66235 5.162 1.91263 4.80085 2.23753 4.51452C2.60531 4.1904 3.10438 4.00325 4.10252 3.62894L11.2516 0.948044C11.5288 0.844096 11.6674 0.792122 11.81 0.771519C11.9364 0.753244 12.0649 0.753244 12.1913 0.771519C12.3339 0.792122 12.4725 0.844096 12.7497 0.948044L19.8988 3.62894C20.8969 4.00325 21.396 4.1904 21.7638 4.51452C22.0887 4.80085 22.339 5.162 22.493 5.56675C22.6673 6.02492 22.6673 6.55793 22.6673 7.62395V14.0005Z"
        stroke="white" stroke-width="1.5" stroke-linecap="round" stroke-linejoin="round" />
</svg>