<svg width="20" height="22" viewBox="0 0 20 22" fill="none" xmlns="http://www.w3.org/2000/svg">
    <path d="M11.167 9.84375H5.16699M7.16699 13.8438H5.16699M13.167 5.84375H5.16699M17.167 9.34375V5.64375C17.167 3.96359 17.167 3.12351 16.84 2.48178C16.5524 1.91729 16.0934 1.45835 15.529 1.17073C14.8872 0.84375 14.0471 0.84375 12.367 0.84375H5.96699C4.28683 0.84375 3.44676 0.84375 2.80502 1.17073C2.24053 1.45835 1.78159 1.91729 1.49397 2.48178C1.16699 3.12351 1.16699 3.96359 1.16699 5.64375V16.0437C1.16699 17.7239 1.16699 18.564 1.49397 19.2057C1.78159 19.7702 2.24053 20.2291 2.80502 20.5168C3.44676 20.8438 4.28683 20.8438 5.96699 20.8438H8.66699M19.167 20.8438L17.667 19.3438M18.667 16.8438C18.667 18.7767 17.1 20.3438 15.167 20.3438C13.234 20.3438 11.667 18.7767 11.667 16.8438C11.667 14.9108 13.234 13.3438 15.167 13.3438C17.1 13.3438 18.667 14.9108 18.667 16.8438Z" stroke="#111111" stroke-width="1.5" stroke-linecap="round" stroke-linejoin="round"/>
</svg>
