<svg width="24" height="24" viewBox="0 0 24 24" fill="none" xmlns="http://www.w3.org/2000/svg">
    <path d="M0.879883 0.914062V4.64794C2.97445 4.90959 4.70099 5.81822 6.34818 6.85837L5.18802 7.79883L9.9591 10.2319L8.64941 4.99219L7.43512 5.97656C6.48707 4.10109 5.4299 2.33297 4.02496 0.914062H0.879883ZM13.8819 0.914062C13.1495 2.26242 12.5128 3.63872 11.9234 5.04637L10.5083 4.74609L11.7242 10.0078L14.8677 5.67188L13.4805 5.3775C15.041 3.74873 16.6491 2.1997 18.5459 0.914062H13.8819ZM23.1397 5.313C21.359 5.42934 19.7628 6.23536 18.2164 7.23047L17.6319 5.70563L13.879 9.58889L19.2271 9.86719L18.606 8.24705C20.1173 8.20327 21.6284 8.33269 23.1397 9.249V5.313ZM14.0445 11.3144C13.797 11.32 13.5659 11.4277 13.2506 11.7642L12.9429 12.0908L12.6236 11.7758C12.2773 11.4345 12.0041 11.3403 11.7271 11.3525C11.4501 11.3647 11.1245 11.5103 10.7603 11.8051L10.4688 12.0409L10.192 11.789C9.77479 11.4116 9.41924 11.2997 9.0787 11.3173C8.83082 11.3302 8.57362 11.4235 8.31698 11.5868L10.2374 15.041C10.9618 15.484 12.442 15.6507 13.46 15.1377L15.316 11.6997C14.9639 11.5561 14.6475 11.409 14.3741 11.3525C14.2751 11.332 14.1832 11.3171 14.0942 11.3144C14.0777 11.314 14.0611 11.314 14.0445 11.3144ZM9.8272 15.8233C8.9818 16.4206 8.30301 17.4507 8.04009 18.9595C7.78532 20.4218 8.18671 21.4094 8.89705 22.0825C9.60745 22.7556 10.6737 23.1014 11.7564 23.0873C12.8392 23.0733 13.9191 22.6978 14.6451 22.0122C15.3712 21.3266 15.7818 20.3516 15.5489 18.9565C15.3081 17.5148 14.6864 16.5121 13.8994 15.9053C12.5643 16.611 10.895 16.461 9.8272 15.8232V15.8233Z" fill="white"/>
</svg>
