<svg width="24" height="24" viewBox="0 0 24 24" fill="none" xmlns="http://www.w3.org/2000/svg">
    <g clip-path="url(#clip0_2071_6966)">
        <path d="M16.5934 17.3337H21.8334C21.3934 11.527 18.8934 7.92033 15.6867 5.78699L17.1467 2.60033C17.1908 2.49921 17.2092 2.38872 17.2001 2.27876C17.191 2.16881 17.1548 2.06282 17.0947 1.97032C17.0345 1.87781 16.9524 1.80168 16.8556 1.74874C16.7588 1.6958 16.6504 1.66771 16.54 1.66699H7.40003C7.2897 1.66771 7.18128 1.6958 7.08448 1.74874C6.98768 1.80168 6.90554 1.87781 6.84541 1.97032C6.78528 2.06282 6.74905 2.16881 6.73997 2.27876C6.73088 2.38872 6.74923 2.49921 6.79337 2.60033L7.59337 4.33366H14.34L13.74 5.66699H12.5067C12.883 6.67995 13.1598 7.7271 13.3334 8.79366C13.4447 9.45542 13.5159 10.1233 13.5467 10.7937L12.4934 11.5337C12.4964 10.6713 12.425 9.81038 12.28 8.96032C12.0961 7.82892 11.7783 6.72339 11.3334 5.66699H10.6667C10.051 6.444 9.4981 7.26884 9.01337 8.13366C8.62233 8.87533 8.29019 9.6466 8.02003 10.4403L7.1067 9.83366C7.37388 9.06665 7.70157 8.32209 8.0867 7.60699C8.47664 6.93683 8.90398 6.28914 9.3667 5.66699H8.20003L8.25337 5.78033C4.72003 8.13366 2.03337 12.267 2.03337 19.167C2.02436 19.312 2.04418 19.4574 2.09168 19.5948C2.13919 19.7321 2.21344 19.8587 2.31014 19.9671C2.40684 20.0756 2.52407 20.1639 2.65508 20.2268C2.78608 20.2897 2.92824 20.326 3.07337 20.3337H8.4067C8.17769 20.0953 8.01957 19.7979 7.95005 19.4748C7.88053 19.1516 7.90236 18.8155 8.01309 18.5041C8.12383 18.1926 8.31909 17.9182 8.577 17.7115C8.83491 17.5048 9.14529 17.3739 9.47337 17.3337C9.31371 17.0629 9.2286 16.7547 9.2267 16.4403C9.2267 15.9629 9.41634 15.5051 9.75391 15.1675C10.0915 14.83 10.5493 14.6403 11.0267 14.6403H15.0267C15.5041 14.6403 15.9619 14.83 16.2995 15.1675C16.6371 15.5051 16.8267 15.9629 16.8267 16.4403C16.8301 16.7536 16.7496 17.0621 16.5934 17.3337Z" fill="url(#paint0_linear_2071_6966)"/>
        <path d="M14.3997 18.9997C14.3997 18.8229 14.3295 18.6533 14.2045 18.5283C14.0795 18.4032 13.9099 18.333 13.7331 18.333H9.73307C9.55626 18.333 9.38669 18.4032 9.26167 18.5283C9.13664 18.6533 9.06641 18.8229 9.06641 18.9997C9.06641 19.1765 9.13664 19.3461 9.26167 19.4711C9.38669 19.5961 9.55626 19.6663 9.73307 19.6663H13.7331C13.9099 19.6663 14.0795 19.5961 14.2045 19.4711C14.3295 19.3461 14.3997 19.1765 14.3997 18.9997Z" fill="url(#paint1_linear_2071_6966)"/>
        <path d="M15.026 15.667H11.026C10.8492 15.667 10.6797 15.7372 10.5546 15.8623C10.4296 15.9873 10.3594 16.1568 10.3594 16.3337C10.3594 16.5105 10.4296 16.68 10.5546 16.8051C10.6797 16.9301 10.8492 17.0003 11.026 17.0003H15.026C15.2029 17.0003 15.3724 16.9301 15.4974 16.8051C15.6225 16.68 15.6927 16.5105 15.6927 16.3337C15.6927 16.1568 15.6225 15.9873 15.4974 15.8623C15.3724 15.7372 15.2029 15.667 15.026 15.667Z" fill="url(#paint2_linear_2071_6966)"/>
        <path d="M14.6667 21H10.6667C10.4899 21 10.3203 21.0702 10.1953 21.1953C10.0702 21.3203 10 21.4899 10 21.6667C10 21.8435 10.0702 22.013 10.1953 22.1381C10.3203 22.2631 10.4899 22.3333 10.6667 22.3333H14.6667C14.8435 22.3333 15.013 22.2631 15.1381 22.1381C15.2631 22.013 15.3333 21.8435 15.3333 21.6667C15.3333 21.4899 15.2631 21.3203 15.1381 21.1953C15.013 21.0702 14.8435 21 14.6667 21Z" fill="url(#paint3_linear_2071_6966)"/>
        <path d="M21.8001 21H17.1335C16.9567 21 16.7871 21.0702 16.6621 21.1953C16.537 21.3203 16.4668 21.4899 16.4668 21.6667C16.4668 21.8435 16.537 22.013 16.6621 22.1381C16.7871 22.2631 16.9567 22.3333 17.1335 22.3333H21.8001C21.9769 22.3333 22.1465 22.2631 22.2715 22.1381C22.3966 22.013 22.4668 21.8435 22.4668 21.6667C22.4668 21.4899 22.3966 21.3203 22.2715 21.1953C22.1465 21.0702 21.9769 21 21.8001 21Z" fill="url(#paint4_linear_2071_6966)"/>
        <path d="M22.4661 18.333H17.7995C17.6227 18.333 17.4531 18.4032 17.3281 18.5283C17.203 18.6533 17.1328 18.8229 17.1328 18.9997C17.1328 19.1765 17.203 19.3461 17.3281 19.4711C17.4531 19.5961 17.6227 19.6663 17.7995 19.6663H22.4661C22.643 19.6663 22.8125 19.5961 22.9376 19.4711C23.0626 19.3461 23.1328 19.1765 23.1328 18.9997C23.1328 18.8229 23.0626 18.6533 22.9376 18.5283C22.8125 18.4032 22.643 18.333 22.4661 18.333Z" fill="url(#paint5_linear_2071_6966)"/>
    </g>
    <defs>
        <linearGradient id="paint0_linear_2071_6966" x1="11.9323" y1="1.66699" x2="11.9323" y2="20.3337" gradientUnits="userSpaceOnUse">
            <stop stop-color="#F3C07B"/>
            <stop offset="1" stop-color="#FF9B3F"/>
        </linearGradient>
        <linearGradient id="paint1_linear_2071_6966" x1="11.7331" y1="18.333" x2="11.7331" y2="19.6663" gradientUnits="userSpaceOnUse">
            <stop stop-color="#F3C07B"/>
            <stop offset="1" stop-color="#FF9B3F"/>
        </linearGradient>
        <linearGradient id="paint2_linear_2071_6966" x1="13.026" y1="15.667" x2="13.026" y2="17.0003" gradientUnits="userSpaceOnUse">
            <stop stop-color="#F3C07B"/>
            <stop offset="1" stop-color="#FF9B3F"/>
        </linearGradient>
        <linearGradient id="paint3_linear_2071_6966" x1="12.6667" y1="21" x2="12.6667" y2="22.3333" gradientUnits="userSpaceOnUse">
            <stop stop-color="#F3C07B"/>
            <stop offset="1" stop-color="#FF9B3F"/>
        </linearGradient>
        <linearGradient id="paint4_linear_2071_6966" x1="19.4668" y1="21" x2="19.4668" y2="22.3333" gradientUnits="userSpaceOnUse">
            <stop stop-color="#F3C07B"/>
            <stop offset="1" stop-color="#FF9B3F"/>
        </linearGradient>
        <linearGradient id="paint5_linear_2071_6966" x1="20.1328" y1="18.333" x2="20.1328" y2="19.6663" gradientUnits="userSpaceOnUse">
            <stop stop-color="#F3C07B"/>
            <stop offset="1" stop-color="#FF9B3F"/>
        </linearGradient>
        <clipPath id="clip0_2071_6966">
            <rect width="24" height="24" fill="white"/>
        </clipPath>
    </defs>
</svg>
