<svg width="19" height="22" viewBox="0 0 19 22" fill="none" xmlns="http://www.w3.org/2000/svg">
    <path fill-rule="evenodd" clip-rule="evenodd" d="M10.58 1.53893C10.8275 1.82393 11.2475 1.87643 11.555 1.65893C12.155 1.23143 12.935 1.87643 12.6275 2.53643L10.8125 4.61393H7.91L6.08 2.51393C5.7725 1.84643 6.5525 1.20143 7.1525 1.62893L7.205 1.66643C7.5125 1.88393 7.9325 1.82393 8.1725 1.53893L8.825 0.758934C8.89221 0.677918 8.97645 0.612712 9.07173 0.567957C9.16701 0.523203 9.27098 0.5 9.37625 0.5C9.48152 0.5 9.58549 0.523203 9.68077 0.567957C9.77605 0.612712 9.86029 0.677918 9.9275 0.758934L10.58 1.53893ZM0.5 14.9189C0.5 10.0139 4.475 6.03893 9.38 6.03893C14.285 6.03893 18.26 10.0139 18.2525 14.9189C18.2525 18.5414 15.3125 21.4814 11.69 21.4814H7.0625C3.44 21.4814 0.5 18.5414 0.5 14.9189Z" fill="#F3C07B"/>
    <path fill-rule="evenodd" clip-rule="evenodd" d="M8.09031 4.59961H10.6703C11.1278 4.59961 11.5028 4.97461 11.5028 5.43211C11.5028 5.88961 11.1278 6.26461 10.6703 6.26461H8.09031C7.63281 6.26461 7.25781 5.88961 7.25781 5.43211C7.25781 4.97461 7.63281 4.59961 8.09031 4.59961ZM9.38031 13.5096H9.43281C10.5578 13.5396 11.4578 14.4546 11.4578 15.5796C11.4578 16.5396 10.8053 17.3421 9.92031 17.5821V18.4221C9.92031 18.7221 9.68031 18.9621 9.38031 18.9621C9.08031 18.9621 8.84031 18.7221 8.84031 18.4221V17.5821C8.39969 17.4635 8.01037 17.2031 7.73249 16.8412C7.4546 16.4793 7.3036 16.0359 7.30281 15.5796C7.30281 15.2796 7.54281 15.0396 7.84281 15.0396C8.14281 15.0396 8.38281 15.2796 8.38281 15.5796C8.38281 16.1346 8.82531 16.5771 9.37281 16.5771C9.92031 16.5771 10.3703 16.1271 10.3703 15.5796C10.3703 15.0321 9.92031 14.5821 9.37281 14.5821H9.32031C8.78078 14.5675 8.2682 14.3431 7.89149 13.9565C7.51477 13.57 7.30359 13.0518 7.30281 12.5121C7.30281 11.5521 7.95531 10.7496 8.84031 10.5096V9.66961C8.84031 9.36961 9.08031 9.12961 9.38031 9.12961C9.68031 9.12961 9.92031 9.36961 9.92031 9.66961V10.5096C10.8053 10.7496 11.4578 11.5521 11.4578 12.5121C11.4578 12.8121 11.2178 13.0521 10.9178 13.0521C10.6178 13.0521 10.3778 12.8121 10.3778 12.5121C10.3778 11.9646 9.92781 11.5146 9.38031 11.5146C8.83281 11.5146 8.38281 11.9646 8.38281 12.5121C8.38281 13.0596 8.83281 13.5096 9.38031 13.5096Z" fill="#8C5543"/>
</svg>
