<svg width="25" height="25" viewBox="0 0 25 25" fill="none" xmlns="http://www.w3.org/2000/svg">
    <path d="M16.69 2.5H8.31C4.67 2.5 2.5 4.67 2.5 8.31V16.68C2.5 20.33 4.67 22.5 8.31 22.5H16.68C20.32 22.5 22.49 20.33 22.49 16.69V8.31C22.5 4.67 20.33 2.5 16.69 2.5ZM18.35 14.6C18.31 14.69 18.26 14.77 18.19 14.84L15.15 17.88C15 18.03 14.81 18.1 14.62 18.1C14.43 18.1 14.24 18.03 14.09 17.88C13.8 17.59 13.8 17.11 14.09 16.82L15.85 15.06H7.35C6.94 15.06 6.6 14.72 6.6 14.31C6.6 13.9 6.94 13.56 7.35 13.56H17.66C17.76 13.56 17.85 13.58 17.95 13.62C18.13 13.7 18.28 13.84 18.36 14.03C18.42 14.21 18.42 14.42 18.35 14.6ZM17.65 11.43H7.35C7.25 11.43 7.16 11.41 7.06 11.37C6.88 11.29 6.73 11.15 6.65 10.96C6.57 10.78 6.57 10.57 6.65 10.39C6.69 10.3 6.74 10.22 6.81 10.15L9.85 7.11C10.14 6.82 10.62 6.82 10.91 7.11C11.2 7.4 11.2 7.88 10.91 8.17L9.16 9.93H17.66C18.07 9.93 18.41 10.27 18.41 10.68C18.41 11.09 18.07 11.43 17.65 11.43Z" fill="#10245D"/>
</svg>
