<svg width="24" height="24" viewBox="0 0 24 24" fill="none" xmlns="http://www.w3.org/2000/svg">
    <path d="M17.25 14.3333H17.2617M1.5 3.83333V20.1667C1.5 21.4553 2.54467 22.5 3.83333 22.5H20.1667C21.4553 22.5 22.5 21.4553 22.5 20.1667V8.5C22.5 7.21134 21.4553 6.16667 20.1667 6.16667L3.83333 6.16667C2.54467 6.16667 1.5 5.122 1.5 3.83333ZM1.5 3.83333C1.5 2.54467 2.54467 1.5 3.83333 1.5H17.8333M17.8333 14.3333C17.8333 14.6555 17.5722 14.9167 17.25 14.9167C16.9278 14.9167 16.6667 14.6555 16.6667 14.3333C16.6667 14.0112 16.9278 13.75 17.25 13.75C17.5722 13.75 17.8333 14.0112 17.8333 14.3333Z" stroke="#132559" stroke-width="2" stroke-linecap="round" stroke-linejoin="round"/>
</svg>
