<svg width="14" height="14" viewBox="0 0 14 14" fill="none" xmlns="http://www.w3.org/2000/svg">
    <path d="M11.2994 9.62568L7.89969 3.37769C7.67911 2.96836 7.34914 2.73926 6.99495 2.73926C6.64077 2.73926 6.31573 2.97284 6.09111 3.38217L2.6999 9.62613C2.48022 10.0301 2.45601 10.4443 2.63803 10.7604C2.81961 11.0774 3.18321 11.2576 3.63289 11.2576H10.3669C10.8166 11.2576 11.1802 11.0774 11.3622 10.7609C11.5438 10.4443 11.5196 10.035 11.2994 9.62613M6.99989 4.69265C7.17698 4.69265 7.32045 4.83881 7.32045 5.01904V7.97043C7.32045 8.15066 7.17698 8.29682 6.99989 8.29682C6.95738 8.29653 6.91535 8.28784 6.87621 8.27126C6.83707 8.25468 6.80159 8.23054 6.77181 8.20021C6.74202 8.16989 6.71852 8.13398 6.70265 8.09454C6.68678 8.05511 6.67885 8.01293 6.67933 7.97043V5.01859C6.67933 4.84329 6.82279 4.69265 6.99989 4.69265ZM6.99989 9.90365C6.72237 9.90365 6.50223 9.675 6.50223 9.39255C6.50223 9.1101 6.7273 8.881 6.99989 8.881C7.2774 8.881 7.49754 9.10965 7.49754 9.3921C7.49754 9.67455 7.27202 9.90365 6.99989 9.90365Z" fill="white"/>
</svg>
