<svg width="56" height="56" viewBox="0 0 56 56" fill="none" xmlns="http://www.w3.org/2000/svg">
<rect width="56" height="56" rx="8" fill="#F79009" fill-opacity="0.1"/>
<path d="M28 21.3333V28M28 34.6667H28.0167M21 43H35C37.8003 43 39.2004 43 40.27 42.455C41.2108 41.9757 41.9757 41.2108 42.455 40.27C43 39.2004 43 37.8003 43 35V21C43 18.1997 43 16.7996 42.455 15.73C41.9757 14.7892 41.2108 14.0243 40.27 13.545C39.2004 13 37.8003 13 35 13H21C18.1997 13 16.7996 13 15.73 13.545C14.7892 14.0243 14.0243 14.7892 13.545 15.73C13 16.7996 13 18.1997 13 21V35C13 37.8003 13 39.2004 13.545 40.27C14.0243 41.2108 14.7892 41.9757 15.73 42.455C16.7996 43 18.1997 43 21 43Z" stroke="#F79009" stroke-width="2" stroke-linecap="round" stroke-linejoin="round"/>
</svg>
