<svg width="15" height="20" viewBox="0 0 15 20" fill="none" xmlns="http://www.w3.org/2000/svg">
    <path d="M14.625 15.5195V18.75C14.625 18.9158 14.5592 19.0747 14.4419 19.1919C14.3247 19.3092 14.1658 19.375 14 19.375C13.8342 19.375 13.6753 19.3092 13.5581 19.1919C13.4408 19.0747 13.375 18.9158 13.375 18.75V15.5195C13.3721 14.7173 13.2041 13.9243 12.8816 13.1898C12.559 12.4552 12.0887 11.795 11.5 11.25V15.8086C11.4999 15.9431 11.4564 16.074 11.376 16.1818C11.2955 16.2896 11.1825 16.3686 11.0536 16.407C10.9247 16.4454 10.7868 16.4413 10.6605 16.3951C10.5342 16.3489 10.4261 16.2633 10.3523 16.1508L9.51797 14.8766C9.51172 14.8672 9.50547 14.857 9.5 14.8469C9.37744 14.6305 9.17393 14.4716 8.93423 14.4052C8.69454 14.3388 8.4383 14.3704 8.22187 14.493C8.00545 14.6155 7.84658 14.819 7.78021 15.0587C7.71384 15.2984 7.74541 15.5547 7.86797 15.7711L9.59688 18.4109C9.68763 18.5497 9.71956 18.7187 9.68564 18.881C9.65172 19.0433 9.55474 19.1854 9.41602 19.2762C9.2773 19.3669 9.1082 19.3989 8.94594 19.3649C8.78368 19.331 8.64153 19.234 8.55078 19.0953L6.81172 16.4391L6.79297 16.4094C6.52377 15.948 6.43266 15.4041 6.53683 14.8803C6.641 14.3564 6.93324 13.8887 7.35845 13.5655C7.78367 13.2422 8.31246 13.0857 8.84512 13.1254C9.37777 13.1652 9.87748 13.3985 10.25 13.7812V5H9C8.83424 5 8.67527 4.93415 8.55806 4.81694C8.44085 4.69973 8.375 4.54076 8.375 4.375C8.375 4.20924 8.44085 4.05027 8.55806 3.93306C8.67527 3.81585 8.83424 3.75 9 3.75H10.25C10.5815 3.75 10.8995 3.8817 11.1339 4.11612C11.3683 4.35054 11.5 4.66848 11.5 5V9.65781C12.4593 10.3061 13.2455 11.179 13.7902 12.2007C14.3349 13.2224 14.6215 14.3617 14.625 15.5195ZM3.375 4.375C3.375 4.20924 3.30915 4.05027 3.19194 3.93306C3.07473 3.81585 2.91576 3.75 2.75 3.75H1.5C1.16848 3.75 0.850537 3.8817 0.616116 4.11612C0.381696 4.35054 0.25 4.66848 0.25 5V15.625C0.25 15.7908 0.315848 15.9497 0.433058 16.0669C0.550269 16.1842 0.70924 16.25 0.875 16.25C1.04076 16.25 1.19973 16.1842 1.31694 16.0669C1.43415 15.9497 1.5 15.7908 1.5 15.625V5H2.75C2.91576 5 3.07473 4.93415 3.19194 4.81694C3.30915 4.69973 3.375 4.54076 3.375 4.375ZM8.81719 7.68281C8.75914 7.6247 8.69021 7.5786 8.61434 7.54715C8.53846 7.5157 8.45713 7.49951 8.375 7.49951C8.29287 7.49951 8.21154 7.5157 8.13566 7.54715C8.05979 7.5786 7.99086 7.6247 7.93281 7.68281L6.5 9.11641V1.25C6.5 1.08424 6.43415 0.925268 6.31694 0.808058C6.19973 0.690848 6.04076 0.625 5.875 0.625C5.70924 0.625 5.55027 0.690848 5.43306 0.808058C5.31585 0.925268 5.25 1.08424 5.25 1.25V9.11641L3.81719 7.68281C3.69991 7.56554 3.54085 7.49965 3.375 7.49965C3.20915 7.49965 3.05009 7.56554 2.93281 7.68281C2.81554 7.80009 2.74965 7.95915 2.74965 8.125C2.74965 8.29085 2.81554 8.44991 2.93281 8.56719L5.43281 11.0672C5.49086 11.1253 5.55979 11.1714 5.63566 11.2028C5.71154 11.2343 5.79287 11.2505 5.875 11.2505C5.95713 11.2505 6.03846 11.2343 6.11434 11.2028C6.19021 11.1714 6.25914 11.1253 6.31719 11.0672L8.81719 8.56719C8.8753 8.50914 8.9214 8.44021 8.95285 8.36434C8.9843 8.28846 9.00049 8.20713 9.00049 8.125C9.00049 8.04286 8.9843 7.96154 8.95285 7.88566C8.9214 7.80979 8.8753 7.74086 8.81719 7.68281Z" fill="#132559"/>
</svg>
